<svg width="687" height="514" viewBox="0 0 687 514" fill="none" xmlns="http://www.w3.org/2000/svg">
<path d="M310.878 158.843C305.162 170.352 346.721 214.27 400.644 220.447C429.044 223.701 467.357 217.229 468.409 206.366C470.542 184.366 320.305 139.866 310.879 158.843" fill="#EDF2FA"/>
<path d="M522.973 231.888C548.903 254.213 544.733 303.412 534.696 332.162C532.026 339.808 516.175 385.212 478.089 396.458C438.264 408.221 420.299 369.001 367.543 367.816C308.743 366.494 297.113 414.449 246.65 413.5C190.972 412.45 115.968 352.4 120.082 274.39C123.286 213.612 173.672 157.869 221.553 155.676C275.485 153.206 284.16 220.605 359.18 239.3C436.976 258.687 487.135 201.033 522.973 231.888Z" fill="#EDF2FA"/>
<path d="M483.76 470.66C483.637 482.066 407.68 490.493 314.106 489.48C220.532 488.467 144.775 478.4 144.898 466.995C145.022 455.588 220.978 447.162 314.552 448.175C408.126 449.188 483.884 459.253 483.76 470.659" fill="#E4EBF1"/>
<path d="M364.449 195.224C364.507 195.112 364.519 194.982 364.482 194.862C364.444 194.742 364.36 194.641 364.249 194.583L359.217 191.928L357.939 187.628L362.151 189.851C362.219 189.887 362.296 189.906 362.373 189.905C362.45 189.905 362.526 189.886 362.595 189.85C362.663 189.814 362.721 189.761 362.765 189.697C362.808 189.633 362.835 189.56 362.844 189.483L362.882 189.123C362.888 189.074 362.886 189.024 362.876 188.975L361.93 184.457L365.948 186.633L367.058 191.938C367.072 192.013 367.105 192.082 367.154 192.141C367.221 192.223 367.314 192.28 367.417 192.303C367.521 192.327 367.629 192.314 367.725 192.269C367.821 192.223 367.899 192.146 367.946 192.051C367.993 191.956 368.007 191.848 367.985 191.744L367.041 187.226L368.455 187.991C368.412 188.189 368.417 188.395 368.468 188.591C368.519 188.787 368.616 188.969 368.75 189.121C368.995 189.393 369.335 189.561 369.701 189.589C370.066 189.617 370.428 189.504 370.712 189.272C370.995 189.04 371.179 188.707 371.224 188.344C371.269 187.98 371.172 187.613 370.954 187.319C370.837 187.17 370.69 187.048 370.523 186.96C370.356 186.871 370.173 186.819 369.984 186.806C369.796 186.793 369.606 186.82 369.429 186.885C369.252 186.95 369.09 187.051 368.954 187.183L367.464 186.375L371.97 184.981C372.083 184.938 372.176 184.854 372.229 184.745C372.282 184.637 372.292 184.512 372.256 184.396C372.221 184.28 372.142 184.183 372.037 184.123C371.932 184.063 371.807 184.046 371.69 184.075L366.296 185.742L362.353 183.605L366.859 182.213C366.933 182.19 367 182.149 367.055 182.094C367.109 182.04 367.15 181.972 367.173 181.898C367.195 181.824 367.199 181.746 367.185 181.67C367.17 181.594 367.137 181.522 367.089 181.462L366.863 181.182L366.861 181.178C366.83 181.141 366.793 181.109 366.753 181.082L362.873 178.543L367.421 177.191L372.066 179.997C372.174 180.062 372.303 180.081 372.425 180.051C372.547 180.021 372.652 179.944 372.717 179.836C372.782 179.728 372.801 179.599 372.771 179.477C372.741 179.355 372.664 179.25 372.556 179.185L368.651 176.825L370.511 176.274C370.524 176.291 370.531 176.311 370.546 176.329C370.787 176.615 371.131 176.794 371.503 176.829C371.875 176.864 372.246 176.75 372.536 176.514C372.825 176.277 373.01 175.936 373.05 175.564C373.091 175.193 372.983 174.82 372.751 174.527C372.563 174.315 372.318 174.162 372.044 174.089C371.771 174.015 371.482 174.024 371.213 174.113C370.944 174.203 370.708 174.369 370.533 174.592C370.359 174.815 370.253 175.085 370.231 175.367L368.247 175.956L370.32 171.66C370.347 171.604 370.363 171.543 370.366 171.481C370.37 171.418 370.361 171.356 370.34 171.297C370.32 171.238 370.288 171.184 370.246 171.138C370.205 171.091 370.155 171.053 370.098 171.026C370.042 170.999 369.981 170.984 369.919 170.98C369.857 170.977 369.795 170.985 369.736 171.006C369.677 171.026 369.623 171.058 369.576 171.1C369.53 171.141 369.492 171.192 369.465 171.248L367.018 176.321L362.597 177.635L364.788 173.482C364.824 173.413 364.843 173.337 364.843 173.259C364.843 173.182 364.824 173.106 364.788 173.037C364.752 172.968 364.699 172.909 364.635 172.865C364.57 172.822 364.495 172.795 364.418 172.788L364.06 172.75C364.011 172.745 363.961 172.747 363.913 172.757L359.387 173.704L361.563 169.687L366.877 168.576C367 168.55 367.108 168.476 367.177 168.371C367.246 168.265 367.27 168.137 367.244 168.013C367.219 167.89 367.145 167.782 367.039 167.713C366.934 167.644 366.805 167.62 366.682 167.646L362.155 168.594L362.98 167.071C363.254 167.082 363.526 167.016 363.764 166.878C364.001 166.741 364.195 166.539 364.322 166.296C364.448 166.052 364.503 165.778 364.48 165.504C364.456 165.231 364.355 164.97 364.189 164.752C363.944 164.477 363.603 164.308 363.237 164.279C362.87 164.25 362.507 164.363 362.222 164.596C361.938 164.829 361.754 165.163 361.71 165.528C361.666 165.893 361.764 166.261 361.985 166.555C362.024 166.599 362.066 166.641 362.11 166.681L361.309 168.161L359.919 163.662C359.879 163.545 359.795 163.449 359.685 163.393C359.575 163.337 359.447 163.326 359.329 163.363C359.211 163.399 359.112 163.48 359.053 163.589C358.994 163.697 358.979 163.824 359.012 163.943L360.678 169.328L358.541 173.271L357.149 168.773C357.124 168.69 357.076 168.615 357.01 168.558C356.945 168.5 356.865 168.462 356.78 168.447L356.414 168.381C356.319 168.363 356.222 168.375 356.134 168.415C356.047 168.454 355.973 168.52 355.924 168.602L353.484 172.639L352.194 168.297L355.079 163.521C355.139 163.413 355.155 163.287 355.124 163.168C355.092 163.049 355.016 162.947 354.91 162.883C354.805 162.819 354.679 162.798 354.559 162.826C354.439 162.853 354.334 162.926 354.267 163.029L351.829 167.067L351.356 165.478C351.513 165.372 351.646 165.233 351.746 165.072C351.846 164.911 351.911 164.731 351.937 164.543C351.963 164.355 351.949 164.163 351.895 163.981C351.842 163.799 351.751 163.63 351.628 163.486C351.385 163.207 351.043 163.034 350.674 163.003C350.306 162.972 349.94 163.086 349.653 163.32C349.367 163.554 349.183 163.89 349.139 164.257C349.096 164.624 349.198 164.994 349.422 165.288C349.544 165.448 349.701 165.578 349.881 165.667C350.062 165.756 350.261 165.803 350.462 165.802L350.899 167.272L346.743 165.267C346.687 165.24 346.626 165.224 346.564 165.22C346.502 165.217 346.439 165.225 346.38 165.246C346.322 165.266 346.267 165.298 346.221 165.34C346.174 165.381 346.136 165.431 346.109 165.487C346.082 165.543 346.066 165.604 346.063 165.666C346.059 165.729 346.068 165.791 346.088 165.85C346.109 165.909 346.141 165.963 346.182 166.009C346.224 166.056 346.274 166.094 346.33 166.121L351.265 168.502L352.555 172.843L348.398 170.838C348.322 170.801 348.237 170.786 348.153 170.793C348.069 170.8 347.988 170.829 347.919 170.878L347.619 171.088C347.54 171.143 347.48 171.22 347.447 171.31C347.413 171.4 347.408 171.498 347.431 171.591L348.551 176.129L344.569 173.971L343.242 168.595C343.212 168.473 343.134 168.368 343.027 168.302C342.919 168.237 342.79 168.218 342.668 168.248C342.546 168.278 342.441 168.355 342.375 168.463C342.31 168.571 342.291 168.7 342.321 168.822L343.44 173.36L342.102 172.636C342.143 172.439 342.137 172.235 342.085 172.041C342.034 171.846 341.938 171.667 341.805 171.516C341.562 171.235 341.22 171.061 340.85 171.029C340.481 170.997 340.114 171.11 339.827 171.345C339.54 171.58 339.355 171.917 339.313 172.286C339.271 172.654 339.374 173.024 339.601 173.318C339.718 173.467 339.865 173.591 340.033 173.679C340.201 173.768 340.386 173.82 340.576 173.832C340.765 173.845 340.955 173.817 341.133 173.75C341.311 173.684 341.473 173.581 341.609 173.448L342.979 174.19L338.582 175.724C338.523 175.744 338.469 175.776 338.422 175.817C338.375 175.859 338.337 175.909 338.31 175.965C338.283 176.021 338.267 176.082 338.263 176.144C338.26 176.207 338.268 176.269 338.289 176.328C338.307 176.38 338.334 176.429 338.37 176.472C338.431 176.547 338.515 176.602 338.608 176.629C338.702 176.655 338.802 176.652 338.894 176.62L344.106 174.8L348.089 176.958L343.693 178.493C343.613 178.52 343.542 178.568 343.487 178.633C343.432 178.697 343.395 178.775 343.381 178.858L343.317 179.221C343.3 179.315 343.312 179.412 343.352 179.499C343.391 179.587 343.456 179.66 343.538 179.71L347.522 182.115L343.345 183.357L338.719 180.33C338.667 180.296 338.608 180.272 338.547 180.261C338.486 180.249 338.423 180.25 338.362 180.262C338.301 180.275 338.243 180.3 338.192 180.335C338.14 180.37 338.096 180.415 338.062 180.467C338.028 180.519 338.004 180.577 337.993 180.639C337.981 180.7 337.982 180.763 337.994 180.824C338.007 180.885 338.032 180.943 338.067 180.994C338.102 181.046 338.147 181.09 338.199 181.124L342.154 183.712L340.482 184.209C340.458 184.174 340.442 184.139 340.415 184.107C340.171 183.831 339.83 183.66 339.463 183.63C339.096 183.6 338.731 183.714 338.446 183.947C338.161 184.18 337.977 184.514 337.932 184.88C337.888 185.245 337.987 185.614 338.209 185.908C338.393 186.117 338.634 186.269 338.902 186.344C339.171 186.42 339.455 186.416 339.721 186.333C339.988 186.25 340.224 186.092 340.403 185.878C340.581 185.663 340.693 185.402 340.726 185.125L342.311 184.655L340.163 188.725C340.12 188.807 340.102 188.901 340.112 188.993C340.121 189.086 340.158 189.174 340.217 189.246C340.267 189.306 340.331 189.353 340.403 189.382C340.475 189.412 340.554 189.423 340.631 189.415C340.709 189.407 340.783 189.38 340.848 189.337C340.913 189.293 340.966 189.235 341.003 189.166L343.584 184.276L347.809 183.02L345.776 187.234C345.739 187.31 345.723 187.395 345.73 187.479C345.737 187.563 345.767 187.644 345.816 187.713L346.026 188.013L346.047 188.041C346.104 188.11 346.179 188.162 346.264 188.191C346.349 188.219 346.441 188.223 346.528 188.202L351.058 187.083L348.901 191.066L343.532 192.391C343.471 192.406 343.414 192.432 343.364 192.469C343.314 192.506 343.272 192.553 343.239 192.606C343.207 192.659 343.186 192.718 343.176 192.78C343.167 192.842 343.17 192.904 343.185 192.965C343.202 193.033 343.234 193.096 343.278 193.151C343.335 193.221 343.41 193.273 343.495 193.302C343.581 193.33 343.673 193.334 343.76 193.312L348.29 192.194L347.598 193.472C347.317 193.438 347.032 193.488 346.779 193.615C346.526 193.742 346.316 193.94 346.175 194.186C346.034 194.431 345.968 194.713 345.986 194.995C346.004 195.278 346.104 195.549 346.275 195.775C346.518 196.053 346.86 196.225 347.229 196.255C347.597 196.286 347.962 196.172 348.248 195.938C348.534 195.705 348.718 195.369 348.761 195.002C348.805 194.635 348.704 194.266 348.48 193.972C348.464 193.954 348.447 193.942 348.432 193.925L349.124 192.645L350.661 197.051C350.702 197.17 350.789 197.267 350.902 197.322C351.016 197.377 351.146 197.384 351.265 197.343C351.384 197.301 351.481 197.215 351.536 197.101C351.591 196.988 351.598 196.858 351.557 196.739L349.735 191.519L351.892 187.536L353.43 191.94C353.455 192.012 353.497 192.077 353.553 192.13C353.609 192.182 353.676 192.22 353.75 192.241C353.824 192.262 353.901 192.264 353.976 192.248C354.051 192.232 354.121 192.199 354.18 192.15L354.457 191.921C354.493 191.89 354.524 191.855 354.551 191.816L357.056 187.986L358.357 192.366L355.412 196.868C355.357 196.952 355.33 197.052 355.336 197.153C355.341 197.253 355.378 197.35 355.442 197.428C355.473 197.465 355.509 197.498 355.55 197.524C355.602 197.558 355.66 197.582 355.721 197.593C355.783 197.605 355.846 197.604 355.907 197.591C355.967 197.578 356.025 197.554 356.077 197.518C356.128 197.483 356.172 197.438 356.206 197.386L358.712 193.558L359.189 195.165C359.034 195.272 358.904 195.411 358.806 195.572C358.708 195.733 358.645 195.912 358.621 196.099C358.597 196.286 358.612 196.476 358.666 196.656C358.72 196.837 358.811 197.004 358.934 197.147C359.178 197.424 359.519 197.595 359.887 197.625C360.254 197.655 360.619 197.542 360.904 197.308C361.19 197.075 361.373 196.74 361.417 196.373C361.46 196.007 361.36 195.639 361.137 195.345C361.014 195.182 360.854 195.051 360.67 194.962C360.487 194.873 360.285 194.828 360.081 194.832L359.595 193.2L363.807 195.423C363.919 195.481 364.049 195.493 364.169 195.456C364.29 195.418 364.39 195.335 364.449 195.224ZM361.829 188.608L357.561 186.355L356.05 181.271L360.837 183.864L361.829 188.608ZM365.752 181.561L361.185 182.973L356.502 180.437L361.68 178.897L365.752 181.561ZM363.545 173.804L361.324 178.014L356.232 179.527L358.794 174.797L363.545 173.804ZM356.418 169.619L357.908 174.439L355.398 179.074L353.851 173.87L356.418 169.619ZM348.493 171.938L352.921 174.074L354.487 179.344L349.68 176.74L348.493 171.938ZM344.537 179.203L349.217 177.569L354.035 180.179L348.753 181.75L344.537 179.203ZM346.875 187.139L349.039 182.655L354.305 181.089L351.669 185.955L346.875 187.139ZM354.052 190.844L352.505 186.408L355.14 181.541L356.701 186.794L354.052 190.844ZM190.899 358.665C191.022 358.431 191.047 358.158 190.969 357.905C190.891 357.653 190.716 357.442 190.483 357.318L179.904 351.738L177.218 342.698L186.07 347.371C186.214 347.447 186.374 347.486 186.537 347.486C186.7 347.485 186.86 347.445 187.003 347.369C187.147 347.292 187.27 347.182 187.361 347.047C187.452 346.913 187.509 346.758 187.527 346.596L187.607 345.842C187.618 345.738 187.613 345.634 187.593 345.532L185.608 336.032L194.051 340.608L196.383 351.76C196.415 351.916 196.485 352.062 196.587 352.186C196.728 352.36 196.923 352.481 197.142 352.531C197.36 352.58 197.589 352.555 197.791 352.458C197.993 352.362 198.157 352.2 198.256 351.999C198.355 351.798 198.384 351.57 198.337 351.351L196.35 341.851L199.322 343.462C199.233 343.879 199.243 344.311 199.35 344.723C199.458 345.136 199.661 345.517 199.942 345.838C202.379 348.818 207.017 345.036 204.576 342.05C204.331 341.737 204.023 341.479 203.672 341.293C203.321 341.107 202.935 340.997 202.538 340.97C202.142 340.943 201.744 340.999 201.371 341.135C200.998 341.271 200.657 341.485 200.372 341.761L197.237 340.064L206.713 337.134C206.843 337.099 206.965 337.039 207.071 336.956C207.177 336.874 207.265 336.77 207.331 336.653C207.396 336.535 207.436 336.405 207.45 336.271C207.464 336.138 207.451 336.002 207.411 335.874C207.371 335.745 207.306 335.626 207.219 335.524C207.132 335.421 207.025 335.337 206.904 335.277C206.784 335.216 206.653 335.181 206.519 335.173C206.384 335.165 206.25 335.184 206.123 335.229L194.785 338.734L186.495 334.243L195.968 331.313C196.123 331.265 196.265 331.179 196.379 331.064C196.494 330.949 196.579 330.807 196.627 330.652C196.674 330.496 196.683 330.331 196.653 330.171C196.622 330.012 196.553 329.862 196.451 329.735L195.976 329.145L195.97 329.14C195.906 329.061 195.829 328.992 195.744 328.937L187.587 323.6L197.149 320.759L206.912 326.656C207.138 326.784 207.405 326.819 207.656 326.754C207.908 326.688 208.124 326.527 208.258 326.305C208.393 326.082 208.436 325.816 208.377 325.563C208.318 325.31 208.163 325.09 207.945 324.949L199.735 319.989L203.642 318.829C203.672 318.867 203.688 318.908 203.72 318.946C206.157 321.928 210.795 318.145 208.353 315.158C206.458 312.84 203.246 314.615 203.053 316.922L198.886 318.161L203.242 309.131C203.299 309.013 203.332 308.885 203.339 308.754C203.347 308.623 203.328 308.492 203.285 308.369C203.242 308.245 203.175 308.131 203.088 308.033C203 307.935 202.895 307.856 202.777 307.799C202.659 307.742 202.531 307.709 202.4 307.701C202.269 307.694 202.138 307.712 202.015 307.755C201.891 307.799 201.777 307.866 201.679 307.953C201.581 308.04 201.502 308.146 201.445 308.264L196.3 318.93L187.008 321.692L191.614 312.962C191.69 312.818 191.73 312.657 191.729 312.494C191.729 312.332 191.688 312.171 191.611 312.028C191.536 311.883 191.426 311.759 191.291 311.667C191.156 311.576 191 311.52 190.838 311.505L190.086 311.425C189.982 311.413 189.877 311.418 189.775 311.439L180.259 313.429L184.833 304.984L196.003 302.65C196.134 302.626 196.26 302.577 196.372 302.504C196.483 302.431 196.58 302.337 196.654 302.226C196.729 302.115 196.781 301.991 196.806 301.86C196.832 301.729 196.831 301.594 196.804 301.463C196.777 301.333 196.724 301.209 196.648 301.099C196.571 300.989 196.474 300.896 196.361 300.825C196.249 300.753 196.123 300.705 195.991 300.683C195.859 300.661 195.725 300.666 195.595 300.697L186.079 302.686L187.812 299.486C190.032 299.543 192.187 296.853 190.355 294.613C187.918 291.631 183.28 295.414 185.722 298.4C185.805 298.494 185.893 298.583 185.987 298.666L184.302 301.776L181.378 292.319C181.342 292.19 181.281 292.07 181.198 291.966C181.115 291.862 181.011 291.775 180.894 291.711C180.777 291.647 180.648 291.607 180.516 291.594C180.383 291.581 180.249 291.595 180.122 291.634C179.994 291.673 179.876 291.738 179.774 291.824C179.672 291.91 179.588 292.015 179.527 292.134C179.467 292.253 179.431 292.383 179.421 292.516C179.412 292.649 179.429 292.783 179.472 292.909L182.972 304.23L178.482 312.52L175.557 303.064C175.503 302.889 175.402 302.733 175.266 302.612C175.129 302.49 174.962 302.409 174.782 302.377L174.01 302.237C173.811 302.201 173.606 302.226 173.421 302.309C173.237 302.392 173.082 302.529 172.978 302.702L167.853 311.192L165.14 302.064L171.204 292.022C171.33 291.796 171.363 291.53 171.296 291.28C171.23 291.031 171.069 290.816 170.848 290.682C170.627 290.549 170.362 290.506 170.11 290.563C169.858 290.621 169.638 290.774 169.497 290.99L164.371 299.478L163.378 296.138C163.708 295.914 163.988 295.624 164.199 295.285C164.409 294.946 164.546 294.567 164.599 294.171C164.653 293.776 164.623 293.374 164.511 292.991C164.398 292.608 164.207 292.253 163.948 291.95C161.51 288.968 156.873 292.751 159.314 295.737C159.569 296.074 159.9 296.347 160.279 296.534C160.658 296.722 161.075 296.818 161.498 296.817L162.417 299.908L153.68 295.692C153.442 295.577 153.167 295.561 152.918 295.648C152.668 295.736 152.463 295.919 152.348 296.157C152.233 296.395 152.217 296.669 152.304 296.919C152.392 297.169 152.575 297.374 152.813 297.489L163.185 302.494L165.898 311.62L157.161 307.405C157.001 307.328 156.824 307.294 156.647 307.309C156.47 307.323 156.3 307.385 156.155 307.487L155.522 307.931C155.357 308.047 155.231 308.209 155.16 308.398C155.09 308.587 155.078 308.792 155.126 308.988L157.481 318.527L149.111 313.991L146.319 302.689C146.287 302.562 146.231 302.442 146.154 302.337C146.076 302.231 145.978 302.142 145.866 302.074C145.754 302.007 145.63 301.962 145.5 301.942C145.371 301.922 145.239 301.928 145.112 301.96C144.985 301.991 144.865 302.047 144.76 302.125C144.654 302.203 144.565 302.3 144.497 302.412C144.43 302.524 144.385 302.649 144.365 302.778C144.345 302.908 144.351 303.04 144.383 303.167L146.738 312.706L143.925 311.183C144.01 310.769 143.998 310.341 143.89 309.932C143.782 309.524 143.58 309.146 143.301 308.829C140.863 305.849 136.225 309.631 138.667 312.617C138.913 312.931 139.223 313.189 139.576 313.375C139.93 313.561 140.318 313.671 140.716 313.696C141.115 313.722 141.514 313.664 141.888 313.525C142.262 313.386 142.603 313.169 142.888 312.89L145.766 314.45L136.523 317.675C136.399 317.718 136.285 317.785 136.188 317.872C136.09 317.96 136.01 318.065 135.953 318.183C135.897 318.301 135.864 318.429 135.856 318.56C135.849 318.691 135.867 318.822 135.91 318.945C135.954 319.069 136.021 319.183 136.108 319.281C136.195 319.378 136.301 319.458 136.419 319.515C136.537 319.572 136.665 319.605 136.796 319.612C136.926 319.619 137.057 319.601 137.181 319.558L148.138 315.734L156.511 320.269L147.267 323.495C147.099 323.553 146.95 323.656 146.835 323.791C146.72 323.926 146.643 324.09 146.612 324.265L146.478 325.027C146.443 325.225 146.469 325.429 146.552 325.612C146.635 325.796 146.772 325.949 146.944 326.054L155.32 331.111L146.539 333.721L136.813 327.357C136.591 327.22 136.325 327.175 136.071 327.232C135.817 327.288 135.596 327.442 135.453 327.66C135.311 327.878 135.259 328.142 135.309 328.398C135.359 328.653 135.507 328.879 135.721 329.027L144.035 334.465L140.517 335.51C140.467 335.44 140.433 335.367 140.375 335.297C137.938 332.317 133.302 336.098 135.742 339.085C137.606 341.365 140.745 339.688 141.034 337.438L144.366 336.448L139.851 345.003C139.759 345.176 139.721 345.373 139.741 345.568C139.76 345.764 139.837 345.949 139.961 346.101C140.046 346.204 140.15 346.289 140.268 346.351C140.502 346.474 140.775 346.5 141.028 346.421C141.281 346.343 141.492 346.168 141.616 345.934L147.039 335.653L155.921 333.013L151.648 341.87C151.57 342.029 151.537 342.207 151.551 342.384C151.565 342.561 151.626 342.731 151.728 342.876L152.174 343.509C152.187 343.53 152.202 343.549 152.217 343.569C152.337 343.715 152.495 343.824 152.674 343.883C152.853 343.942 153.046 343.95 153.229 343.905L162.752 341.555L158.216 349.926L146.931 352.713C146.804 352.744 146.684 352.8 146.578 352.878C146.473 352.955 146.384 353.053 146.316 353.165C146.248 353.277 146.203 353.402 146.183 353.531C146.163 353.661 146.169 353.793 146.201 353.92C146.237 354.063 146.304 354.196 146.397 354.311C146.516 354.457 146.675 354.567 146.854 354.627C147.034 354.687 147.226 354.694 147.41 354.649L156.931 352.299L155.477 354.982C153.179 354.716 150.801 357.504 152.698 359.825C155.136 362.805 159.773 359.022 157.331 356.037C157.3 355.998 157.263 355.972 157.231 355.935L158.686 353.249L161.918 362.509C162.01 362.752 162.194 362.949 162.429 363.059C162.665 363.169 162.934 363.183 163.18 363.097C163.425 363.012 163.628 362.834 163.744 362.601C163.86 362.368 163.881 362.1 163.802 361.852L159.971 350.876L164.506 342.506L167.738 351.766C167.791 351.918 167.88 352.055 167.998 352.165C168.115 352.275 168.258 352.355 168.413 352.398C168.568 352.441 168.731 352.446 168.889 352.412C169.046 352.378 169.193 352.307 169.317 352.204L169.897 351.723C169.973 351.659 170.04 351.584 170.094 351.501L175.359 343.451L178.097 352.661L171.906 362.122C171.79 362.299 171.733 362.509 171.744 362.721C171.755 362.933 171.834 363.136 171.968 363.3C172.032 363.379 172.109 363.448 172.195 363.503C172.416 363.647 172.686 363.698 172.945 363.644C173.204 363.59 173.43 363.435 173.575 363.214L178.841 355.164L179.845 358.542C179.52 358.768 179.245 359.059 179.04 359.397C178.834 359.735 178.702 360.113 178.651 360.506C178.601 360.898 178.633 361.297 178.746 361.676C178.859 362.056 179.051 362.407 179.308 362.708C181.745 365.689 186.383 361.906 183.941 358.921C183.682 358.579 183.345 358.303 182.959 358.116C182.573 357.928 182.148 357.835 181.719 357.844L180.699 354.412L189.552 359.084C189.668 359.145 189.795 359.182 189.925 359.195C190.055 359.207 190.187 359.193 190.312 359.154C190.437 359.115 190.553 359.052 190.654 358.968C190.755 358.885 190.838 358.781 190.899 358.665ZM185.393 344.759L176.423 340.025L173.246 329.336L183.308 334.788L185.393 344.759ZM193.642 329.946L184.042 332.915L174.197 327.581L185.081 324.345L193.642 329.946ZM189.002 313.639L184.332 322.487L173.628 325.668L179.013 315.728L189.002 313.639ZM174.019 304.839L177.152 314.974L171.872 324.719L168.621 313.776L174.019 304.839ZM157.36 309.717L166.667 314.207L169.96 325.287L159.853 319.811L157.36 309.717ZM149.041 324.989L158.881 321.555L169.011 327.041L157.904 330.342L149.041 324.989ZM153.958 341.671L158.508 332.245L169.578 328.955L164.037 339.184L153.958 341.671ZM169.046 349.459L165.791 340.133L171.331 329.905L174.614 340.947L169.046 349.459ZM270.696 228.342C270.775 228.192 270.791 228.018 270.741 227.857C270.691 227.696 270.579 227.561 270.43 227.482L263.683 223.922L261.97 218.158L267.616 221.138C267.708 221.186 267.81 221.211 267.914 221.211C268.018 221.21 268.12 221.185 268.211 221.136C268.303 221.087 268.381 221.016 268.439 220.93C268.497 220.844 268.533 220.745 268.544 220.642L268.596 220.162C268.603 220.095 268.6 220.028 268.586 219.963L267.321 213.906L272.706 216.823L274.194 223.937C274.214 224.037 274.259 224.13 274.324 224.209C274.414 224.319 274.538 224.396 274.677 224.427C274.816 224.458 274.962 224.441 275.09 224.38C275.218 224.319 275.323 224.216 275.386 224.089C275.449 223.961 275.468 223.816 275.439 223.677L274.173 217.617L276.068 218.644C276.011 218.91 276.016 219.186 276.085 219.449C276.154 219.712 276.283 219.956 276.463 220.16C276.79 220.529 277.248 220.757 277.739 220.797C278.231 220.836 278.719 220.684 279.101 220.371C279.483 220.059 279.729 219.611 279.788 219.121C279.847 218.632 279.715 218.138 279.418 217.744C279.262 217.544 279.065 217.38 278.841 217.262C278.618 217.143 278.371 217.073 278.119 217.056C277.866 217.038 277.612 217.074 277.375 217.161C277.137 217.248 276.92 217.385 276.738 217.561L274.738 216.477L280.78 214.61C280.86 214.585 280.934 214.545 280.998 214.492C281.063 214.438 281.116 214.373 281.155 214.299C281.194 214.225 281.218 214.144 281.226 214.061C281.233 213.978 281.225 213.894 281.2 213.814C281.175 213.734 281.135 213.66 281.082 213.595C281.028 213.531 280.963 213.478 280.889 213.439C280.815 213.4 280.734 213.376 280.651 213.368C280.568 213.36 280.484 213.369 280.404 213.394L273.174 215.629L267.887 212.766L273.929 210.897C274.028 210.866 274.118 210.811 274.191 210.738C274.264 210.664 274.318 210.574 274.349 210.474C274.379 210.375 274.384 210.27 274.365 210.168C274.345 210.066 274.301 209.971 274.236 209.89L273.933 209.514L273.931 209.511C273.89 209.46 273.84 209.416 273.785 209.381L268.583 205.979L274.681 204.166L280.908 207.926C280.979 207.974 281.06 208.007 281.145 208.023C281.229 208.04 281.316 208.038 281.401 208.02C281.485 208.001 281.564 207.966 281.635 207.916C281.705 207.866 281.764 207.802 281.809 207.728C281.853 207.654 281.883 207.572 281.895 207.487C281.907 207.402 281.901 207.315 281.879 207.231C281.856 207.148 281.817 207.07 281.764 207.003C281.71 206.935 281.644 206.879 281.568 206.838L276.331 203.675L278.821 202.935C278.841 202.959 278.852 202.985 278.871 203.01C279.197 203.382 279.656 203.613 280.149 203.654C280.642 203.695 281.132 203.543 281.516 203.23C281.899 202.916 282.146 202.466 282.204 201.975C282.262 201.483 282.127 200.988 281.827 200.594C281.576 200.309 281.246 200.105 280.88 200.006C280.513 199.908 280.125 199.919 279.765 200.039C279.405 200.159 279.088 200.382 278.854 200.681C278.62 200.979 278.478 201.34 278.448 201.719L275.789 202.509L278.567 196.749C278.635 196.598 278.641 196.426 278.585 196.27C278.528 196.114 278.413 195.987 278.264 195.915C278.114 195.843 277.943 195.832 277.786 195.884C277.628 195.937 277.498 196.049 277.422 196.196L274.141 203L268.214 204.761L271.151 199.193C271.199 199.101 271.225 198.999 271.225 198.895C271.224 198.791 271.199 198.689 271.15 198.597C271.102 198.504 271.032 198.426 270.946 198.367C270.86 198.309 270.76 198.274 270.657 198.264L270.176 198.214C270.11 198.206 270.044 198.209 269.979 198.223L263.91 199.491L266.828 194.106L273.951 192.616C274.033 192.599 274.11 192.566 274.179 192.519C274.248 192.472 274.308 192.411 274.353 192.341C274.399 192.272 274.431 192.193 274.446 192.111C274.462 192.029 274.461 191.945 274.444 191.863C274.427 191.781 274.394 191.703 274.347 191.634C274.3 191.565 274.239 191.506 274.169 191.46C274.1 191.415 274.021 191.383 273.939 191.368C273.857 191.352 273.773 191.353 273.691 191.37L267.621 192.64L268.727 190.599C269.094 190.614 269.459 190.525 269.777 190.341C270.096 190.157 270.355 189.886 270.526 189.56C270.696 189.234 270.77 188.866 270.738 188.5C270.707 188.133 270.572 187.783 270.349 187.491C268.794 185.59 265.837 188.001 267.394 189.906C267.446 189.966 267.502 190.023 267.562 190.076L266.489 192.06L264.624 186.03C264.568 185.876 264.455 185.75 264.309 185.677C264.162 185.604 263.994 185.59 263.837 185.638C263.681 185.686 263.549 185.793 263.469 185.936C263.389 186.078 263.367 186.246 263.408 186.405L265.641 193.625L262.776 198.911L260.912 192.881C260.877 192.77 260.813 192.67 260.726 192.592C260.639 192.515 260.532 192.463 260.418 192.442L259.925 192.354C259.798 192.33 259.667 192.346 259.549 192.399C259.431 192.452 259.333 192.539 259.266 192.65L255.996 198.064L254.267 192.244L258.135 185.839C258.217 185.695 258.239 185.525 258.197 185.364C258.155 185.204 258.052 185.067 257.911 184.981C257.769 184.895 257.6 184.868 257.438 184.905C257.277 184.943 257.136 185.042 257.047 185.181L253.777 190.595L253.144 188.465C253.355 188.322 253.533 188.137 253.667 187.92C253.801 187.704 253.889 187.462 253.923 187.209C253.957 186.957 253.938 186.701 253.866 186.456C253.794 186.212 253.672 185.986 253.507 185.792C253.179 185.423 252.722 185.196 252.23 185.157C251.739 185.118 251.251 185.27 250.87 185.583C250.488 185.895 250.242 186.342 250.183 186.832C250.124 187.321 250.257 187.815 250.553 188.209C250.716 188.423 250.927 188.597 251.169 188.716C251.41 188.835 251.676 188.897 251.946 188.897L252.531 190.869L246.959 188.179C246.828 188.116 246.68 188.099 246.539 188.132C246.397 188.164 246.271 188.244 246.182 188.358C246.092 188.472 246.044 188.613 246.045 188.758C246.046 188.903 246.097 189.044 246.189 189.156C246.248 189.227 246.322 189.285 246.406 189.325L253.021 192.518L254.751 198.338L249.18 195.65C249.078 195.6 248.964 195.579 248.851 195.588C248.738 195.598 248.63 195.637 248.537 195.702L248.133 195.985C248.028 196.059 247.948 196.162 247.903 196.282C247.858 196.403 247.85 196.533 247.881 196.658L249.383 202.742L244.044 199.85L242.264 192.642C242.246 192.558 242.212 192.479 242.163 192.409C242.115 192.338 242.052 192.279 241.98 192.233C241.908 192.188 241.827 192.157 241.742 192.144C241.658 192.13 241.572 192.134 241.489 192.154C241.406 192.175 241.328 192.212 241.259 192.263C241.191 192.314 241.134 192.379 241.091 192.453C241.048 192.527 241.02 192.609 241.01 192.694C241 192.779 241.006 192.865 241.03 192.947L242.532 199.031L240.738 198.059C240.792 197.795 240.784 197.522 240.715 197.262C240.645 197.002 240.517 196.761 240.339 196.559C240.011 196.192 239.554 195.966 239.064 195.927C238.573 195.889 238.087 196.041 237.706 196.352C237.325 196.664 237.079 197.11 237.019 197.598C236.959 198.087 237.09 198.58 237.384 198.974C237.541 199.174 237.739 199.339 237.964 199.458C238.189 199.576 238.437 199.646 238.691 199.663C238.945 199.679 239.2 199.642 239.438 199.553C239.677 199.464 239.894 199.326 240.076 199.148L241.912 200.142L236.018 202.199C235.939 202.226 235.866 202.269 235.804 202.325C235.741 202.38 235.69 202.447 235.654 202.523C235.618 202.598 235.596 202.68 235.592 202.763C235.587 202.846 235.598 202.93 235.626 203.009C235.653 203.088 235.696 203.161 235.752 203.223C235.807 203.285 235.874 203.336 235.95 203.373C236.025 203.409 236.107 203.43 236.19 203.435C236.273 203.44 236.357 203.428 236.436 203.401L243.425 200.961L248.763 203.854L242.869 205.91C242.762 205.948 242.667 206.013 242.594 206.099C242.521 206.185 242.472 206.289 242.452 206.401L242.367 206.888C242.345 207.014 242.362 207.144 242.415 207.261C242.468 207.378 242.554 207.476 242.664 207.543L248.004 210.768L242.405 212.432L236.202 208.374C236.132 208.328 236.054 208.297 235.971 208.281C235.889 208.266 235.805 208.267 235.723 208.284C235.641 208.301 235.564 208.334 235.495 208.381C235.426 208.429 235.367 208.489 235.321 208.559C235.275 208.629 235.244 208.707 235.228 208.789C235.213 208.871 235.214 208.956 235.231 209.038C235.248 209.119 235.281 209.197 235.328 209.266C235.376 209.335 235.436 209.394 235.506 209.44L240.807 212.908L238.565 213.574C238.533 213.529 238.511 213.484 238.475 213.439C238.147 213.072 237.69 212.846 237.2 212.807C236.709 212.769 236.223 212.921 235.842 213.232C235.461 213.544 235.215 213.99 235.155 214.478C235.095 214.967 235.226 215.46 235.52 215.854C235.767 216.134 236.09 216.337 236.449 216.438C236.809 216.539 237.191 216.534 237.547 216.423C237.904 216.312 238.221 216.1 238.46 215.813C238.699 215.525 238.85 215.175 238.894 214.804L241.018 214.172L238.14 219.628C238.082 219.739 238.057 219.864 238.069 219.988C238.082 220.113 238.131 220.231 238.21 220.328C238.264 220.394 238.33 220.449 238.406 220.488C238.48 220.527 238.56 220.551 238.643 220.558C238.727 220.566 238.81 220.557 238.89 220.533C238.97 220.508 239.044 220.468 239.108 220.414C239.172 220.361 239.225 220.296 239.264 220.222L242.724 213.665L248.389 211.982L245.663 217.63C245.613 217.732 245.592 217.845 245.601 217.958C245.61 218.071 245.65 218.179 245.715 218.272L245.999 218.676C246.007 218.689 246.017 218.702 246.027 218.714C246.103 218.807 246.204 218.876 246.318 218.914C246.432 218.952 246.554 218.956 246.671 218.928L252.745 217.429L249.852 222.768L242.654 224.544C242.49 224.584 242.35 224.688 242.262 224.833C242.175 224.977 242.149 225.15 242.19 225.314C242.212 225.406 242.254 225.491 242.314 225.564C242.39 225.657 242.491 225.727 242.605 225.765C242.719 225.803 242.842 225.808 242.959 225.779L249.033 224.28L248.106 225.993C247.729 225.947 247.347 226.014 247.008 226.184C246.668 226.354 246.386 226.62 246.197 226.949C246.008 227.278 245.92 227.656 245.944 228.035C245.968 228.414 246.103 228.777 246.332 229.08C246.659 229.449 247.117 229.677 247.608 229.717C248.1 229.756 248.588 229.604 248.97 229.291C249.352 228.979 249.598 228.531 249.657 228.041C249.716 227.552 249.584 227.058 249.287 226.664C249.267 226.64 249.243 226.624 249.223 226.6L250.151 224.887L252.213 230.792C252.237 230.874 252.278 230.951 252.333 231.017C252.388 231.083 252.456 231.137 252.533 231.176C252.609 231.215 252.693 231.238 252.779 231.244C252.864 231.25 252.95 231.239 253.031 231.21C253.113 231.182 253.187 231.138 253.251 231.08C253.314 231.022 253.365 230.952 253.401 230.874C253.437 230.795 253.456 230.711 253.458 230.625C253.46 230.539 253.445 230.454 253.413 230.374L250.972 223.374L253.864 218.034L255.925 223.941C255.959 224.038 256.016 224.125 256.091 224.195C256.166 224.265 256.256 224.316 256.355 224.344C256.454 224.371 256.558 224.374 256.659 224.353C256.759 224.332 256.853 224.286 256.932 224.221L257.302 223.913C257.35 223.873 257.392 223.825 257.427 223.773L260.785 218.639L262.531 224.511L258.581 230.546C258.507 230.659 258.471 230.793 258.479 230.928C258.486 231.062 258.536 231.191 258.622 231.296C258.663 231.347 258.712 231.391 258.767 231.426C258.837 231.472 258.915 231.503 258.997 231.519C259.079 231.534 259.163 231.533 259.245 231.516C259.327 231.499 259.404 231.466 259.473 231.419C259.542 231.372 259.601 231.312 259.647 231.242L263.005 226.109L263.646 228.262C263.438 228.406 263.263 228.592 263.132 228.807C263.001 229.023 262.916 229.264 262.884 229.515C262.852 229.765 262.872 230.019 262.944 230.261C263.016 230.504 263.138 230.728 263.302 230.92C263.628 231.292 264.087 231.523 264.58 231.564C265.073 231.605 265.563 231.453 265.947 231.14C266.33 230.826 266.577 230.376 266.635 229.885C266.693 229.393 266.558 228.898 266.258 228.504C266.092 228.286 265.878 228.11 265.632 227.991C265.385 227.871 265.114 227.812 264.841 227.817L264.19 225.63L269.836 228.609C269.985 228.687 270.16 228.704 270.321 228.654C270.482 228.604 270.617 228.492 270.696 228.343M267.184 219.473L261.464 216.454L259.438 209.636L265.855 213.113L267.184 219.473ZM272.444 210.025L266.321 211.919L260.043 208.519L266.985 206.453L272.444 210.025ZM269.485 199.625L266.508 205.269L259.68 207.297L263.116 200.957L269.485 199.625ZM259.929 194.013L261.929 200.477L258.561 206.692L256.487 199.712L259.929 194.013ZM249.306 197.124L255.241 199.988L257.341 207.055L250.895 203.562L249.306 197.124ZM244.001 206.864L250.276 204.674L256.736 208.172L249.653 210.278L244.001 206.864ZM247.137 217.502L250.037 211.492L257.097 209.393L253.564 215.917L247.137 217.502ZM256.759 222.47L254.683 216.522L258.217 209.999L260.31 217.042L256.759 222.47ZM471.894 332.295C471.933 332.221 471.957 332.14 471.965 332.057C471.972 331.973 471.964 331.889 471.939 331.809C471.914 331.73 471.874 331.655 471.82 331.591C471.767 331.527 471.701 331.474 471.627 331.435L464.881 327.875L463.167 322.111L468.813 325.091C468.905 325.14 469.007 325.165 469.111 325.165C469.215 325.165 469.317 325.139 469.409 325.09C469.501 325.041 469.579 324.971 469.637 324.885C469.695 324.798 469.731 324.699 469.742 324.596L469.794 324.116C469.801 324.049 469.798 323.982 469.784 323.917L468.519 317.86L473.903 320.777L475.391 327.89C475.411 327.99 475.456 328.084 475.521 328.163C475.611 328.273 475.736 328.35 475.875 328.381C476.014 328.412 476.159 328.396 476.288 328.334C476.416 328.273 476.52 328.17 476.584 328.042C476.647 327.915 476.665 327.769 476.636 327.63L475.37 321.571L477.265 322.598C477.208 322.864 477.214 323.139 477.282 323.402C477.351 323.665 477.48 323.909 477.66 324.113C477.988 324.48 478.444 324.706 478.935 324.745C479.426 324.783 479.912 324.631 480.293 324.319C480.674 324.008 480.92 323.562 480.98 323.073C481.04 322.585 480.909 322.092 480.615 321.698C480.459 321.498 480.262 321.334 480.039 321.215C479.815 321.097 479.569 321.026 479.316 321.009C479.063 320.992 478.81 321.028 478.572 321.115C478.334 321.202 478.117 321.338 477.935 321.514L475.936 320.43L481.977 318.562C482.06 318.54 482.138 318.502 482.206 318.45C482.274 318.397 482.331 318.331 482.373 318.256C482.415 318.181 482.441 318.098 482.45 318.013C482.459 317.927 482.451 317.841 482.426 317.758C482.4 317.676 482.358 317.6 482.303 317.534C482.247 317.469 482.179 317.415 482.102 317.377C482.025 317.338 481.941 317.316 481.855 317.311C481.769 317.306 481.683 317.319 481.602 317.348L474.37 319.583L469.084 316.719L475.126 314.851C475.225 314.82 475.315 314.766 475.388 314.692C475.462 314.618 475.516 314.528 475.546 314.429C475.577 314.33 475.582 314.224 475.563 314.122C475.543 314.02 475.499 313.925 475.434 313.844L475.13 313.468L475.128 313.464C475.086 313.413 475.037 313.37 474.982 313.335L469.78 309.932L475.879 308.119L482.105 311.88C482.249 311.967 482.423 311.994 482.587 311.954C482.751 311.913 482.892 311.809 482.98 311.665C483.067 311.52 483.094 311.347 483.054 311.183C483.013 311.019 482.909 310.877 482.765 310.79L477.528 307.63L480.018 306.888C480.038 306.913 480.05 306.938 480.068 306.963C480.393 307.339 480.852 307.573 481.348 307.616C481.843 307.659 482.336 307.507 482.721 307.192C483.106 306.878 483.353 306.425 483.41 305.931C483.467 305.437 483.329 304.941 483.025 304.547C482.774 304.262 482.444 304.057 482.077 303.958C481.711 303.86 481.323 303.871 480.963 303.991C480.602 304.111 480.285 304.334 480.051 304.633C479.816 304.932 479.675 305.293 479.645 305.672L476.986 306.462L479.764 300.704C479.836 300.552 479.846 300.378 479.79 300.219C479.734 300.061 479.618 299.93 479.467 299.857C479.316 299.784 479.141 299.774 478.983 299.829C478.824 299.883 478.693 299.999 478.619 300.15L475.338 306.952L469.412 308.714L472.348 303.146C472.397 303.054 472.422 302.951 472.422 302.847C472.422 302.743 472.397 302.641 472.348 302.549C472.3 302.457 472.23 302.378 472.143 302.32C472.057 302.262 471.957 302.226 471.854 302.217L471.374 302.165C471.308 302.157 471.241 302.161 471.176 302.175L465.107 303.443L468.025 298.059L475.148 296.569C475.23 296.552 475.307 296.519 475.376 296.472C475.445 296.425 475.505 296.364 475.55 296.294C475.596 296.225 475.628 296.146 475.643 296.064C475.659 295.982 475.658 295.898 475.641 295.816C475.624 295.734 475.591 295.656 475.544 295.587C475.497 295.518 475.436 295.459 475.366 295.413C475.297 295.368 475.218 295.336 475.136 295.321C475.054 295.305 474.97 295.306 474.888 295.323L468.818 296.593L469.925 294.552C470.292 294.567 470.657 294.478 470.975 294.294C471.294 294.11 471.553 293.839 471.724 293.513C471.894 293.187 471.968 292.819 471.936 292.453C471.905 292.086 471.77 291.736 471.547 291.444C469.992 289.543 467.034 291.954 468.591 293.859C468.644 293.919 468.701 293.975 468.761 294.028L467.686 296.013L465.822 289.981C465.77 289.822 465.657 289.691 465.509 289.614C465.361 289.538 465.188 289.523 465.029 289.572C464.87 289.621 464.736 289.731 464.657 289.878C464.577 290.025 464.559 290.197 464.605 290.357L466.838 297.577L463.973 302.864L462.109 296.833C462.075 296.722 462.01 296.622 461.923 296.545C461.836 296.467 461.729 296.416 461.615 296.395L461.122 296.305C460.995 296.282 460.864 296.299 460.747 296.352C460.629 296.405 460.531 296.492 460.464 296.603L457.195 302.016L455.465 296.196L459.332 289.792C459.414 289.648 459.436 289.478 459.394 289.317C459.352 289.157 459.249 289.02 459.108 288.934C458.966 288.848 458.797 288.821 458.635 288.859C458.474 288.896 458.333 288.995 458.244 289.134L454.974 294.547L454.341 292.417C454.552 292.274 454.73 292.089 454.865 291.873C454.999 291.656 455.086 291.414 455.12 291.162C455.155 290.91 455.135 290.653 455.063 290.409C454.992 290.165 454.869 289.938 454.704 289.745C454.376 289.378 453.919 289.153 453.429 289.115C452.939 289.077 452.452 289.229 452.072 289.541C451.691 289.852 451.445 290.298 451.385 290.786C451.325 291.274 451.456 291.767 451.75 292.161C451.913 292.375 452.124 292.549 452.366 292.668C452.607 292.788 452.873 292.85 453.143 292.849L453.728 294.822L448.157 292.132C448.082 292.095 448 292.074 447.917 292.069C447.833 292.065 447.749 292.076 447.671 292.104C447.592 292.131 447.519 292.174 447.457 292.23C447.394 292.285 447.343 292.353 447.307 292.428C447.271 292.503 447.249 292.585 447.245 292.668C447.24 292.752 447.251 292.835 447.279 292.914C447.306 292.993 447.349 293.066 447.405 293.128C447.46 293.191 447.528 293.241 447.603 293.278L454.218 296.47L455.948 302.29L450.377 299.603C450.275 299.553 450.161 299.532 450.048 299.541C449.935 299.55 449.827 299.589 449.734 299.655L449.331 299.937C449.226 300.011 449.146 300.115 449.101 300.235C449.056 300.355 449.048 300.486 449.078 300.611L450.58 306.695L445.241 303.802L443.461 296.594C443.443 296.511 443.409 296.432 443.36 296.362C443.311 296.292 443.248 296.233 443.176 296.188C443.104 296.143 443.023 296.113 442.939 296.099C442.855 296.086 442.769 296.09 442.686 296.11C442.603 296.131 442.526 296.168 442.457 296.219C442.389 296.27 442.332 296.334 442.289 296.408C442.246 296.481 442.219 296.563 442.208 296.647C442.197 296.732 442.204 296.818 442.227 296.9L443.729 302.984L441.935 302.011C441.989 301.747 441.981 301.474 441.912 301.213C441.842 300.953 441.714 300.712 441.536 300.51C441.208 300.141 440.751 299.914 440.259 299.875C439.768 299.836 439.28 299.988 438.899 300.301C438.517 300.613 438.271 301.06 438.212 301.55C438.153 302.039 438.286 302.533 438.582 302.927C438.739 303.127 438.937 303.291 439.162 303.41C439.387 303.528 439.635 303.598 439.889 303.615C440.142 303.631 440.397 303.594 440.635 303.505C440.874 303.417 441.091 303.279 441.273 303.101L443.109 304.094L437.215 306.152C437.136 306.179 437.063 306.222 437.001 306.278C436.938 306.333 436.888 306.4 436.851 306.476C436.815 306.551 436.793 306.633 436.789 306.716C436.784 306.799 436.795 306.883 436.823 306.962C436.85 307.041 436.893 307.114 436.949 307.176C437.004 307.238 437.071 307.289 437.147 307.326C437.222 307.362 437.304 307.383 437.387 307.388C437.47 307.393 437.554 307.381 437.633 307.354L444.622 304.914L449.961 307.807L444.066 309.863C443.959 309.9 443.864 309.966 443.791 310.052C443.718 310.138 443.669 310.242 443.649 310.354L443.564 310.84C443.542 310.966 443.558 311.097 443.611 311.214C443.664 311.331 443.751 311.429 443.861 311.496L449.201 314.721L443.602 316.385L437.399 312.327C437.258 312.235 437.086 312.202 436.92 312.237C436.755 312.271 436.611 312.37 436.518 312.511C436.426 312.653 436.394 312.825 436.428 312.99C436.463 313.155 436.562 313.3 436.703 313.392L442.005 316.86L439.762 317.527C439.73 317.482 439.708 317.435 439.672 317.391C439.344 317.024 438.887 316.798 438.397 316.759C437.906 316.721 437.42 316.873 437.039 317.184C436.658 317.496 436.412 317.942 436.352 318.43C436.292 318.919 436.423 319.412 436.717 319.806C436.964 320.087 437.286 320.29 437.646 320.391C438.006 320.493 438.388 320.487 438.745 320.376C439.102 320.265 439.419 320.053 439.658 319.765C439.897 319.478 440.047 319.127 440.091 318.756L442.215 318.125L439.337 323.581C439.279 323.691 439.254 323.817 439.267 323.941C439.279 324.065 439.328 324.183 439.407 324.28C439.461 324.345 439.528 324.4 439.603 324.44C439.752 324.518 439.926 324.535 440.087 324.485C440.248 324.435 440.382 324.324 440.461 324.175L443.921 317.618L449.586 315.934L446.86 321.582C446.81 321.684 446.789 321.797 446.798 321.91C446.807 322.024 446.846 322.132 446.912 322.225L447.196 322.628C447.204 322.641 447.213 322.654 447.224 322.665C447.3 322.758 447.401 322.827 447.515 322.865C447.629 322.904 447.751 322.908 447.868 322.88L453.942 321.382L451.049 326.721L443.851 328.497C443.77 328.517 443.693 328.553 443.626 328.602C443.559 328.652 443.502 328.714 443.459 328.786C443.416 328.857 443.387 328.936 443.375 329.019C443.363 329.102 443.367 329.186 443.387 329.267C443.409 329.359 443.452 329.444 443.512 329.517C443.588 329.61 443.689 329.68 443.803 329.718C443.917 329.756 444.04 329.761 444.157 329.732L450.23 328.233L449.303 329.946C448.926 329.9 448.544 329.966 448.204 330.136C447.865 330.306 447.583 330.573 447.394 330.902C447.205 331.231 447.117 331.609 447.141 331.988C447.165 332.367 447.3 332.73 447.53 333.033C447.858 333.399 448.315 333.625 448.805 333.663C449.295 333.701 449.781 333.548 450.162 333.237C450.543 332.926 450.789 332.48 450.849 331.992C450.908 331.503 450.778 331.011 450.484 330.617C450.465 330.593 450.441 330.576 450.42 330.553L451.349 328.84L453.41 334.745C453.435 334.827 453.476 334.903 453.531 334.968C453.587 335.034 453.654 335.087 453.731 335.126C453.807 335.165 453.89 335.187 453.976 335.193C454.061 335.199 454.147 335.187 454.228 335.159C454.308 335.131 454.383 335.087 454.446 335.029C454.509 334.971 454.56 334.902 454.596 334.824C454.632 334.746 454.651 334.662 454.654 334.576C454.656 334.491 454.641 334.405 454.61 334.326L452.17 327.327L455.061 321.987L457.123 327.893C457.157 327.99 457.213 328.077 457.288 328.147C457.363 328.218 457.454 328.269 457.553 328.296C457.652 328.324 457.756 328.327 457.857 328.305C457.957 328.284 458.051 328.238 458.13 328.173L458.499 327.866C458.547 327.825 458.589 327.778 458.624 327.726L461.982 322.591L463.728 328.464L459.78 334.499C459.706 334.612 459.67 334.745 459.677 334.88C459.684 335.015 459.734 335.144 459.82 335.249C459.861 335.3 459.909 335.343 459.964 335.379C460.034 335.425 460.112 335.456 460.194 335.472C460.276 335.487 460.361 335.487 460.442 335.469C460.524 335.452 460.602 335.419 460.671 335.372C460.74 335.324 460.798 335.264 460.844 335.194L464.203 330.062L464.843 332.215C464.636 332.359 464.461 332.545 464.33 332.76C464.199 332.976 464.114 333.217 464.082 333.467C464.05 333.717 464.07 333.971 464.142 334.213C464.214 334.455 464.336 334.679 464.5 334.871C464.828 335.238 465.284 335.464 465.775 335.503C466.266 335.541 466.752 335.389 467.133 335.077C467.514 334.766 467.76 334.32 467.82 333.831C467.88 333.343 467.749 332.85 467.455 332.456C467.289 332.238 467.075 332.063 466.829 331.943C466.583 331.824 466.312 331.765 466.039 331.77L465.387 329.582L471.034 332.561C471.183 332.639 471.358 332.656 471.519 332.606C471.68 332.556 471.815 332.444 471.894 332.295ZM468.381 323.425L462.661 320.405L460.635 313.589L467.052 317.066L468.381 323.425ZM473.641 313.978L467.518 315.872L461.241 312.47L468.182 310.406L473.641 313.978ZM470.682 303.578L467.705 309.221L460.878 311.251L464.313 304.91L470.682 303.578ZM461.127 297.966L463.126 304.429L459.758 310.644L457.685 303.666L461.127 297.966ZM450.503 301.077L456.438 303.939L458.539 311.006L452.093 307.513L450.503 301.077ZM445.199 310.816L451.473 308.626L457.933 312.126L450.85 314.23L445.199 310.816ZM448.334 321.456L451.234 315.445L458.294 313.346L454.761 319.869L448.334 321.456ZM457.956 326.423L455.881 320.475L459.414 313.951L461.508 320.993L457.956 326.423Z" fill="white"/>
<path d="M349.165 464.165H453.668L432.783 337.859H370.048L349.165 464.165Z" fill="#F15B43"/>
<path d="M407.105 363.027L440.65 385.432L453.667 464.165H385.252C422.04 441.592 407.105 363.027 407.105 363.027Z" fill="#CF2633"/>
<path d="M399.938 449.395L399.017 448.861C401.904 443.732 404.115 438.251 405.595 432.554C407.227 426.342 408.329 420.003 408.888 413.604L409.948 413.704C409.383 420.163 408.27 426.562 406.622 432.832C405.117 438.618 402.871 444.185 399.938 449.395Z" fill="#303443"/>
<path d="M462.135 389.245L476.093 384.893C473.355 376.109 459.106 331.755 447.511 321.181L437.661 331.981C444.044 337.804 455.817 368.974 462.135 389.245ZM341.148 388.842C344.208 376.592 354.017 342.319 362.53 330.966L350.836 322.196C339.014 337.959 328.163 380.501 326.966 385.299L341.148 388.842Z" fill="#F15B43"/>
<path d="M455.672 319.565C455.672 319.565 471.712 288.99 446.15 255.91C446.15 255.91 428.858 222.83 439.383 210.8C449.909 198.773 459.343 173.962 460.64 158.926C461.938 143.889 499.529 141.633 522.836 129.604C546.142 117.576 576.966 101.787 590.5 60.437C590.5 60.437 557.42 116.072 501.784 113.064C446.15 110.057 413.821 137.874 401.792 149.152C389.763 160.43 370.216 186.743 369.463 204.786C368.97 220.407 364.576 235.655 356.683 249.144C349.917 260.422 343.901 279.217 346.156 304.027C346.156 304.027 367.96 253.655 403.296 254.407C438.631 255.159 453.918 307.285 455.672 319.565Z" fill="#FFCC5D"/>
<path d="M457.496 387.07C457.496 389.368 458.178 391.614 459.455 393.525C460.732 395.436 462.546 396.925 464.67 397.804C466.793 398.683 469.129 398.913 471.383 398.464C473.637 398.016 475.707 396.909 477.332 395.284C478.956 393.659 480.063 391.589 480.511 389.335C480.959 387.081 480.729 384.745 479.849 382.622C478.97 380.499 477.48 378.684 475.569 377.408C473.658 376.131 471.412 375.45 469.114 375.45C467.588 375.45 466.077 375.751 464.668 376.335C463.258 376.919 461.977 377.775 460.898 378.854C459.82 379.933 458.964 381.214 458.38 382.623C457.796 384.033 457.496 385.544 457.496 387.07ZM322.437 387.07C322.437 389.368 323.119 391.614 324.396 393.525C325.672 395.435 327.487 396.924 329.61 397.804C331.733 398.683 334.069 398.913 336.323 398.465C338.577 398.016 340.647 396.91 342.272 395.285C343.897 393.66 345.003 391.59 345.452 389.336C345.9 387.082 345.67 384.746 344.791 382.623C343.911 380.5 342.422 378.685 340.512 377.409C338.601 376.132 336.355 375.45 334.057 375.45C332.531 375.45 331.02 375.75 329.61 376.334C328.2 376.918 326.919 377.774 325.84 378.853C324.761 379.932 323.905 381.213 323.321 382.623C322.737 384.033 322.437 385.544 322.437 387.07Z" fill="#E9A48A"/>
<path d="M322.857 387.07H322.016C322.02 383.878 323.29 380.818 325.547 378.561C327.804 376.303 330.864 375.034 334.056 375.03V375.871C331.087 375.874 328.24 377.055 326.141 379.154C324.041 381.253 322.86 384.1 322.857 387.069V387.07Z" fill="#303443"/>
<path d="M346.157 304.028L346.284 303.74C348.017 299.877 369.437 253.686 403.296 254.407C430.174 254.978 445.442 285.264 451.989 305.14L455.673 319.565C455.673 319.565 463.442 358.158 446.901 382.217C430.361 406.274 382.245 416.801 358.939 391.238C335.631 365.677 346.157 304.028 346.157 304.028Z" fill="white"/>
<path d="M455.672 319.565L451.989 305.139C447.451 291.365 438.721 272.596 424.842 262.179C432.718 272.255 438.103 284.651 441.345 294.496L445.029 308.921C445.029 308.921 452.799 347.515 436.258 371.573C421.281 393.356 380.423 404.042 355.528 386.897C356.562 388.421 357.701 389.872 358.938 391.237C382.245 416.8 430.362 406.276 446.901 382.217C463.442 358.159 455.672 319.565 455.672 319.565Z" fill="#F3F8FD"/>
<path d="M385.252 257.307C385.252 265.013 393.249 271.261 403.114 271.261C412.98 271.261 420.977 265.013 420.977 257.307C420.977 249.6 412.98 243.354 403.114 243.354C393.249 243.354 385.252 249.6 385.252 257.307Z" fill="#E9A48A"/>
<path d="M403.115 243.353C401.692 243.356 400.272 243.494 398.875 243.765C406.688 245.255 412.496 250.743 412.496 257.307C412.496 263.87 406.688 269.361 398.875 270.849C400.272 271.12 401.692 271.258 403.115 271.262C412.98 271.262 420.975 265.014 420.975 257.307C420.975 249.6 412.98 243.353 403.115 243.353Z" fill="#C58877"/>
<path d="M430.662 198.415C426.632 198.415 426.624 192.149 430.662 192.149C434.694 192.149 434.7 198.415 430.662 198.415ZM387.809 223.224C383.777 223.224 383.771 216.959 387.809 216.959C391.839 216.959 391.847 223.224 387.809 223.224ZM423.896 249.29C426.64 249.29 426.644 245.026 423.896 245.026C421.153 245.026 421.148 249.289 423.896 249.289M399.086 167.59C395.055 167.59 395.048 161.325 399.086 161.325C403.117 161.325 403.124 167.59 399.086 167.59ZM362.247 264.325C364.99 264.325 364.995 260.062 362.247 260.062C359.503 260.062 359.499 264.325 362.247 264.325ZM451.713 286.88C454.457 286.88 454.461 282.617 451.713 282.617C448.969 282.617 448.965 286.881 451.713 286.881M435.925 156.313C431.895 156.313 431.887 150.047 435.925 150.047C439.957 150.047 439.963 156.313 435.925 156.313ZM478.78 135.262C474.748 135.262 474.741 128.996 478.78 128.996C482.81 128.996 482.818 135.262 478.78 135.262ZM447.202 124.736C446.433 124.758 445.686 124.476 445.125 123.95C444.563 123.424 444.232 122.698 444.203 121.929C446.008 121.219 447.866 120.538 449.776 119.887C450.852 121.735 449.998 124.736 447.202 124.736ZM537.797 119.599C538.179 119.589 538.559 119.654 538.916 119.792C539.273 119.929 539.598 120.135 539.875 120.399C538.178 121.394 536.491 122.352 534.815 123.274C534.717 122.83 534.72 122.369 534.825 121.926C534.93 121.484 535.133 121.07 535.419 120.717C535.706 120.364 536.069 120.08 536.48 119.886C536.892 119.693 537.342 119.594 537.797 119.599ZM562.743 91.479C562.966 91.9494 563.068 92.4685 563.038 92.9885C563.009 93.5084 562.849 94.0126 562.573 94.4544C562.297 94.8963 561.915 95.2616 561.461 95.5169C561.007 95.7721 560.496 95.909 559.975 95.915C559.233 95.9349 558.512 95.6701 557.959 95.175C559.585 93.9841 561.18 92.7517 562.743 91.479ZM499.372 112.974C500.178 113.004 500.97 113.021 501.785 113.064C502.958 113.128 504.105 113.129 505.259 113.14C505.102 113.815 504.716 114.415 504.167 114.838C503.618 115.261 502.94 115.481 502.248 115.462C501.555 115.442 500.89 115.184 500.366 114.731C499.842 114.277 499.491 113.657 499.372 112.974Z" fill="#F15B43"/>
<path d="M441.557 350.192L441.079 342.024L440.802 337.94L440.332 333.875C439.999 331.166 439.737 328.448 439.347 325.745C437.727 314.942 435.256 304.285 431.958 293.871C428.604 283.504 424.505 273.292 418.753 264.045C422.833 274.039 426.203 284.308 428.84 294.775L429.845 298.68L430.745 302.61C431.355 305.227 431.971 307.841 432.431 310.49C432.899 313.136 433.552 315.744 433.946 318.402L435.218 326.358C435.625 329.012 435.919 331.683 436.277 334.345L436.79 338.342L437.14 342.359L437.903 350.391C438.023 353.076 438.18 355.761 438.353 358.45L438.6 362.485C438.67 363.829 438.644 365.177 438.696 366.524L438.904 374.618C439.022 380.02 438.804 385.422 438.952 390.868C439.728 385.504 440.497 380.108 440.954 374.688C441.222 369.262 441.763 363.82 441.612 358.371C441.616 355.645 441.605 352.919 441.557 350.192ZM419.978 336.228C419.671 330.66 419.254 325.099 418.728 319.548C418.1 314.008 417.511 308.465 416.626 302.958C415.053 291.92 412.694 281.009 409.566 270.307C411.103 281.332 412.345 292.337 413.403 303.357C414.421 314.377 415.322 325.399 415.809 336.443C416.403 347.48 416.717 358.532 416.751 369.598C416.901 380.671 416.504 391.73 416.358 402.874C418.282 391.896 419.502 380.805 420.009 369.671C420.402 364.103 420.34 358.526 420.443 352.951C420.467 350.161 420.331 347.375 420.282 344.588C420.227 341.799 420.144 339.013 419.978 336.228ZM395.772 338.44C395.146 349.69 394.64 360.95 394.637 372.231C394.497 383.516 394.972 394.8 396.06 406.033C396.602 394.763 397.254 383.553 397.894 372.334L399.937 338.69L401.818 305.019C402.396 293.784 402.894 282.543 403.113 271.262C401.173 282.38 399.773 293.563 398.581 304.764C397.371 315.965 396.476 327.195 395.771 338.44M370.386 331.693C369.89 334.459 369.339 337.212 368.9 339.987L367.712 348.332C367.286 351.108 367.162 353.927 366.872 356.719C366.62 359.518 366.334 362.311 366.313 365.127L366.073 373.547C366.097 376.357 366.238 379.167 366.325 381.967L366.513 386.167C366.628 387.567 366.788 388.963 366.948 390.355C367.257 393.142 367.597 395.92 367.968 398.689C368.041 395.884 368.086 393.09 368.104 390.306L368.132 386.135L368.375 381.965C368.531 379.189 368.603 376.416 368.809 373.649L369.565 365.361C370.751 354.341 372.231 343.352 374.484 332.495C376.584 321.612 379.166 310.817 382.066 300.093C385.016 289.378 388.263 278.736 391.884 268.153C386.754 278.123 382.431 288.488 378.959 299.149C375.423 309.807 372.56 320.676 370.386 331.693ZM386.4 262.195C380.47 268.983 375.053 276.202 370.195 283.794C367.708 287.556 365.419 291.442 363.165 295.354C360.957 299.293 358.893 303.314 356.901 307.374C354.992 311.476 353.193 315.634 351.568 319.869C349.97 324.121 348.603 328.456 347.474 332.855C346.327 337.26 345.551 341.754 345.154 346.289C344.727 350.809 344.901 355.365 345.674 359.839C345.826 350.824 347.888 342.171 350.604 333.759C353.439 325.359 356.801 317.146 360.67 309.169C364.467 301.137 368.656 293.277 372.977 285.467C377.327 277.673 381.819 269.942 386.4 262.195Z" fill="#E4EBF1"/>
<path d="M460.64 158.925C459.342 173.962 449.909 198.772 439.383 210.801C428.858 222.831 446.15 255.911 446.15 255.911C471.711 288.991 455.672 319.565 455.672 319.565V319.564C457.125 292.23 446.701 281.741 435.924 268.152C425.149 254.562 417.129 216.584 423.896 210.569C430.662 204.554 441.189 183.001 444.203 172.476C447.218 161.951 443.694 157.941 453.667 145.912C463.641 133.882 522.836 129.604 522.836 129.604C499.529 141.634 461.938 143.89 460.64 158.924" fill="#F39821"/>
<path d="M424.249 210.968L423.542 210.172C430.318 204.147 440.737 182.643 443.69 172.33C444.446 169.586 444.953 166.779 445.204 163.943C445.809 158.57 446.331 153.929 453.258 145.573L454.078 146.253C447.353 154.363 446.871 158.643 446.262 164.062C446.002 166.956 445.484 169.821 444.714 172.623C441.729 183.051 431.15 204.832 424.249 210.968ZM440.686 344.388C440.375 324.406 433.156 299.651 433.082 299.403L434.104 299.103C434.177 299.352 441.437 324.243 441.75 344.373L440.686 344.388ZM403.114 271.793V270.729C412.67 270.729 420.444 264.708 420.444 257.308H421.509C421.509 265.295 413.257 271.793 403.114 271.793ZM369.064 378.732L368.004 378.648C368.028 378.342 370.474 347.792 374.411 330.103L375.451 330.333C371.529 347.951 369.089 378.427 369.064 378.733V378.732Z" fill="#303443"/>
<path d="M179.108 320.424C179.108 320.424 144.524 341.976 142.268 369.794C142.268 369.794 153.797 360.521 160.688 359.017C160.688 359.017 155.05 366.035 149.035 400.117C149.035 400.117 157.306 384.579 160.688 382.073C160.688 382.073 157.556 400.619 165.575 414.652C165.575 414.652 165.575 393.602 167.58 388.589C167.58 388.589 169.084 433.197 190.135 445.226C211.186 457.256 253.288 469.284 278.348 416.657C278.348 416.657 284.364 401.119 286.368 391.597C286.368 391.597 291.881 405.631 290.88 412.647C290.88 412.647 302.408 400.619 294.889 382.575C294.889 382.575 304.913 389.591 304.913 401.62C304.913 401.62 310.928 379.067 295.892 359.518C295.892 359.518 299.901 355.008 309.925 361.523C309.925 361.523 296.083 325.513 278.348 320.424C260.614 315.334 262.31 296.366 262.31 296.366C262.31 296.366 178.607 312.404 179.108 320.424Z" fill="white"/>
<path d="M253.891 298.04C255.947 302.796 259.746 306.584 264.508 308.626C262.851 304.76 262.099 300.567 262.309 296.366C262.309 296.366 259.073 296.985 253.891 298.04ZM294.27 390.978C294.27 378.948 284.245 371.93 284.245 371.93C291.765 389.975 280.235 402.003 280.235 402.003C281.238 394.987 275.725 380.953 275.725 380.953C273.719 390.475 267.705 406.013 267.705 406.013C242.725 458.473 200.814 446.689 179.697 434.698C182.267 439.005 185.85 442.62 190.135 445.227C211.185 457.256 253.288 469.284 278.349 416.657C278.349 416.657 284.363 401.119 286.369 391.597C286.369 391.597 291.881 405.631 290.879 412.647C290.879 412.647 301.919 401.111 295.322 383.693C295.18 386.147 294.828 388.584 294.27 390.978ZM309.925 361.523C309.925 361.523 299.034 333.213 284.198 323.257C293.316 335.359 299.282 350.88 299.282 350.88C289.258 344.365 285.247 348.876 285.247 348.876C294.697 361.158 295.832 374.626 295.371 382.941C297.36 384.515 304.913 391.173 304.913 401.621C304.913 401.621 310.928 379.066 295.891 359.519C295.891 359.519 299.901 355.009 309.925 361.523Z" fill="#F3F8FD"/>
<path d="M142.799 369.837L141.739 369.751C143.989 341.987 178.479 320.189 178.827 319.973L179.39 320.875C179.046 321.09 145.007 342.609 142.799 369.837Z" fill="#303443"/>
<path d="M179.108 320.424C179.108 320.424 186.626 260.779 200.158 226.948C213.692 193.115 206.926 162.291 167.078 164.546C127.233 166.801 157.306 238.977 157.306 238.977C157.306 238.977 147.532 249.501 137.757 228.451C127.984 207.4 124.977 157.779 175.349 146.502C225.721 135.225 249.779 190.86 255.794 213.415C261.808 235.969 262.56 290.601 278.348 320.425C278.348 320.425 230.983 301.125 179.108 320.424Z" fill="#F15B43"/>
<path d="M245.15 213.415C250.913 235.027 251.855 286.079 265.813 316.545C270.069 317.574 274.256 318.869 278.349 320.425C262.56 290.602 261.808 235.969 255.794 213.415C250.092 192.033 228.171 140.933 182.994 145.281C221.011 149.11 239.916 193.786 245.151 213.414M165.642 164.67C158.467 164.446 153.892 166.376 151.002 168.276C136.558 177.773 133.984 206.422 146.662 238.976C146.407 239.235 146.134 239.475 145.844 239.694C147.502 241.022 149.595 241.684 151.714 241.551C153.833 241.418 155.827 240.5 157.306 238.976C157.306 238.976 127.98 168.583 165.642 164.67ZM179.59 316.838C179.423 318.033 179.262 319.228 179.108 320.424C193.061 315.279 207.752 312.415 222.616 311.942C208.109 311.384 193.602 313.035 179.59 316.838Z" fill="#CF2633"/>
<path d="M265.792 279.025C265.525 277.544 265.268 276.06 265.019 274.573C234.811 267.937 203.716 271.507 186.903 274.479C186.599 275.943 186.299 277.408 186.005 278.875C202.287 275.865 234.712 271.775 265.792 279.025ZM252.956 204.395C237.433 202.433 221.737 202.244 206.171 203.832C206.024 205.25 205.834 206.663 205.601 208.069C219.548 206.676 236.874 206.191 254.456 208.834C253.983 207.345 253.483 205.865 252.956 204.394M270.705 300.644C270.267 299.115 269.847 297.563 269.445 295.989C235.315 287.299 199.077 292.423 182.909 295.585C182.656 297.051 182.408 298.519 182.164 299.987C197.389 296.877 235.528 290.977 270.705 300.644Z" fill="#82C56D"/>
<path d="M254.054 272.598C254.288 274.04 254.531 275.481 254.785 276.92C258.453 277.48 262.133 278.171 265.792 279.025C265.787 278.996 265.783 278.965 265.777 278.936C265.515 277.485 265.262 276.031 265.02 274.573C261.39 273.78 257.732 273.121 254.054 272.598ZM243.402 207.567C247.057 207.866 250.749 208.277 254.456 208.833L254.406 208.677C253.974 207.317 253.486 205.88 252.956 204.395C249.285 203.9 245.599 203.523 241.904 203.264C242.45 204.753 242.952 206.193 243.402 207.567ZM270.702 300.63C270.264 299.105 269.845 297.559 269.445 295.99C265.736 295.052 261.991 294.263 258.219 293.624C258.581 295.121 258.96 296.601 259.355 298.064C263.151 298.764 266.946 299.61 270.705 300.644L270.702 300.631" fill="#4DA258"/>
<path d="M196.208 267.206C200.24 267.206 200.246 260.941 196.208 260.941C192.178 260.941 192.17 267.206 196.208 267.206ZM212.748 265.078C215.492 265.078 215.496 260.814 212.748 260.814C210.005 260.814 210 265.078 212.748 265.078ZM231.169 265.453C233.912 265.453 233.917 261.19 231.169 261.19C228.425 261.19 228.421 265.453 231.169 265.453ZM250.34 267.334C253.083 267.334 253.088 263.069 250.34 263.069C247.597 263.069 247.591 267.334 250.34 267.334ZM212.373 198.039C216.403 198.039 216.411 191.773 212.373 191.773C208.341 191.773 208.335 198.039 212.373 198.039ZM226.658 196.286C229.401 196.286 229.406 192.022 226.658 192.022C223.914 192.022 223.91 196.286 226.658 196.286Z" fill="#82C56D"/>
<path d="M242.446 197.414C245.189 197.414 245.194 193.15 242.446 193.15C239.702 193.15 239.698 197.414 242.446 197.414Z" fill="#4DA258"/>
<path d="M172.54 339.324C175.308 337.104 178.025 334.806 180.95 332.802C183.736 330.583 186.828 328.859 189.768 326.852C195.939 323.226 202.438 320.19 209.178 317.783C201.882 318.634 194.788 320.735 188.204 323.992C184.927 325.659 181.751 327.517 178.692 329.556C175.587 331.538 172.762 333.881 169.858 336.123C164.294 340.875 159.15 346.097 154.483 351.732C149.785 357.304 145.691 363.359 142.269 369.794C147.029 364.309 151.905 359.013 156.897 353.904C161.933 348.819 167.097 343.898 172.54 339.324Z" fill="#E4EBF1"/>
<path d="M181.11 342.738C182.559 341.092 184.158 339.595 185.713 338.048C187.35 336.596 188.932 335.071 190.641 333.692C197.478 328.041 205.002 323.279 213.036 319.52C204.246 321.809 195.968 325.744 188.643 331.116C181.26 336.496 174.758 342.99 169.368 350.366C163.987 357.694 159.533 365.659 156.109 374.081C152.601 382.406 150.222 391.162 149.035 400.117C151.786 391.654 155.139 383.4 159.069 375.416C162.924 367.494 167.494 359.941 172.722 352.85C175.293 349.299 178.096 345.921 181.11 342.738ZM221.395 320.424C214.555 329.046 208.4 338.191 202.987 347.773C197.471 357.34 192.701 367.317 188.719 377.617C186.751 382.799 185.052 388.078 183.627 393.435C182.22 398.818 181.212 404.298 180.612 409.83C180.038 415.385 180.114 420.988 180.838 426.525C181.544 432.043 183.298 437.375 186.006 442.234C182.108 431.887 182.277 420.841 183.846 410.244C185.709 399.592 188.649 389.158 192.62 379.1C194.487 374.01 196.64 369.021 198.86 364.062C201.045 359.082 203.438 354.195 205.85 349.305C210.743 339.563 215.925 329.935 221.395 320.424Z" fill="#E4EBF1"/>
<path d="M212.215 350.644C210.622 356.205 209.26 361.83 207.924 367.464C206.627 373.106 205.53 378.797 204.496 384.502C202.44 395.948 201.35 407.547 201.236 419.176C201.178 425.016 201.639 430.85 202.614 436.609C203.678 442.331 205.319 448.082 208.429 452.994C206.291 447.678 205.015 442.056 204.647 436.339C204.189 430.655 204.138 424.946 204.493 419.255C204.847 413.558 205.281 407.862 206.063 402.191C206.782 396.518 207.592 390.847 208.61 385.207C210.509 373.902 212.893 362.666 215.365 351.436C217.883 340.213 220.561 329.018 223.275 317.783C218.974 328.52 215.281 339.49 212.215 350.643M189.154 360.829C189.619 359.749 190.235 358.746 190.768 357.701L194.093 351.488C196.58 347.508 198.883 343.391 201.713 339.624C206.959 331.76 213.413 324.85 219.891 317.784C215.252 321.241 210.852 325.009 206.722 329.061C199.521 332.275 192.88 336.62 187.05 341.931C183.816 344.957 180.853 348.261 178.195 351.804C175.593 355.399 173.292 359.204 171.315 363.178C169.429 367.189 167.866 371.343 166.639 375.602C165.444 379.851 164.601 384.191 164.119 388.579C163.072 397.288 163.565 406.113 165.575 414.652C165.207 406.079 165.796 397.492 167.33 389.049C168.83 380.723 171.434 372.634 175.073 364.997C178.766 357.406 183.576 350.412 189.343 344.247C194.07 339.365 199.248 334.941 204.806 331.032C202.789 333.141 200.887 335.356 199.106 337.668C195.89 341.301 193.447 345.49 190.691 349.471C189.453 351.547 188.335 353.696 187.153 355.806C185.966 357.914 184.886 360.081 183.917 362.298C181.907 366.696 180.126 371.195 178.583 375.778L176.518 382.72C175.916 385.058 175.395 387.415 174.861 389.765C172.803 399.173 172.039 408.819 172.591 418.434C173.668 409.003 175.483 399.671 178.017 390.524C180.492 381.438 183.734 372.58 187.71 364.044L189.154 360.829ZM226.435 320.424C226.141 331.75 226.084 343.046 226.047 354.334C225.98 365.624 226.017 376.903 225.892 388.174C225.876 393.809 225.807 399.442 225.687 405.072C225.616 410.703 225.428 416.329 225.227 421.952C224.979 427.569 224.706 433.189 224.179 438.782C223.789 444.398 222.857 449.963 221.396 455.4C223.865 450.274 225.122 444.632 226.21 439.066C227.224 433.466 227.948 427.823 228.48 422.173C229.566 410.867 229.938 399.529 230.067 388.206C230.108 376.879 229.892 365.56 229.293 354.259C228.716 342.956 227.868 331.667 226.435 320.424ZM255.453 423.24C255.491 420.5 255.263 417.784 255.069 415.063C254.813 409.601 253.975 404.215 253.339 398.797C252.441 393.427 251.584 388.045 250.465 382.721C249.385 377.387 248.107 372.1 246.822 366.819C245.414 361.569 244.054 356.307 242.437 351.119C239.358 340.7 235.722 330.453 231.544 320.424L239.303 351.968C241.82 362.475 244.265 372.988 246.375 383.558C248.594 394.103 250.484 404.714 251.825 415.381C253.113 426.047 254.125 436.783 253.301 447.625C253.812 444.97 254.299 442.29 254.761 439.587C255.056 436.882 255.18 434.157 255.398 431.427C255.494 430.065 255.521 428.699 255.48 427.335L255.453 423.24ZM296.795 344.905C294.228 342.43 291.377 340.322 288.595 338.118C285.708 336.076 282.818 334.018 279.818 332.156C276.823 330.276 273.756 328.534 270.678 326.812C267.541 325.199 264.438 323.529 261.218 322.092C254.852 319.072 248.263 316.546 241.51 314.535L259.724 324.975C265.753 328.465 271.762 331.953 277.596 335.691C283.477 339.347 289.236 343.195 294.7 347.401C300.279 351.534 305.385 356.27 309.925 361.523C306.881 355.11 301.987 349.706 296.795 344.905ZM289.93 361.442C286.855 357.669 283.587 354.057 280.138 350.622C273.193 343.865 265.685 337.712 257.694 332.23C252.951 328.964 248.077 325.882 243.059 323.072C240.209 320.118 237.264 317.252 234.175 314.535C235.185 315.923 236.202 317.294 237.216 318.673C237.477 319.239 237.733 319.802 237.992 320.366C236.238 319.466 234.464 318.604 232.672 317.783C234.752 319.229 236.779 320.723 238.831 322.194C242.261 329.643 245.658 337.078 248.956 344.542C250.892 349.026 252.877 353.482 254.704 358.004C256.569 362.506 258.42 367.012 260.09 371.582C261.83 376.124 263.477 380.7 264.948 385.324C266.475 389.934 267.829 394.59 269.011 399.291C270.191 403.988 271.097 408.749 271.724 413.551C272.394 418.379 272.485 423.271 271.994 428.121C273.343 423.339 273.942 418.377 273.768 413.412C273.635 408.443 273.11 403.493 272.198 398.607C270.309 388.884 267.564 379.346 263.994 370.107C260.474 360.895 256.431 351.892 251.885 343.141C248.397 336.418 244.672 329.816 240.581 323.446L240.877 323.658C243.276 326.897 245.677 330.127 248.079 333.348C250.377 336.482 252.716 339.578 254.979 342.728L258.415 347.42L261.768 352.166C264.015 355.318 266.251 358.484 268.384 361.708L271.633 366.518C272.655 368.158 273.707 369.778 274.775 371.395C278.881 377.953 282.809 384.603 286.368 391.596C284.301 384.001 281.356 376.673 277.593 369.759C273.879 362.835 269.731 356.153 265.173 349.753C260.623 343.362 255.767 337.214 250.607 331.311C250.237 330.889 249.857 330.477 249.487 330.057C251.582 331.649 253.7 333.214 255.764 334.84C259.48 337.825 263.202 340.792 266.755 343.947C270.333 347.069 273.874 350.232 277.207 353.594C284.016 360.129 290.085 367.395 295.304 375.259C300.347 383.162 304.132 391.981 304.914 401.62C305.91 391.96 302.841 382.093 298.106 373.595C295.703 369.336 292.968 365.273 289.929 361.442" fill="#E4EBF1"/>
<path d="M241.51 314.535C241.51 320.555 234.104 325.435 224.97 325.435C215.834 325.435 208.43 320.555 208.43 314.535C208.43 308.514 215.834 303.634 224.97 303.634C234.104 303.634 241.51 308.514 241.51 314.534" fill="#E9A48A"/>
<path d="M219.487 314.535C219.487 309.795 224.086 305.772 230.499 304.27C228.686 303.847 226.831 303.633 224.969 303.633C215.834 303.633 208.429 308.513 208.429 314.535C208.429 320.555 215.834 325.435 224.969 325.435C226.831 325.435 228.686 325.222 230.499 324.799C224.086 323.298 219.487 319.275 219.487 314.535Z" fill="#C58877"/>
<path d="M172.592 402.122C172.592 403.609 172.151 405.063 171.325 406.299C170.499 407.535 169.325 408.499 167.951 409.068C166.577 409.637 165.065 409.786 163.607 409.495C162.149 409.205 160.809 408.489 159.758 407.438C158.706 406.386 157.99 405.046 157.7 403.588C157.411 402.13 157.56 400.618 158.129 399.244C158.698 397.871 159.662 396.696 160.898 395.871C162.135 395.045 163.588 394.604 165.075 394.604C167.069 394.604 168.981 395.396 170.391 396.806C171.8 398.216 172.592 400.128 172.592 402.122ZM295.39 402.122C295.392 403.611 294.951 405.067 294.125 406.305C293.298 407.544 292.123 408.51 290.748 409.08C289.373 409.65 287.859 409.8 286.398 409.51C284.938 409.219 283.597 408.503 282.544 407.45C281.491 406.397 280.774 405.055 280.484 403.595C280.194 402.134 280.344 400.621 280.915 399.245C281.485 397.87 282.451 396.695 283.69 395.869C284.928 395.043 286.384 394.602 287.873 394.604C289.867 394.605 291.779 395.397 293.188 396.807C294.598 398.216 295.39 400.128 295.39 402.122Z" fill="#E9A48A"/>
<path d="M295.39 402.122C295.391 403.611 294.951 405.067 294.125 406.305C293.298 407.544 292.123 408.51 290.748 409.08C289.372 409.65 287.859 409.8 286.398 409.51C284.938 409.219 283.596 408.503 282.544 407.45C281.491 406.397 280.774 405.055 280.484 403.595C280.194 402.134 280.344 400.621 280.914 399.245C281.485 397.87 282.451 396.695 283.689 395.869C284.928 395.043 286.384 394.602 287.873 394.604C289.866 394.605 291.778 395.397 293.188 396.807C294.598 398.216 295.39 400.128 295.39 402.122Z" fill="#E9A48A"/>
<path d="M281.603 406.992C280.82 405.984 280.292 404.803 280.062 403.548C279.833 402.293 279.909 401.001 280.285 399.782C280.661 398.562 281.325 397.451 282.221 396.543C283.117 395.635 284.219 394.956 285.433 394.564L285.691 395.365C284.606 395.716 283.621 396.323 282.819 397.135C282.018 397.947 281.425 398.94 281.089 400.03C280.753 401.121 280.685 402.276 280.89 403.398C281.095 404.52 281.567 405.576 282.267 406.477L281.603 406.992Z" fill="#303443"/>
<path d="M208.43 461.952C208.43 473.925 165.074 473.925 165.074 461.952C165.074 456.203 167.358 450.689 171.424 446.623C175.489 442.558 181.003 440.274 186.752 440.274C192.502 440.274 198.015 442.558 202.081 446.623C206.146 450.689 208.43 456.203 208.43 461.952Z" fill="#82C56D"/>
<path d="M205.795 452.497C204.044 448.945 201.331 445.955 197.964 443.869C194.597 441.783 190.713 440.684 186.752 440.697V439.854C190.869 439.84 194.908 440.983 198.407 443.152C201.907 445.321 204.727 448.429 206.547 452.122L205.795 452.497Z" fill="#303443"/>
<path d="M284.864 461.952C284.864 473.925 241.51 473.925 241.51 461.952C241.51 456.203 243.794 450.689 247.859 446.624C251.924 442.559 257.438 440.275 263.187 440.275C268.936 440.275 274.449 442.559 278.515 446.624C282.58 450.689 284.864 456.203 284.864 461.952ZM378.725 461.952C378.725 473.925 335.37 473.925 335.37 461.952C335.409 456.228 337.71 450.752 341.771 446.719C345.832 442.685 351.323 440.421 357.047 440.421C362.771 440.421 368.263 442.685 372.324 446.719C376.385 450.752 378.686 456.228 378.725 461.952ZM465.804 461.952C465.804 473.925 422.449 473.925 422.449 461.952C422.449 456.203 424.733 450.689 428.798 446.624C432.863 442.558 438.377 440.274 444.126 440.274C449.876 440.274 455.389 442.558 459.455 446.624C463.52 450.689 465.804 456.203 465.804 461.952Z" fill="#82C56D"/>
<path d="M255.28 213.551C247.392 183.971 221.71 136.669 175.465 147.021L175.232 145.982C222.256 135.459 248.322 183.329 256.309 213.277L255.28 213.551ZM235.509 338.77L236.544 338.523L243.971 369.671L242.936 369.918L235.509 338.77ZM184.371 410.33L183.321 410.156C183.356 409.939 186.987 388.357 193.751 374.672L194.706 375.142C188.012 388.687 184.406 410.115 184.371 410.33Z" fill="#303443"/>
<path d="M447.325 440.537C450.38 442.496 452.893 445.191 454.634 448.375C456.375 451.559 457.288 455.13 457.288 458.759C457.288 466.683 438.298 469.361 425.452 466.795C435.268 473.615 465.803 472.001 465.803 461.952C465.8 456.761 463.933 451.743 460.542 447.812C457.15 443.882 452.46 441.3 447.325 440.537ZM360.048 440.537C363.103 442.496 365.617 445.191 367.358 448.375C369.099 451.559 370.012 455.13 370.012 458.759C370.012 466.683 351.021 469.361 338.175 466.795C347.991 473.615 378.527 472.001 378.527 461.952C378.524 456.761 376.657 451.743 373.265 447.812C369.874 443.882 365.183 441.3 360.048 440.537ZM266.386 440.537C269.441 442.496 271.954 445.191 273.695 448.375C275.436 451.559 276.349 455.13 276.349 458.759C276.349 466.683 257.358 469.361 244.512 466.795C254.329 473.615 284.864 472.001 284.864 461.952C284.861 456.761 282.994 451.743 279.603 447.812C276.211 443.882 271.521 441.3 266.386 440.537ZM189.753 440.537C192.808 442.496 195.321 445.191 197.062 448.375C198.803 451.559 199.716 455.13 199.716 458.759C199.716 466.683 180.725 469.361 167.879 466.795C177.696 473.615 208.231 472.001 208.231 461.952C208.228 456.761 206.361 451.743 202.97 447.812C199.578 443.882 194.888 441.3 189.753 440.537Z" fill="#4DA258"/>
<path d="M302.017 175.4C302.433 175.39 302.829 175.217 303.12 174.919C303.411 174.62 303.574 174.22 303.574 173.803C303.574 173.387 303.411 172.987 303.12 172.688C302.829 172.39 302.433 172.217 302.017 172.207C301.6 172.217 301.204 172.39 300.914 172.688C300.623 172.987 300.46 173.387 300.46 173.803C300.46 174.22 300.623 174.62 300.914 174.919C301.204 175.217 301.6 175.39 302.017 175.4ZM151.926 426.525C152.342 426.515 152.738 426.342 153.029 426.043C153.32 425.745 153.483 425.345 153.483 424.928C153.483 424.512 153.32 424.112 153.029 423.813C152.738 423.515 152.342 423.342 151.926 423.332C151.509 423.342 151.113 423.515 150.823 423.813C150.532 424.112 150.369 424.512 150.369 424.928C150.369 425.345 150.532 425.745 150.823 426.043C151.113 426.342 151.509 426.515 151.926 426.525ZM505.259 167.59C505.672 167.575 506.064 167.401 506.351 167.103C506.639 166.805 506.799 166.408 506.799 165.994C506.799 165.58 506.639 165.183 506.351 164.885C506.064 164.587 505.672 164.413 505.259 164.398C504.842 164.408 504.446 164.581 504.156 164.879C503.865 165.178 503.702 165.578 503.702 165.994C503.702 166.411 503.865 166.811 504.156 167.109C504.446 167.408 504.842 167.581 505.259 167.591M249.306 127.929C253.416 127.929 253.422 121.543 249.306 121.543C245.198 121.543 245.19 127.929 249.306 127.929ZM384.408 138.455C388.518 138.455 388.524 132.069 384.408 132.069C380.3 132.069 380.292 138.455 384.408 138.455ZM113.74 431.314C117.849 431.314 117.855 424.928 113.74 424.928C109.63 424.928 109.623 431.314 113.74 431.314ZM548.654 378.1C552.764 378.1 552.77 371.714 548.654 371.714C544.546 371.714 544.538 378.1 548.654 378.1Z" fill="#E4EBF1"/>
<path d="M505.259 268.646C509.369 268.646 509.374 262.26 505.259 262.26C501.15 262.26 501.143 268.646 505.259 268.646ZM318.305 248.219C322.414 248.219 322.42 241.833 318.305 241.833C314.196 241.833 314.189 248.219 318.305 248.219ZM135.053 278.112C139.163 278.112 139.168 271.725 135.053 271.725C130.944 271.725 130.937 278.112 135.053 278.112ZM280.353 271.346C284.463 271.346 284.469 264.96 280.353 264.96C276.244 264.96 276.237 271.346 280.353 271.346ZM454.521 250.35C458.631 250.35 458.637 243.965 454.521 243.965C450.413 243.965 450.405 250.35 454.521 250.35ZM176.552 239.024C180.661 239.024 180.668 232.638 176.552 232.638C172.444 232.638 172.436 239.024 176.552 239.024ZM436.339 206.838C440.447 206.838 440.454 200.452 436.339 200.452C432.23 200.452 432.223 206.838 436.339 206.838Z" fill="white"/>
<path d="M305.101 109.393C309.21 109.393 309.217 103.007 305.101 103.007C300.992 103.007 300.986 109.393 305.101 109.393ZM522.836 216.607C526.945 216.607 526.952 210.221 522.836 210.221C518.726 210.221 518.72 216.607 522.836 216.607ZM113.74 352.65C117.848 352.65 117.855 346.265 113.74 346.265C109.63 346.265 109.624 352.651 113.74 352.651M322.437 412.833C326.545 412.833 326.553 406.447 322.437 406.447C318.327 406.447 318.321 412.833 322.437 412.833ZM112.585 239.024C116.693 239.024 116.701 232.638 112.585 232.638C108.475 232.638 108.469 239.024 112.585 239.024ZM506.86 416.026C510.968 416.026 510.976 409.64 506.86 409.64C502.75 409.64 502.744 416.026 506.86 416.026Z" fill="#E4EBF1"/>
<path d="M324.473 165.994C328.581 165.994 328.589 159.608 324.473 159.608C320.363 159.608 320.357 165.994 324.473 165.994ZM187.28 397.655C191.39 397.655 191.397 391.269 187.28 391.269C183.173 391.269 183.165 397.655 187.28 397.655ZM503.776 366.236C507.884 366.236 507.891 359.85 503.776 359.85C499.666 359.85 499.66 366.236 503.776 366.236ZM321.389 298.798C325.497 298.798 325.505 292.412 321.389 292.412C317.28 292.412 317.273 298.798 321.389 298.798Z" fill="white"/>
</svg>
