<svg width="48" height="40" viewBox="0 0 48 40" fill="none" xmlns="http://www.w3.org/2000/svg">
<path d="M0 10.536C4.00334 10.536 8.00668 10.5528 12.01 10.536C12.4288 10.536 12.5879 10.67 12.7052 11.0553C15.5192 20.0167 18.35 28.9782 21.1809 37.9313C21.2227 38.0736 21.2646 38.216 21.2562 38.3919C21.1474 38.2495 21.0301 38.1071 20.9212 37.9648C14.0452 28.9614 7.17754 19.9581 0.301507 10.9548C0.217755 10.8375 0.100502 10.737 0 10.6281C0 10.5946 0 10.5695 0 10.536Z" fill="#E4C779"/>
<path d="M14.3801 10.5612H33.0903C29.9831 20.3937 26.8843 30.2011 23.7938 40C23.7603 40 23.7185 40 23.685 40C20.5861 30.1927 17.4873 20.3853 14.3801 10.5529V10.5612Z" fill="#E4C779"/>
<path d="M26.1641 38.3585C26.6331 36.8761 27.0938 35.3937 27.5628 33.9113C29.9665 26.2898 32.3785 18.6768 34.7738 11.0553C34.8911 10.6785 35.0418 10.5277 35.469 10.5277C39.288 10.5445 43.0988 10.5361 46.9179 10.5361H47.4874C40.3685 19.8661 33.2998 29.129 26.2395 38.3836C26.2144 38.3752 26.1976 38.3585 26.1725 38.3501L26.1641 38.3585Z" fill="#E4C779"/>
<path d="M15.4354 8.75213C18.2076 5.97156 20.9714 3.21613 23.6766 0.502563C26.4237 3.24963 29.1959 6.02181 31.9178 8.75213H15.4354Z" fill="#E4C779"/>
<path d="M8.55945 0H21.4237C18.7353 2.68844 16.0217 5.39362 13.2998 8.12394C11.7588 5.49413 10.1842 2.78056 8.55945 0Z" fill="#E4C779"/>
<path d="M25.9631 0H38.9195C37.3031 2.77219 35.7118 5.49413 34.1456 8.18256C31.4069 5.44388 28.7018 2.73869 25.9631 0Z" fill="#E4C779"/>
<path d="M6.89271 0.636475C8.48399 3.36679 10.0418 6.03847 11.6247 8.75204H0.125549C2.4036 6.0301 4.6314 3.35841 6.89271 0.636475Z" fill="#E4C779"/>
<path d="M47.3534 8.76041H35.8459C37.4288 6.03847 38.9866 3.36679 40.5862 0.636475C42.8391 3.34166 45.0669 6.01335 47.3617 8.76041H47.3534Z" fill="#E4C779"/>
</svg>
