<svg width="153" height="69" viewBox="0 0 153 69" fill="none" xmlns="http://www.w3.org/2000/svg">
<path d="M0.424072 53.7875V53.1784H1.68086L7.92625 29.6541L14.3721 50.8267C14.6188 51.5823 14.7653 52.0141 14.8193 52.122C15.1431 52.8237 15.6983 53.1784 16.4847 53.1784V53.7875H11.4576V53.1784L13.4469 53.1938L9.23701 38.9527H6.13745L3.36172 50.1944C3.29233 50.3872 3.23835 50.6339 3.1998 50.9424C3.16125 51.2508 3.14583 51.4898 3.14583 51.6517C3.14583 52.2994 3.37714 52.7157 3.83205 52.9008C4.29467 53.0858 5.10426 53.1861 6.26852 53.1861V53.7952H0.424072V53.7875ZM9.0828 38.3205L7.57157 33.3627L6.37647 38.3436L9.0828 38.3282V38.3205Z" fill="#E4C779"/>
<path d="M26.7396 42.5149C26.7396 41.6205 26.4852 40.9188 25.9686 40.41C25.452 39.8934 24.8429 39.6389 24.1413 39.6389C23.2777 39.6389 22.499 39.9705 21.8127 40.6336C21.1265 41.2967 20.7795 42.2065 20.7795 43.3707V51.883C20.7795 52.5075 20.8875 52.8776 21.1034 53.001C21.3193 53.1243 21.7819 53.186 22.4835 53.186V53.7951H17.865V53.186H19.4456V41.0191L17.9884 42.6383L17.5797 42.3144L21.0648 38.4592L21.4735 38.7831L20.7873 39.5618V40.888C21.8667 39.4847 23.1389 38.7831 24.5962 38.7831C24.974 38.7831 25.3287 38.8139 25.6679 38.8679C26.0072 38.9219 26.3618 39.0298 26.7396 39.1917V37.9349H27.2254V43.895H26.7396V42.5149Z" fill="#E4C779"/>
<path d="M29.9393 45.599V39.5155H28.644V39.0683H29.9393V32.0827L31.358 30.5792V39.0606H34.5193V39.5078H31.358V49.4002C31.358 50.5105 31.5045 51.3586 31.8052 51.9523C32.0211 52.415 32.3681 52.7773 32.8538 53.0472C33.0697 53.1552 33.2933 53.2477 33.5401 53.3325C33.7791 53.4173 34.0335 53.4559 34.3034 53.4559C34.7352 53.4559 35.1207 53.3633 35.4754 53.1706C35.8223 52.9778 36.2541 52.546 36.763 51.8752C37.1948 51.3047 37.5032 51.0271 37.6882 51.0271C37.9273 51.1119 38.0583 51.1659 38.0738 51.2121C38.0892 51.2507 38.0969 51.3047 38.1123 51.3741C38.1277 51.4435 38.1354 51.5283 38.1354 51.6362C38.1354 51.8521 38.0275 52.1374 37.8116 52.4844C37.1177 53.3479 36.0999 53.8491 34.7583 53.9879H34.3188C32.4992 53.9879 31.2501 53.1629 30.587 51.5128C30.1552 50.4565 29.947 48.8374 29.947 46.6476V45.5913L29.9393 45.599Z" fill="#E4C779"/>
<path d="M40.5642 46.5317V45.0282H47.704V46.5317H40.5642Z" fill="#E4C779"/>
<path d="M68.175 51.3509C67.1726 52.3224 66.0623 53.0471 64.8287 53.5175C63.595 53.9878 62.3074 54.2268 60.9581 54.2268C58.3366 54.2268 55.9695 53.4018 53.8645 51.7518C51.6517 50.0247 50.2715 47.7887 49.7318 45.0592C49.647 44.6274 49.5699 44.1725 49.4851 43.7022C49.4002 43.2318 49.3617 42.7924 49.3617 42.3837C49.3617 39.0297 50.526 36.2771 52.8468 34.1105C55.1676 31.9516 57.9665 30.8644 61.2434 30.8644C62.8394 30.8644 64.4971 31.1651 66.232 31.7588V29.5691H66.7563V38.2432H66.232V36.2154C66.232 35.5909 66.1857 35.0357 66.0932 34.55C66.0007 34.0642 65.8156 33.617 65.5457 33.2084C65.1371 32.6687 64.5511 32.2523 63.7955 31.9747C63.0322 31.6894 62.2611 31.5507 61.4747 31.5507H61.0275C58.4445 31.5507 56.1391 32.4913 54.119 34.3649C52.0912 36.2463 51.0811 38.4514 51.0811 40.9958V41.9674C51.0811 45.2365 52.176 47.9969 54.3657 50.2406C56.4475 52.3763 58.8531 53.4404 61.5826 53.4404C62.7469 53.4404 63.8495 53.2322 64.8904 52.8081C65.9313 52.3918 66.8873 51.7441 67.7509 50.8805L68.1981 51.3277L68.175 51.3509Z" fill="#E4C779"/>
<path d="M70.2876 47.7039L70.1642 46.7324C70.1642 44.7586 70.8967 42.9852 72.354 41.3969C73.8112 39.8162 75.546 38.9141 77.543 38.6982H78.2755C80.1954 38.6982 81.8685 39.3228 83.3027 40.5719C84.7368 41.8209 85.5464 43.3939 85.7391 45.2906V46.0616C85.7391 48.0124 85.0529 49.7626 83.6728 51.3047C82.2926 52.8468 80.6426 53.7566 78.7227 54.0264H77.6278C75.7619 54.0264 74.1428 53.4327 72.7626 52.2453C71.3824 51.058 70.5574 49.539 70.2876 47.7039ZM72.5159 50.0864C73.896 52.176 75.708 53.2168 77.9517 53.2168C79.6788 53.2168 81.2363 52.5769 82.6164 51.3047C83.9966 50.0325 84.6828 48.5135 84.6828 46.7479C84.6828 46.1002 84.598 45.4679 84.4361 44.8588C84.2742 44.2497 83.9889 43.6175 83.5879 42.9698C82.9403 41.9906 82.069 41.2118 80.9741 40.6335C79.8793 40.0476 78.7613 39.7623 77.6278 39.7623C76.4096 39.7623 75.307 40.063 74.3201 40.6567C73.3332 41.2504 72.5776 42.0291 72.0455 42.9775C71.5212 43.9259 71.2514 44.9591 71.2514 46.0693C71.2514 47.4495 71.6677 48.7911 72.5082 50.0942L72.5159 50.0864Z" fill="#E4C779"/>
<path d="M90.3576 49.2846C90.3576 50.4026 90.5427 51.2971 90.9282 51.9447C91.414 52.762 92.185 53.1707 93.2413 53.1707L93.3647 53.0473C94.3362 53.0473 95.1072 52.6695 95.6778 51.9139C96.2483 51.1583 96.5259 50.2793 96.5259 49.2769V40.8804C96.5259 40.3098 96.4103 39.9397 96.179 39.7624C95.9476 39.585 95.5621 39.5002 95.0224 39.5002H94.4981V39.053H97.9061V51.8676C97.9061 52.4613 98.014 52.8237 98.2299 52.9625C98.4458 53.1013 98.9084 53.163 99.6101 53.163V53.7721H96.5259V51.7443C95.9939 52.4999 95.4311 53.0627 94.8374 53.4251C94.2514 53.7875 93.5497 53.9725 92.7478 53.9725H92.0231C90.8742 53.8415 90.0801 53.3326 89.6329 52.4613C89.1934 51.5823 88.9698 50.5183 88.9698 49.2692V40.8881C88.9698 40.3175 88.8464 39.9397 88.6074 39.7624C88.3607 39.585 87.9983 39.4925 87.5125 39.4925H86.8263V39.0453H90.3576V49.2615V49.2846Z" fill="#E4C779"/>
<path d="M102.602 45.599V39.5155H101.306V39.0683H102.602V32.0827L104.021 30.5792V39.0606H107.182V39.5078H104.021V49.4002C104.021 50.5105 104.167 51.3586 104.468 51.9523C104.684 52.415 105.031 52.7773 105.516 53.0472C105.732 53.1552 105.956 53.2477 106.203 53.3325C106.442 53.4173 106.696 53.4559 106.966 53.4559C107.398 53.4559 107.783 53.3633 108.138 53.1706C108.485 52.9778 108.917 52.546 109.425 51.8752C109.857 51.3047 110.166 51.0271 110.351 51.0271C110.59 51.1119 110.721 51.1659 110.736 51.2121C110.752 51.2507 110.759 51.3047 110.775 51.3741C110.79 51.4435 110.798 51.5283 110.798 51.6362C110.798 51.8521 110.69 52.1374 110.474 52.4844C109.78 53.3479 108.762 53.8491 107.421 53.9879H106.981C105.162 53.9879 103.913 53.1629 103.249 51.5128C102.818 50.4565 102.61 48.8374 102.61 46.6476V45.5913L102.602 45.599Z" fill="#E4C779"/>
<path d="M115.37 49.2846C115.37 50.4026 115.563 51.2971 115.941 51.9447C116.426 52.762 117.197 53.1707 118.254 53.1707L118.377 53.0473C119.349 53.0473 120.12 52.6695 120.69 51.9139C121.261 51.1583 121.538 50.2793 121.538 49.2769V40.8804C121.538 40.3098 121.423 39.9397 121.191 39.7624C120.96 39.585 120.575 39.5002 120.035 39.5002H119.511V39.053H122.919V51.8676C122.919 52.4613 123.027 52.8237 123.242 52.9625C123.458 53.1013 123.921 53.163 124.623 53.163V53.7721H121.538V51.7443C121.006 52.4999 120.444 53.0627 119.858 53.4251C119.272 53.7875 118.57 53.9725 117.768 53.9725H117.043C115.894 53.8415 115.1 53.3326 114.661 52.4613C114.221 51.5823 113.998 50.5183 113.998 49.2692V40.8881C113.998 40.3175 113.874 39.9397 113.635 39.7624C113.396 39.585 113.026 39.4925 112.54 39.4925H111.854V39.0453H115.386V49.2615L115.37 49.2846Z" fill="#E4C779"/>
<path d="M135.001 42.5149C135.001 41.6205 134.746 40.9188 134.23 40.41C133.713 39.8934 133.104 39.6389 132.402 39.6389C131.539 39.6389 130.76 39.9705 130.074 40.6336C129.388 41.2967 129.041 42.2065 129.041 43.3707V51.883C129.041 52.5075 129.148 52.8776 129.364 53.001C129.58 53.1243 130.043 53.186 130.745 53.186V53.7951H126.126V53.186H127.707V41.0191L126.249 42.6383L125.841 42.3144L129.326 38.4592L129.734 38.7831L129.048 39.5618V40.888C130.128 39.4847 131.4 38.7831 132.857 38.7831C133.235 38.7831 133.59 38.8139 133.929 38.8679C134.268 38.9219 134.623 39.0298 135.001 39.1917V37.9349H135.486V43.895H135.001V42.5149Z" fill="#E4C779"/>
<path d="M152.148 44.0571H138.447C138.339 44.4581 138.27 44.7588 138.247 44.9438C138.108 45.5067 138.046 45.9924 138.046 46.3934C138.046 48.3827 138.779 50.025 140.236 51.3203C141.616 52.5308 143.251 53.1399 145.14 53.1399C146.597 53.1399 147.939 52.739 149.157 51.9371C150.506 51.0504 151.478 49.8091 152.079 48.1976L152.526 48.321C151.956 50.1715 150.892 51.621 149.326 52.6696C147.869 53.6334 146.258 54.1192 144.5 54.1192C142.472 54.1192 140.768 53.5255 139.388 52.3381C137.846 51.0119 137.075 49.2308 137.075 46.9871V46.9023C137.075 44.4658 137.977 42.4688 139.773 40.9036C141.439 39.4464 143.366 38.7139 145.541 38.7139C147.152 38.7139 148.54 39.1379 149.697 39.9784C150.984 40.9345 151.809 42.2915 152.156 44.0649L152.148 44.0571ZM138.771 43.4866L150.614 43.448C150.105 42.2298 149.296 41.2968 148.201 40.6337C147.098 39.9707 145.934 39.6391 144.7 39.6391C143.382 39.6391 142.194 39.9629 141.138 40.6106C140.074 41.2583 139.295 42.2221 138.786 43.4866H138.771Z" fill="#E4C779"/>
<path d="M127.992 6.99321C126.273 6.05254 123.813 5.77497 122.016 6.66937C120.066 7.64859 119.002 9.8152 119.819 11.9201C119.904 12.136 120.066 12.244 120.235 12.2748C120.204 12.1746 120.181 12.0666 120.166 11.951C119.981 10.5862 120.659 8.96706 121.7 8.08037C124.291 5.84436 129.465 7.38644 129.603 11.0566C129.603 11.1028 129.534 11.1105 129.526 11.0643C128.948 8.9208 125.856 7.17055 123.62 7.96471C123.797 7.96471 123.975 7.96471 124.16 8.00326C125.563 8.24229 127.082 9.15982 127.645 10.5168C128.987 13.7629 127.876 16.6466 124.792 18.2272C122.363 19.4763 119.457 18.7823 117.043 17.8802C114.136 16.7931 111.461 14.9966 108.909 13.2617C103.265 9.41426 97.5129 4.69552 90.5042 3.87051C84.2048 3.13032 76.9802 5.98315 75.9624 12.9533C75.3687 17.0321 77.836 21.72 82.1461 22.4216C84.4438 22.7917 88.5534 22.2135 88.9158 19.5148C87.9058 20.3784 86.6952 20.949 85.3074 21.0261C81.6989 21.2111 78.7921 19.6845 77.4814 16.2533C77.4582 16.1917 77.5507 16.1608 77.5816 16.2148C78.3758 17.6181 79.54 18.6667 80.897 19.2912C78.8152 17.8108 77.998 14.904 78.53 12.4676C79.3087 8.95164 82.4854 6.90839 85.7931 6.16049C89.5943 5.31235 93.4418 6.66937 96.7187 8.53528C102.355 11.7428 107.128 16.2379 112.741 19.4609C117.999 22.4833 124.422 24.0023 129.218 19.3375C132.742 15.9141 132.441 9.42197 127.969 6.97779L127.992 6.99321ZM126.296 18.6204C116.303 25.1742 107.228 13.069 99.1398 8.78201C99.1012 8.76659 99.1243 8.68949 99.1706 8.70491C107.621 11.6965 116.326 24.2259 126.211 18.4739C126.303 18.42 126.38 18.5587 126.296 18.6127V18.6204Z" fill="#E4C779"/>
<path d="M87.2579 5.87496C83.2331 5.06537 80.388 8.18806 78.3833 11.1797C78.3524 11.2182 78.4218 11.2722 78.4527 11.2337C79.8868 9.4834 81.4289 7.74857 83.6417 7.00838C86.2633 6.1294 89.1161 7.27053 90.0799 9.89205C90.8509 12.0047 89.918 14.5414 87.7437 15.3201C86.6565 15.7134 85.3303 15.4281 84.6287 14.4874C84.1198 13.8089 84.1044 12.6524 84.5207 11.9816C83.5646 12.475 83.4181 13.4697 83.6263 14.5106C83.6263 14.526 83.6109 14.5337 83.6032 14.526C82.624 13.4851 83.1868 11.8428 84.3819 11.2337C84.9756 10.933 85.7158 10.7633 86.3635 11.0101C86.5871 11.0949 86.8261 11.2182 87.0497 11.3724C87.1345 11.1797 87.1114 10.9561 86.9032 10.7942C85.8315 9.96145 84.2354 10.0154 83.2331 11.0178C81.8684 12.3825 82.1382 14.3255 83.2331 15.7673C85.5539 18.8129 90.3729 17.1012 91.6297 13.9631C92.9944 10.5629 90.8278 6.60744 87.2502 5.88267L87.2579 5.87496Z" fill="#E4C779"/>
<path d="M147.907 14.7499C146.142 10.8484 141.068 10.9101 137.707 12.3442C132.872 14.3952 129.827 19.1679 125.085 21.3962C125.039 21.4193 125.069 21.4964 125.116 21.481C128.053 20.6329 130.575 18.9906 132.949 17.1169C135.548 15.0737 138.092 13.1847 141.516 13.0073C144.284 12.8608 147.252 14.9503 146.543 18.0036C146.342 18.8595 145.548 19.6074 144.685 19.7462C145.394 19.8078 146.142 19.4455 146.589 18.9134C147.198 18.1964 147.383 17.3097 147.275 16.3922C147.275 16.3767 147.291 16.3767 147.298 16.3922C148.493 18.5202 145.671 21.5812 143.459 20.309C142.649 19.8464 142.263 18.8903 142.634 18.0036C142.803 17.595 143.212 17.1863 143.674 16.9781C142.688 16.5464 141.755 17.5102 141.731 18.5048C141.701 19.8233 142.541 20.8256 143.736 21.2805C145.309 21.8819 147.098 20.7948 148 19.5842C149.002 18.2349 148.524 16.13 147.907 14.7576V14.7499Z" fill="#E4C779"/>
<path d="M23.8019 19.3451C28.6054 24.0099 35.0205 22.491 40.2789 19.4685C45.8921 16.2456 50.6648 11.7427 56.301 8.54293C59.5779 6.68473 63.4254 5.32 67.2266 6.16814C70.5344 6.91604 73.7188 8.95929 74.4898 12.4752C75.0295 14.9117 74.2045 17.8185 72.1227 19.2989C73.4797 18.6743 74.644 17.6257 75.4382 16.2224C75.469 16.1685 75.5615 16.207 75.5384 16.261C74.2276 19.6921 71.3208 21.2188 67.7124 21.0337C66.3245 20.9643 65.114 20.386 64.1039 19.5225C64.4663 22.2288 68.5682 22.7994 70.8736 22.4293C75.1837 21.7276 77.651 17.0397 77.0573 12.961C76.0396 5.9908 68.8227 3.13026 62.5156 3.87816C55.5146 4.70317 49.7627 9.42191 44.1187 13.2694C41.5666 15.0119 38.8988 16.8007 35.992 17.8879C33.5863 18.7823 30.6795 19.4839 28.2431 18.2348C25.1589 16.6542 24.0486 13.7628 25.3902 10.5245C25.9531 9.16747 27.472 8.24222 28.8753 8.01091C29.0604 7.98007 29.2377 7.97236 29.415 7.97236C27.179 7.17819 24.0949 8.92073 23.5089 11.0719C23.5012 11.1182 23.4241 11.1105 23.4318 11.0642C23.5706 7.38637 28.7442 5.85201 31.3349 8.08802C32.3681 8.98242 33.0543 10.5939 32.8693 11.9586C32.8538 12.0743 32.8307 12.1822 32.7999 12.2825C32.9695 12.2516 33.1391 12.136 33.2162 11.9278C34.0335 9.82285 32.9695 7.65624 31.0188 6.67702C29.2223 5.77491 26.7627 6.06019 25.0433 7.00086C20.5712 9.44504 20.2705 15.9295 23.7942 19.3606L23.8019 19.3451ZM26.8321 18.4816C36.7167 24.2412 45.4217 11.7042 53.8723 8.71255C53.9185 8.69713 53.9417 8.76653 53.9031 8.78966C45.815 13.0689 36.7399 25.1742 26.7472 18.6281C26.6624 18.5741 26.7395 18.4353 26.8321 18.4893V18.4816Z" fill="#E4C779"/>
<path d="M65.7846 5.8752C69.8171 5.06561 72.6545 8.18831 74.6669 11.1799C74.6978 11.2185 74.6284 11.2725 74.5976 11.2339C73.1634 9.48365 71.6214 7.74882 69.4085 7.00862C66.787 6.12964 63.9341 7.27078 62.978 9.8923C62.1993 12.0049 63.14 14.5416 65.3143 15.3204C66.4014 15.7136 67.7276 15.4283 68.4293 14.4877C68.9382 13.8092 68.9536 12.6526 68.5372 11.9818C69.4933 12.4753 69.6398 13.4699 69.4316 14.5108C69.4316 14.5262 69.447 14.5339 69.4547 14.5262C70.434 13.4853 69.8711 11.843 68.6683 11.2339C68.0746 10.9332 67.3344 10.7636 66.6867 11.0103C66.4631 11.0951 66.2241 11.2185 66.0005 11.3727C65.9157 11.1799 65.9388 10.9563 66.147 10.7944C67.2187 9.96169 68.8225 10.0157 69.8171 11.018C71.1819 12.3827 70.912 14.3258 69.8171 15.7676C67.4963 18.8132 62.6773 17.1015 61.4206 13.9634C60.0558 10.5631 62.2224 6.60768 65.8 5.88291L65.7846 5.8752Z" fill="#E4C779"/>
<path d="M5.13505 14.75C6.90072 10.8485 11.9664 10.9102 15.3436 12.3443C20.178 14.3953 23.2235 19.168 27.9654 21.3963C28.0117 21.4194 27.9808 21.4965 27.9269 21.4811C24.9892 20.633 22.4756 18.9907 20.0931 17.1171C17.4947 15.0738 14.9503 13.1848 11.5269 13.0074C8.75891 12.8609 5.79043 14.9504 6.49978 18.0037C6.70025 18.8596 7.49442 19.6075 8.35798 19.7463C7.64862 19.808 6.90072 19.4456 6.45352 18.9136C5.8444 18.1965 5.65935 17.3098 5.76729 16.3923C5.76729 16.3769 5.75187 16.3769 5.74416 16.3923C4.54906 18.5203 7.37105 21.5814 9.58392 20.3091C10.3935 19.8465 10.779 18.8904 10.4089 18.0037C10.2393 17.5951 9.83065 17.1864 9.36803 16.9783C10.355 16.5465 11.2879 17.5103 11.311 18.5049C11.3419 19.8234 10.5015 20.8257 9.31406 21.2806C7.74115 21.8821 5.95234 20.7949 5.05023 19.5844C4.04788 18.2351 4.52593 16.1301 5.14276 14.7577L5.13505 14.75Z" fill="#E4C779"/>
<path d="M150.784 22.1442H2.2977V23.347H150.784V22.1442Z" fill="#E4C779"/>
<path d="M4.50279 22.7377C4.50279 23.9867 3.49273 24.9891 2.25136 24.9891C1.01 24.9891 -6.10352e-05 23.979 -6.10352e-05 22.7377C-6.10352e-05 21.4963 1.01 20.4785 2.25136 20.4785C3.49273 20.4785 4.50279 21.4886 4.50279 22.7377Z" fill="#E4C779"/>
<path d="M152.989 22.5914C152.989 23.8328 151.979 24.8428 150.738 24.8428C149.496 24.8428 148.486 23.8328 148.486 22.5914C148.486 21.35 149.496 20.3323 150.738 20.3323C151.979 20.3323 152.989 21.3423 152.989 22.5914Z" fill="#E4C779"/>
<path d="M54.7821 9.05954C52.7465 10.0542 49.5699 12.9841 50.6647 15.5902C51.0425 15.3666 51.1736 14.9503 51.4435 14.6264C50.657 16.6157 51.3741 19.5379 52.9084 21.0106C53.2631 21.3499 53.0549 21.4038 53.5099 21.1802C54.0342 20.9181 54.5816 20.255 54.9517 19.8078C55.4297 19.2295 55.8075 18.605 56.1314 17.9265C56.3164 17.5409 56.4089 16.7622 56.6557 16.4923C57.0026 16.8393 56.8639 17.4638 56.8947 17.9265C58.059 17.4407 58.3982 15.8678 58.6681 14.7729C59.1153 12.961 59.5933 11.3881 60.4723 9.73806C61.1817 8.40416 62.2611 6.94691 63.6413 6.26068C64.2273 5.96769 64.8287 5.75951 65.4686 5.65928C65.9775 5.58217 66.602 5.70554 67.0801 5.51278C66.471 4.99619 65.3915 5.07329 64.6436 5.07329C63.2943 5.07329 61.999 5.27376 60.719 5.6747C59.6859 5.99082 58.7992 6.43031 57.8585 6.93148C57.2185 7.27845 56.5092 7.85673 55.8307 8.07262L54.7744 9.05183L54.7821 9.05954Z" fill="#E4C779"/>
<path d="M37.7961 17.171C36.547 17.996 34.9047 18.4046 33.432 18.6051C32.5145 18.7285 31.4042 18.7978 30.9801 17.7724C31.196 17.8418 31.4581 17.9266 31.6201 17.9883C30.2245 17.7724 30.0703 15.6906 30.1397 14.5571C30.8721 14.6034 31.5584 14.2256 32.2909 14.2487C33.031 14.2719 33.8561 14.7885 34.3341 15.2896C34.0488 15.1431 33.4705 14.7345 33.7327 14.3721C33.8638 14.1871 34.6502 14.2179 34.8661 14.241C36.2154 14.4184 37.5185 14.8347 38.9218 14.6805C41.2657 14.4107 43.5711 13.4854 45.5912 12.2826C45.1363 13.0845 44.2728 13.7553 43.5094 14.2487C42.5148 14.8887 41.258 15.999 40.1323 16.346L37.8038 17.171H37.7961Z" fill="#E4C779"/>
<path d="M98.2608 9.05954C100.296 10.0542 103.473 12.9841 102.378 15.5902C102 15.3666 101.862 14.9503 101.599 14.6264C102.386 16.6157 101.669 19.5379 100.142 21.0106C99.7874 21.3499 99.9956 21.4038 99.5407 21.1802C99.0164 20.9181 98.4689 20.255 98.0989 19.8078C97.6208 19.2295 97.243 18.605 96.9192 17.9265C96.7264 17.5409 96.6339 16.7622 96.3949 16.4923C96.0479 16.8393 96.1867 17.4638 96.1558 17.9265C94.9916 17.4407 94.6523 15.8678 94.3825 14.7729C93.9353 12.961 93.4572 11.3881 92.5782 9.73806C91.8689 8.40416 90.7894 6.94691 89.4093 6.26068C88.8233 5.96769 88.2219 5.75951 87.5819 5.65928C87.073 5.58217 86.4485 5.70554 85.9705 5.51278C86.5719 4.99619 87.659 5.07329 88.4069 5.07329C89.7562 5.07329 91.0439 5.27376 92.3315 5.6747C93.357 5.99082 94.2514 6.43031 95.192 6.93148C95.8397 7.27845 96.5414 7.85673 97.2199 8.07262L98.2685 9.05183L98.2608 9.05954Z" fill="#E4C779"/>
<path d="M115.247 17.1708C116.496 17.9958 118.138 18.4045 119.611 18.605C120.528 18.7283 121.639 18.7977 122.063 17.7722C121.847 17.8416 121.585 17.9265 121.423 17.9881C122.818 17.7722 122.972 15.6904 122.903 14.557C122.171 14.6033 121.484 14.2255 120.752 14.2486C120.019 14.2717 119.187 14.7883 118.716 15.2895C119.002 15.143 119.58 14.7344 119.318 14.372C119.187 14.1869 118.4 14.2178 118.184 14.2409C116.835 14.4182 115.532 14.8346 114.129 14.6804C111.785 14.4105 109.479 13.4853 107.467 12.2825C107.922 13.0843 108.785 13.7551 109.549 14.2486C110.543 14.8886 111.8 15.9989 112.926 16.3458L115.254 17.1708H115.247Z" fill="#E4C779"/>
<path d="M117.861 64.2579V65.5301L118.053 65.4376H152.071C152.31 65.4376 152.449 65.4685 152.488 65.5379C152.526 65.5995 152.549 65.8231 152.549 66.2009V66.4477H118.053L117.861 66.3783V67.6274H117.197V64.2579H117.861Z" fill="#E4C779"/>
<path d="M76.7181 0L77.3195 1.21824L78.6688 1.411L77.6818 2.35166L77.9132 3.69326L76.7181 3.06872L75.5075 3.69326L75.7465 2.35166L74.7673 1.411L76.1089 1.21824L76.7181 0Z" fill="#E4C779"/>
<path d="M34.8352 67.6197V66.3474L34.6502 66.44L0.755458 66.2781C0.516437 66.2781 0.37765 66.2395 0.339098 66.1778C0.300546 66.1161 0.285126 65.8925 0.285126 65.5147V65.268L34.6656 65.4299L34.8584 65.507V64.2579H35.5292L35.506 67.6274H34.843L34.8352 67.6197Z" fill="#E4C779"/>
<path d="M41.6821 62.0684H42.3606V66.6329C42.3606 67.3345 42.3066 67.8203 42.1987 68.0979C42.0908 68.3677 41.9057 68.5913 41.6513 68.7532C41.3968 68.9152 41.0884 69 40.726 69C40.4562 69 40.1863 68.946 39.9241 68.8381C39.6543 68.7301 39.369 68.5451 39.0452 68.2829L39.3998 67.7432C39.7545 67.9899 40.0475 68.1673 40.2788 68.2675C40.433 68.3369 40.5795 68.3677 40.7337 68.3677C40.9265 68.3677 41.1038 68.306 41.258 68.1904C41.42 68.0747 41.5279 67.9205 41.5896 67.7278C41.6513 67.535 41.6821 67.1649 41.6821 66.6098V62.0684Z" fill="#E4C779"/>
<path d="M47.2951 62.0684H51.1657V62.7315H47.9736V64.8518H51.1426V65.5149H47.9736V68.1673H51.1426V68.8303H47.3028V62.0761L47.2951 62.0684Z" fill="#E4C779"/>
<path d="M55.2446 62.0684H55.9385L57.3187 66.9336L59.254 62.0684H59.3928L61.3049 66.9336L62.7082 62.0684H63.3944L61.4514 68.8226H61.3281L59.3234 63.7107L57.2801 68.8226H57.1568L55.2446 62.0684Z" fill="#E4C779"/>
<path d="M67.9589 62.0684H71.8295V62.7315H68.6374V64.8518H71.8064V65.5149H68.6374V68.1673H71.8064V68.8303H67.9666V62.0761L67.9589 62.0684Z" fill="#E4C779"/>
<path d="M76.2861 62.0684H76.9646V68.175H79.563V68.8303H76.2861V62.0761V62.0684Z" fill="#E4C779"/>
<path d="M83.9193 62.0684H84.5979V68.175H87.1962V68.8303H83.9193V62.0761V62.0684Z" fill="#E4C779"/>
<path d="M91.5679 62.0684H95.4385V62.7315H92.2464V64.8518H95.4154V65.5149H92.2464V68.1673H95.4154V68.8303H91.5756V62.0761L91.5679 62.0684Z" fill="#E4C779"/>
<path d="M99.9337 62.0684H101.283C102.031 62.0684 102.54 62.0992 102.802 62.1609C103.203 62.2534 103.534 62.4539 103.781 62.7546C104.028 63.0553 104.159 63.4254 104.159 63.8726C104.159 64.2427 104.074 64.5665 103.897 64.8441C103.727 65.1217 103.473 65.3375 103.157 65.4763C102.841 65.6151 102.393 65.6922 101.83 65.6922L104.259 68.8303H103.419L100.99 65.6922H100.612V68.8303H99.9337V62.0761V62.0684ZM100.612 62.7315V65.0291H101.776C102.224 65.0368 102.563 64.9906 102.779 64.9058C102.995 64.821 103.164 64.6822 103.28 64.4971C103.396 64.3121 103.465 64.0962 103.465 63.8649C103.465 63.6336 103.403 63.4331 103.28 63.248C103.157 63.063 102.995 62.9319 102.794 62.8471C102.594 62.7623 102.262 62.7315 101.8 62.7315H100.605H100.612Z" fill="#E4C779"/>
<path d="M108.369 62.0684H109.148L110.875 64.8518L112.579 62.0684H113.358L111.222 65.5997V68.8303H110.551V65.5997L108.369 62.0684Z" fill="#E4C779"/>
</svg>
