<svg width="40" height="40" viewBox="0 0 40 40" fill="none" xmlns="http://www.w3.org/2000/svg">
<path d="M19.4932 40C19.0958 39.8223 18.6631 39.6983 18.3087 39.458C17.2159 38.7197 16.8184 37.3008 17.3126 36.0703C17.7921 34.876 19.0674 34.1406 20.3497 34.3184C21.6124 34.4932 22.6583 35.5674 22.7715 36.8047C22.9004 38.2061 22.1407 39.4121 20.8575 39.8457C20.7139 39.8945 20.5713 39.9473 20.4288 39.999H19.4932V40Z" fill="#E4C779"/>
<path d="M0 21.7969C0.186523 20.959 0.557617 20.2451 1.30078 19.7578C2.5 18.9717 4.12598 19.209 5.03223 20.3174C5.9668 21.4609 5.88867 23.1377 4.84082 24.1455C4.74414 24.2383 4.57031 24.2949 4.43359 24.292C3.67676 24.2725 2.96875 24.4346 2.29199 24.7734C2.16309 24.8379 1.96094 24.8428 1.8252 24.791C0.912109 24.4404 0.349609 23.7656 0.0888672 22.8271C0.0654297 22.7432 0.0302734 22.6611 0 22.5791C0 22.3184 0 22.0586 0 21.7978L0 21.7969Z" fill="#E4C779"/>
<path d="M14.6592 0C15.4717 0.213867 16.1787 0.580078 16.6475 1.32031C17.2969 2.3457 17.2295 3.69043 16.4668 4.63867C15.6924 5.60156 14.374 5.96875 13.2383 5.49902C12.9648 5.38574 12.8291 5.4375 12.6523 5.64062C12.1758 6.19043 11.6797 6.72168 11.1768 7.27637C10.8213 6.96387 10.4756 6.66016 10.1045 6.33496C10.6816 5.69629 11.2549 5.0625 11.8418 4.41211C11.5146 3.79199 11.3145 3.14844 11.4365 2.43457C11.6426 1.23242 12.4424 0.365234 13.6299 0.0751953C13.6895 0.0605469 13.7432 0.0253906 13.8008 0C14.0869 0 14.373 0 14.6582 0L14.6592 0ZM15.6709 2.8623C15.6729 2.07812 15.0098 1.41797 14.2334 1.42969C13.4609 1.44141 12.832 2.08203 12.8311 2.85645C12.8301 3.62402 13.4668 4.27637 14.2305 4.28906C15.0098 4.30273 15.6699 3.64844 15.6719 2.8623H15.6709Z" fill="#E4C779"/>
<path d="M27.9922 0C28.6006 0.392578 28.6494 0.692383 28.2275 1.30371C28.1767 1.37695 28.1709 1.52051 28.206 1.60645C28.6338 2.67871 28.6103 3.30664 28.0644 4.40918C28.6318 5.03906 29.2099 5.68164 29.7988 6.33594C29.4384 6.65234 29.0937 6.95605 28.7285 7.27734C28.2207 6.71582 27.7109 6.16309 27.2148 5.59863C27.0674 5.43066 26.9521 5.38965 26.7236 5.47754C26.4023 5.59961 26.0517 5.67383 25.708 5.69922C25.2793 5.73047 24.9677 5.42188 24.9521 5.03027C24.9375 4.65723 25.2129 4.3877 25.6133 4.29102C25.9443 4.21094 26.2978 4.11328 26.5703 3.92188C27.0654 3.57324 27.2021 2.86816 26.9638 2.30273C26.7304 1.74902 26.1201 1.38672 25.5224 1.44727C24.8984 1.50977 24.3711 1.99219 24.2636 2.60059C24.2412 2.72852 24.2324 2.85938 24.2011 2.98438C24.1045 3.37402 23.7968 3.60449 23.4433 3.56055C23.0625 3.51367 22.8213 3.22266 22.8125 2.79785C22.79 1.65625 23.5937 0.542969 24.7168 0.160156C24.873 0.106445 25.0293 0.0537109 25.1855 0C25.4716 0 25.7578 0 26.0429 0C26.3906 0.12207 26.7373 0.244141 27.0927 0.368164C27.2539 0.251953 27.4277 0.125977 27.6025 0C27.7324 0 27.8623 0 27.9922 0Z" fill="#E4C779"/>
<path d="M29.2315 10.0167C29.2256 8.85652 29.9444 7.77547 30.9991 7.35847C32.0625 6.93855 33.3047 7.19441 34.0928 7.99617C34.9131 8.83113 35.1455 10.1085 34.669 11.1729C34.5498 11.4405 34.3799 11.6202 34.085 11.7452C33.6612 11.9239 33.2041 12.1358 32.9004 12.463C32.4629 12.9337 31.9795 12.8897 31.4746 12.7872C30.1719 12.5216 29.2383 11.3497 29.2315 10.0177V10.0167Z" fill="#E4C779"/>
<path d="M7.70408 7.16502C9.21287 7.06151 10.539 8.23924 10.6699 9.79881C10.7959 11.2998 9.63865 12.6748 8.14842 12.8291C7.70701 12.875 7.37107 12.792 7.02634 12.4775C6.68943 12.1699 6.26463 11.9365 5.84275 11.7529C5.54099 11.6211 5.35642 11.4414 5.23142 11.1562C4.42576 9.32323 5.67478 7.30467 7.70408 7.166V7.16502Z" fill="#E4C779"/>
<path d="M4.15237 12.8682C5.69436 12.9072 6.81546 13.8506 7.07522 15.207C7.31936 16.4854 6.61624 17.8213 5.39944 18.3242C5.21585 18.4004 4.93753 18.3877 4.75491 18.3037C4.12893 18.0156 3.48636 17.832 2.79788 17.8838C2.50198 17.9063 2.30178 17.8057 2.12796 17.5889C1.36721 16.6406 1.18362 15.6006 1.70999 14.4922C2.22073 13.417 3.11428 12.8994 4.15237 12.8672V12.8682Z" fill="#E4C779"/>
<path d="M37.0985 19.2931C38.5008 19.3224 39.6307 20.296 39.868 21.6778C40.0946 22.9972 39.3573 24.3194 38.118 24.7755C37.9598 24.8341 37.7303 24.8263 37.5799 24.753C36.9227 24.4327 36.2401 24.2843 35.5116 24.2882C35.3426 24.2882 35.1307 24.2062 35.0126 24.088C34.1932 23.2677 33.9999 22.0567 34.4823 20.9454C34.9149 19.9503 35.993 19.2687 37.0985 19.2921V19.2931Z" fill="#E4C779"/>
<path d="M35.6133 12.8711C36.7559 12.8505 37.7969 13.5322 38.2549 14.5996C38.6924 15.6191 38.4796 16.873 37.71 17.6425C37.5821 17.7705 37.3585 17.8691 37.1807 17.8671C36.4503 17.8574 35.7549 17.9814 35.1212 18.3466C34.8243 18.5175 34.5938 18.3798 34.3575 18.2607C33.1944 17.6748 32.5733 16.372 32.8516 15.125C33.1485 13.7959 34.251 12.8955 35.6143 12.8711H35.6133Z" fill="#E4C779"/>
<path d="M26.3966 33.583C27.9493 33.6055 29.2013 34.8496 29.2218 36.3906C29.2413 37.9463 27.9571 39.2725 26.3985 39.2822C25.7169 39.2861 25.0968 39.0615 24.5645 38.6289C24.2667 38.3867 24.0743 38.127 24.1729 37.6709C24.3341 36.9297 24.1671 36.2021 23.9044 35.4932C23.8477 35.3398 23.8624 35.1084 23.9405 34.9668C24.4151 34.1016 25.3848 33.5703 26.3975 33.585L26.3966 33.583Z" fill="#E4C779"/>
<path d="M13.7149 33.5811C14.5928 33.6025 15.4092 34.0596 15.9629 34.9551C16.0469 35.0908 16.0586 35.3291 16.003 35.4824C15.7247 36.2422 15.6045 37.0088 15.7295 37.8184C15.7569 37.9932 15.6973 38.2393 15.5831 38.3682C14.7295 39.3311 13.3282 39.5479 12.1739 38.9219C11.0264 38.2998 10.459 36.9795 10.7911 35.7012C11.1172 34.4424 12.2247 33.5889 13.7168 33.5811H13.7149Z" fill="#E4C779"/>
<path d="M8.61227 35.7091C6.98629 35.6896 5.75387 34.4777 5.69918 32.9181C5.64742 31.4396 6.8027 30.1701 8.33981 30.0158C9.77242 29.8722 11.1142 30.9494 11.3564 32.424C11.3906 32.631 11.3525 32.7531 11.1699 32.8732C10.2783 33.4621 9.68356 34.2765 9.42379 35.3165C9.28903 35.8556 8.83981 35.5978 8.61129 35.7081L8.61227 35.7091Z" fill="#E4C779"/>
<path d="M31.2061 35.7061C31.1534 35.6992 30.9727 35.709 30.8252 35.6445C30.6954 35.5879 30.5381 35.4658 30.5039 35.3418C30.211 34.2969 29.627 33.4746 28.7364 32.8565C28.6299 32.7832 28.545 32.5811 28.5577 32.4483C28.6856 31.1074 29.9532 30.0059 31.3467 30.002C32.7452 29.9981 33.9815 31.0899 34.169 32.4238C34.4209 34.2139 33.0352 35.7256 31.2071 35.7051L31.2061 35.7061Z" fill="#E4C779"/>
<path d="M7.10455 28.4528C7.16021 28.697 7.06939 28.8542 6.78424 28.9782C5.80377 29.405 5.09185 30.1247 4.6651 31.1081C4.5606 31.3503 4.43267 31.4294 4.17193 31.4196C2.6524 31.3649 1.42584 30.112 1.4151 28.5837C1.40533 27.0612 2.65728 25.7614 4.18365 25.7087C5.70904 25.6559 7.0274 26.8776 7.10357 28.4509L7.10455 28.4528Z" fill="#E4C779"/>
<path d="M35.711 31.4151C35.4854 31.4658 35.3506 31.3633 35.2422 31.1162C34.8086 30.1221 34.0889 29.3926 33.0957 28.959C32.8252 28.8409 32.7715 28.6914 32.795 28.4229C32.9317 26.8506 34.1426 25.7022 35.6739 25.709C37.1749 25.7168 38.3995 26.9317 38.4834 28.4971C38.5645 30.0137 37.2881 31.3711 35.711 31.4141V31.4151Z" fill="#E4C779"/>
</svg>
