<svg width="35" height="40" viewBox="0 0 35 40" fill="none" xmlns="http://www.w3.org/2000/svg">
<path d="M34.0031 5.37884C33.8033 5.82362 33.6281 6.28348 33.3962 6.7113C33.2813 6.92426 33.0683 7.08823 32.8912 7.26539C23.3567 16.8018 13.8203 26.3363 4.28769 35.8764C3.74302 36.4229 3.17762 36.8922 2.34838 36.8715C1.46824 36.8508 0.804839 36.4569 0.401522 35.6823C-0.0168719 34.8794 0.0547451 34.0841 0.588104 33.3472C0.7483 33.1248 0.949958 32.9326 1.14408 32.7384C10.6786 23.2002 20.2149 13.6638 29.7475 4.12554C30.2922 3.57899 30.8576 3.11914 31.6869 3.12856C32.9062 3.14364 33.8787 4.1067 34.0012 5.37884H34.0031Z" fill="#E4C779"/>
<path d="M8.09463 16.2815C3.56956 16.257 -0.0357882 12.5951 2.02994e-05 8.05688C0.0358288 3.60531 3.75426 -0.047154 8.20394 -3.74868e-05C12.6668 0.047079 16.2872 3.73159 16.2684 8.20388C16.2495 12.6686 12.5688 16.306 8.09463 16.2815ZM8.16059 4.47226C6.11951 4.45906 4.47985 6.05914 4.43274 8.104C4.38751 10.113 6.11385 11.8601 8.13986 11.8545C10.1433 11.8488 11.8168 10.1715 11.8244 8.16053C11.8319 6.13264 10.1941 4.48357 8.16059 4.47226Z" fill="#E4C779"/>
<path d="M25.9234 23.7222C30.4221 23.7335 34.0312 27.3502 34.0331 31.8526C34.0369 36.3438 30.326 40.0358 25.8442 39.9981C21.387 39.9604 17.7477 36.274 17.7647 31.8111C17.7817 27.337 21.4379 23.7109 25.9215 23.7222H25.9234ZM25.8744 35.5277C27.9192 35.5409 29.5551 33.9484 29.6023 31.8978C29.6494 29.8831 27.9287 28.1436 25.897 28.1493C23.888 28.1549 22.2182 29.8266 22.2106 31.8394C22.2031 33.8692 23.839 35.5164 25.8744 35.5277Z" fill="#E4C779"/>
</svg>
