<svg width="42" height="45" viewBox="0 0 42 45" fill="none" xmlns="http://www.w3.org/2000/svg">
<path d="M38.1999 43.6558V23.6491H41.6038V14.6177H37.9649C40.6394 13.9255 41.5349 11.9655 41.547 11.9333C41.6929 11.5912 41.5349 11.1967 41.1945 11.0519C40.8541 10.907 40.453 11.0639 40.3071 11.402C40.2909 11.4382 38.6254 15.0806 32.0244 12.7261C30.8776 12.3196 29.6053 12.2271 28.3288 12.3237C30.0469 11.5066 31.6273 10.6413 32.4783 9.8847C34.0262 8.51228 33.6696 6.01295 32.4256 4.391C31.2261 2.8254 28.8029 1.65019 25.934 3.48948C23.2676 5.19997 21.8048 8.15006 21.0146 10.593C20.346 6.52409 18.9521 2.2056 16.8125 0.631949C15.998 0.0362956 15.0944 -0.14884 14.1989 0.100691C11.9823 0.716467 10.4627 1.9279 9.92785 3.51765C9.57531 4.56004 9.48211 6.23431 11.0584 8.303C12.0471 9.60297 13.7288 11.0599 15.3983 12.3438C12.5456 11.4825 8.89454 10.8023 5.04497 11.1927C4.67217 11.2289 4.40472 11.559 4.44119 11.9292C4.47766 12.2995 4.81399 12.5651 5.18274 12.5289C10.1669 12.0299 14.9161 13.4747 17.7648 14.6177H0V23.6491H3.40383V44.996H38.1999V43.6558ZM40.2503 22.3089H25.1154V15.962H40.2503V22.3089ZM31.5665 13.9939C32.3648 14.2797 33.1023 14.4809 33.7912 14.6218H24.147C26.3473 13.8651 29.3216 13.193 31.5706 13.9939H31.5665ZM26.6634 4.62444C27.49 4.09318 28.2194 3.89999 28.8434 3.89999C30.2009 3.89999 31.0519 4.82567 31.3477 5.21204C32.3243 6.48786 32.4256 8.13799 31.5746 8.8906C29.7795 10.4804 24.0376 12.7744 21.6346 13.6921C22.0277 11.5469 23.2514 6.80984 26.6593 4.62444H26.6634ZM12.1282 7.49806C11.1638 6.23029 10.8436 5.00276 11.2002 3.94829C11.5933 2.79723 12.7846 1.89168 14.5554 1.39664C14.6973 1.35639 14.835 1.33627 14.9728 1.33627C15.3213 1.33627 15.6617 1.46103 16.0021 1.71459C18.1173 3.26812 19.7139 9.04756 20.0624 14.01C18.0606 12.6859 13.8544 9.76798 12.1282 7.49404V7.49806ZM1.34938 22.3089V15.962H16.4843V22.3089H1.34938ZM16.4883 43.6558H4.75726V23.6491H16.4883V43.6558ZM23.762 43.6558H17.8377V15.962H23.762V43.6558ZM36.8465 43.6558H25.1154V23.6491H36.8465V43.6558Z" fill="#E4C779"/>
<rect x="0.566345" y="15.1876" width="16.424" height="7.875" fill="#E4C779"/>
<rect x="24.9191" y="15.1876" width="16.424" height="7.875" fill="#E4C779"/>
<rect x="24.9191" y="26.4376" width="12.4596" height="17.4375" fill="#E4C779"/>
<rect x="4.53076" y="26.4376" width="12.4596" height="17.4375" fill="#E4C779"/>
</svg>
