<svg width="100" height="100" viewBox="0 0 100 100" fill="none" xmlns="http://www.w3.org/2000/svg">
<path d="M59.6291 74.0594C57.4202 74.0416 55.1737 74.0456 53.0002 74.0495C52.0242 74.0495 51.0462 74.0515 50.0721 74.0535H49.8607C49.669 74.0535 49.4793 74.0535 49.2877 74.0535C48.278 74.0614 47.2506 74.0614 46.2567 74.0594C45.909 74.0594 45.5573 74.0594 45.2056 74.0594C43.2397 74.0594 41.2302 74.0732 39.2584 74.1779C38.1638 74.2352 37.1502 74.7746 36.4013 75.6954C35.6011 76.6833 35.2336 77.9913 35.4213 79.1946C35.8145 81.7217 37.6481 83.1739 40.4518 83.1798C47.0471 83.1936 53.7807 83.1857 59.5738 83.1798C60.0125 83.1798 60.4807 83.1383 60.9648 83.0613C63.2034 82.6997 64.9125 80.4137 64.6201 78.1691C64.2842 75.5828 62.4645 74.0851 59.6232 74.0614L59.6291 74.0594ZM60.9134 80.5361C60.6171 80.7653 60.2397 80.8049 59.8741 80.8049C59.7813 80.8049 59.6884 80.8029 59.5995 80.8009C59.5205 80.7989 59.4355 80.793 59.3683 80.797C54.2648 80.8029 49.1632 80.8029 44.0616 80.8029H40.6612H40.5348C40.4083 80.8029 40.2759 80.8049 40.1376 80.797C38.6913 80.7041 37.7587 79.8466 37.7607 78.6097C37.7607 77.3314 38.7328 76.466 40.1732 76.4541C42.5264 76.4363 44.9171 76.4383 47.2289 76.4422C48.0014 76.4422 48.7739 76.4442 49.5465 76.4442H50.0227L52.3225 76.4403C54.6659 76.4403 57.0922 76.4383 59.477 76.4482C59.5383 76.4482 59.6015 76.4482 59.6667 76.4482C60.1725 76.4442 60.7494 76.4363 61.1288 76.7841C61.3916 77.0231 62.2412 77.8708 62.1878 78.7401C62.1542 79.2993 61.7255 79.9039 60.9134 80.5342V80.5361Z" fill="#E4C779"/>
<path d="M35.0577 23.324H33.9117C37.7093 27.7972 41.5048 32.2745 45.3004 36.7497L47.379 39.2017L46.8416 37.6685C45.1759 32.9166 43.5083 28.1647 41.8486 23.4129C41.8289 23.3576 41.8151 23.3358 41.8111 23.3299C41.8071 23.3299 41.7775 23.324 41.6965 23.324H41.6926C39.4816 23.3319 37.2687 23.3299 35.0577 23.3279V23.324Z" fill="#E4C779"/>
<path d="M56.1951 23.3378H43.8896L49.0683 38.0893L50.0226 38.929L51.0461 38.0103L56.1951 23.3378Z" fill="#E4C779"/>
<path d="M53.105 38.0557C52.9706 38.4391 52.8362 38.8204 52.7039 39.2037L66.1671 23.326H64.6971C62.6284 23.326 60.4906 23.3279 58.3883 23.3181C58.3172 23.3141 58.2796 23.326 58.2698 23.3299C58.2698 23.3319 58.2579 23.3536 58.2362 23.4149C56.8808 27.2954 55.5194 31.1759 54.1581 35.0545L53.105 38.0557Z" fill="#E4C779"/>
<path d="M45.0712 21.4587H54.9267L49.9989 17.019L45.0712 21.4587Z" fill="#E4C779"/>
<path d="M47.4541 16.5765H39.9005L42.6825 20.868L47.4541 16.5765Z" fill="#E4C779"/>
<path d="M52.5655 16.5725L57.3806 20.9035L60.1863 16.5725H52.5655Z" fill="#E4C779"/>
<path d="M37.9997 17.2048L34.0599 21.4627H40.76L37.9997 17.2048Z" fill="#E4C779"/>
<path d="M66.0308 21.4647L62.0851 17.2048L59.3248 21.4647H66.0308Z" fill="#E4C779"/>
<path d="M99.853 89.0618C99.8155 85.5073 99.8194 81.8955 99.8214 78.4022C99.8234 75.6242 99.8273 72.7533 99.8095 69.9299C99.8076 69.4577 99.6199 68.8788 99.3097 68.3789C98.958 67.8098 98.545 67.2507 98.1439 66.7113C97.7784 66.2173 97.401 65.7076 97.0592 65.1761C95.9112 63.3919 94.7554 61.5721 93.639 59.8117C92.1413 57.4545 90.5943 55.0183 89.0492 52.6394C88.4683 51.7464 88.2114 50.8414 88.2134 49.7053C88.2332 38.2771 88.2371 26.2127 88.2253 11.7398C88.2213 6.41299 85.3959 2.27956 80.6697 0.681115C79.4269 0.260264 78.0122 0.0369953 76.5778 0.0330436C58.4278 -0.0104246 40.3628 -0.00252125 23.4181 0.00933371C16.7082 0.0132854 11.8279 4.92321 11.8181 11.6825C11.7983 23.2055 11.8023 35.3628 11.8279 49.9424C11.8279 50.879 11.5889 51.693 11.0692 52.5011C9.41348 55.0756 7.74193 57.7015 6.12768 60.2424C4.84537 62.2597 3.56108 64.2771 2.27285 66.2904C2.06341 66.6164 1.82038 66.9128 1.58723 67.1993C1.30271 67.5451 1.034 67.8731 0.842347 68.2287C0.498553 68.8669 0.0697984 69.6612 0.0618951 70.3468C0.00854774 75.5136 -0.0408479 82.3124 0.0520159 89.0697C0.125122 94.363 4.03133 98.8817 9.3384 99.8163C9.5182 99.8479 9.67232 99.9131 9.80865 99.9704C9.83236 99.9802 9.85607 99.9901 9.87978 100H90.209C92.1611 99.4962 93.8959 98.9805 95.3461 97.8424C98.4185 95.4339 99.8945 92.563 99.857 89.0638L99.853 89.0618ZM86.7572 53.4416C89.1243 57.1364 91.4498 60.7897 93.9117 64.6584L95.601 67.3119H94.702C94.2219 67.3119 93.7556 67.3119 93.2992 67.3139C92.8625 67.3139 92.4338 67.3139 92.0109 67.3139C91.0388 67.3139 90.0964 67.308 89.1559 67.2862C88.7252 67.2764 88.1225 66.8614 88.0316 66.3932C86.9232 60.6475 82.7898 57.1443 79.3123 54.7358L79.2273 54.6765C78.8559 54.4216 78.435 54.1312 78.0754 53.6669L77.457 52.8706H79.9406C81.8631 52.8686 83.8508 52.8667 85.8088 52.8844C86.1981 52.8884 86.5893 53.1729 86.7592 53.4396L86.7572 53.4416ZM49.8053 39.4231C55.1302 39.3638 60.1922 41.3239 64.0787 44.9396C67.6747 48.2827 69.9805 52.7975 70.4053 57.3241L70.4705 58.0097L69.8007 57.8517C69.5102 57.7825 69.2198 57.7173 68.9353 57.6521C68.1074 57.4644 67.3269 57.2886 66.5406 57.0475C66.1039 56.9151 65.9024 56.3994 65.7601 55.9154C63.9147 49.5591 59.6884 45.5917 53.1978 44.1216C45.2471 42.3217 36.674 47.4509 34.4749 55.3206C34.2042 56.2908 33.7201 57.2965 32.1869 57.415C31.7937 57.4446 31.3807 57.5553 30.9441 57.6719C30.7228 57.7311 30.4956 57.7924 30.2585 57.8457L29.6025 57.9959L29.6558 57.3261C30.3237 48.8142 38.2171 39.5496 49.8073 39.4251L49.8053 39.4231ZM61.358 40.0514C60.3286 39.4785 59.2478 39.0141 58.1018 38.5202C57.5782 38.2949 53.5337 37.0185 50.0227 37.0185C46.1402 37.0185 42.799 38.1882 42.4236 38.3344C41.6333 38.6427 40.8864 38.9351 40.1633 39.2769C35.5774 41.4483 32.0703 44.7895 29.7428 49.2094C29.2547 50.1341 28.66 50.5233 27.7096 50.5233C27.6602 50.5233 27.6108 50.5233 27.5595 50.5194C26.1586 50.4621 24.7637 50.4739 23.2877 50.4858C22.6752 50.4897 22.0509 50.4957 21.4147 50.4957H20.9207V39.759C20.9207 30.4904 20.9207 21.2198 20.9207 11.9512C20.9207 9.87266 21.6932 9.10011 23.7718 9.10011C41.2934 9.09814 58.8171 9.09814 76.3407 9.10011C78.2928 9.10011 79.1246 9.91415 79.1246 11.8248C79.1266 21.3522 79.1266 30.8777 79.1266 40.4051V50.4917H78.6326C78.1051 50.4917 77.5795 50.4917 77.0559 50.4937C75.1809 50.4976 73.4085 50.5016 71.5967 50.4581C71.0692 50.4463 70.674 49.8417 70.4843 49.4821C68.3445 45.404 65.2741 42.2308 61.356 40.0514H61.358ZM26.8541 54.1509L27.6464 53.8249L27.5318 54.6745C27.4903 54.9808 27.4508 55.287 27.4113 55.5933C27.3006 56.4488 27.186 57.334 27.026 58.1994C26.9272 58.725 26.2989 59.0589 26.1072 59.1478C25.6054 59.3849 25.0897 59.6082 24.5898 59.8235C23.9951 60.0804 23.3786 60.3471 22.7918 60.6336C22.3433 60.8529 21.6518 61.3509 22.0509 62.236C22.1951 62.5541 22.4184 62.7734 22.697 62.8742C23.0151 62.9888 23.3944 62.9434 23.7916 62.7478C28.3044 60.519 33.1432 59.5252 37.6974 58.7823C38.0452 58.725 38.3514 58.6697 38.5905 58.5472C39.0944 58.2903 39.3038 57.8932 39.2109 57.3636C39.1062 56.763 38.7743 56.4409 38.1993 56.3816C38.0353 56.3639 37.8555 56.3698 37.6658 56.3737C37.567 56.3757 37.4682 56.3797 37.3695 56.3797H36.749L36.8893 55.7751C38.1143 50.4739 44.0043 46.1607 50.0167 46.1607C56.0173 46.1607 61.9033 50.4482 63.1382 55.7197L63.2706 56.2848L62.6917 56.3263C60.9845 56.4468 60.8225 56.9448 60.8008 57.4861C60.781 57.9821 60.9035 58.5353 62.6304 58.8238C67.0938 59.5746 71.8338 60.5665 76.2439 62.7399C76.641 62.9355 77.0223 62.9789 77.3444 62.8624C77.625 62.7616 77.8462 62.5443 77.9885 62.2341C78.2829 61.582 78.0162 60.9972 77.2535 60.6257C76.7516 60.3807 76.2221 60.1555 75.7123 59.9362C75.1255 59.6852 74.517 59.4244 73.9302 59.13C73.4955 58.9107 73.1043 58.399 73.0015 57.9109C72.8415 57.1562 72.7407 56.3876 72.6419 55.6447C72.6044 55.3562 72.5649 55.0677 72.5234 54.7812L72.4068 53.9771L73.1734 54.2438C77.949 55.9015 84.9237 61.1473 85.5974 66.6836L85.6646 67.2368H14.4538L14.4914 66.7093C14.7976 62.321 20.1146 56.925 26.8561 54.1588L26.8541 54.1509ZM51.2437 2.37637H59.8129C65.3294 2.3744 70.8459 2.37242 76.3624 2.37835C82.0291 2.38428 85.8385 6.16996 85.8444 11.7971C85.8523 20.6291 85.8503 29.6112 85.8483 38.2949V50.4482H81.4976V39.0062C81.4976 30.0202 81.4976 21.0341 81.4976 12.048C81.4976 8.46587 79.7509 6.72517 76.1569 6.72517C70.6957 6.72517 65.2345 6.72517 59.7734 6.72517H51.2457V2.37835L51.2437 2.37637ZM19.2274 3.34848C20.4307 2.76956 21.8869 2.42972 23.2245 2.41589C29.4602 2.35662 35.7987 2.36649 41.9316 2.37242C43.8838 2.3744 45.8359 2.37835 47.788 2.37835C47.9006 2.37835 48.0014 2.3902 48.116 2.40404C48.1693 2.40996 48.2286 2.41787 48.2958 2.42379L48.7403 2.46726V6.72122H40.3668C34.8779 6.72122 29.3891 6.72122 23.9002 6.72122C20.2983 6.72122 18.5458 8.45994 18.5458 12.0322C18.5458 21.042 18.5458 30.0518 18.5458 39.0616V50.4403H14.195V48.9348C14.195 45.5047 14.195 42.0767 14.195 38.6466C14.195 29.8661 14.1989 20.7871 14.1871 11.8584C14.1831 7.82373 15.8764 4.95878 19.2254 3.34651L19.2274 3.34848ZM5.01134 66.5947C5.06271 66.492 5.10816 66.3971 5.14965 66.3102C5.23856 66.1245 5.31364 65.9644 5.41441 65.8063L5.53889 65.6088C8.00472 61.7263 10.5535 57.7114 13.0786 53.7736C13.2446 53.5147 13.6892 52.9121 14.2365 52.9002C16.1412 52.8627 18.0755 52.8647 19.9466 52.8686C20.4919 52.8686 21.0392 52.8686 21.5866 52.8686H21.9382L22.2445 53.7439L21.9205 53.9553C21.7426 54.0719 21.5628 54.1885 21.383 54.3051C21.0076 54.5481 20.6204 54.797 20.2509 55.0539C17.3286 57.085 15.3508 59.0905 14.027 61.3706C13.2229 62.7537 12.6973 64.3561 12.1895 65.9071L12.1046 66.164C11.8694 66.8772 11.5395 67.3218 10.6405 67.3218C10.6207 67.3218 10.601 67.3218 10.5812 67.3218C9.39768 67.2961 8.22206 67.302 6.97926 67.306C6.47938 67.306 5.97159 67.31 5.45195 67.31H4.64976L5.01134 66.5927V66.5947ZM90.9559 97.2832C90.1616 97.5026 89.2329 97.6152 88.1976 97.6152C73.4441 97.6251 58.0722 97.629 40.4024 97.629C31.5408 97.629 22.1042 97.629 11.8714 97.6251C6.21264 97.6251 2.40325 93.8275 2.39139 88.1806C2.38349 83.9187 2.38547 79.5858 2.38744 75.395V71.5165C2.38942 69.9694 2.66406 69.6967 4.22299 69.6928C5.02517 69.6928 5.82933 69.6928 6.69079 69.6928H8.44335V75.0058C8.44335 78.7263 8.44335 82.4487 8.44335 86.1712V86.272C8.44335 86.592 8.44335 86.8943 8.48484 87.1808C8.57968 87.8171 8.91558 88.1332 9.54191 88.1727C10.1762 88.2142 10.5535 87.9396 10.7076 87.335C10.8025 86.9694 10.8143 86.5506 10.8163 86.1909C10.8222 82.3025 10.8222 78.4161 10.8222 74.5276V69.7659H15.1809V71.722C15.1809 72.8363 15.1809 73.9309 15.1809 75.0256C15.1809 76.0293 15.6452 76.2644 16.0997 76.3612C16.483 76.4442 16.8149 76.3829 17.0599 76.1893C17.3622 75.9502 17.5361 75.5077 17.546 74.9485C17.5677 73.8895 17.5618 72.8344 17.5578 71.718C17.5559 71.2201 17.5539 70.7123 17.5539 70.1907V69.6967H95.7848C97.3911 69.6967 97.6519 69.9615 97.6519 71.5896C97.6519 73.1525 97.6519 74.7153 97.6559 76.2782C97.6598 80.2358 97.6638 84.3277 97.648 88.3545C97.6302 92.7942 95.1268 96.1333 90.9539 97.2872L90.9559 97.2832Z" fill="#E4C779"/>
</svg>
