<?xml version="1.0"?>
<svg xmlns="http://www.w3.org/2000/svg" xmlns:xlink="http://www.w3.org/1999/xlink" version="1.1" xml:space="preserve">
  <defs>
    <symbol id="email" width="100%" height="100%" viewBox="0 0 56 56" fill="none">
      <path d="M4.66675 28.0002C4.66675 19.2006 4.66675 14.8008 7.40042 12.0672C10.1341 9.3335 14.5339 9.3335 23.3334 9.3335H32.6667C41.4663 9.3335 45.8661 9.3335 48.5997 12.0672C51.3334 14.8008 51.3334 19.2006 51.3334 28.0002C51.3334 36.7997 51.3334 41.1995 48.5997 43.9332C45.8661 46.6668 41.4663 46.6668 32.6667 46.6668H23.3334C14.5339 46.6668 10.1341 46.6668 7.40042 43.9332C4.66675 41.1995 4.66675 36.7997 4.66675 28.0002Z" stroke="currentColor" stroke-width="2" />
      <path d="M14 18.6665L19.0374 22.8644C23.3229 26.4356 25.4657 28.2212 28 28.2212C30.5343 28.2212 32.6771 26.4356 36.9626 22.8644L42 18.6665" stroke="currentColor" stroke-width="2" stroke-linecap="round" />

    </symbol>
    <symbol id="phone" width="100%" height="100%" viewBox="0 0 56 56" fill="none">
      <path d="M31.5001 4.66699C31.5001 4.66699 36.9448 5.16197 43.8745 12.0916C50.8041 19.0213 51.2991 24.466 51.2991 24.466" stroke="currentColor" stroke-width="2" stroke-linecap="round" />
      <path d="M33.1498 12.9165C33.1498 12.9165 35.4597 13.5765 38.9245 17.0413C42.3893 20.5061 43.0493 22.816 43.0493 22.816" stroke="currentColor" stroke-width="2" stroke-linecap="round" />
      <path d="M35.235 35.0635L34.5099 34.3748L35.235 35.0635ZM36.2977 33.9446L37.0228 34.6333L36.2977 33.9446ZM41.9366 33.1621L41.4377 34.0288L41.9366 33.1621ZM46.3944 35.728L45.8956 36.5946L46.3944 35.728ZM47.6506 43.7697L48.3756 44.4584L47.6506 43.7697ZM44.336 47.2593L43.6109 46.5707L44.336 47.2593ZM41.2446 48.9139L41.3429 49.9091L41.2446 48.9139ZM18.2358 38.4421L18.9609 37.7534L18.2358 38.4421ZM7.00674 16.2539L6.00817 16.3074L6.00818 16.3074L7.00674 16.2539ZM22.1142 19.8406L22.8393 20.5293L22.1142 19.8406ZM22.4799 13.2839L23.2964 12.7066L22.4799 13.2839ZM19.5376 9.12244L18.7211 9.69975V9.69975L19.5376 9.12244ZM12.2767 8.42016L13.0018 9.10885L12.2767 8.42016ZM8.61431 12.276L7.88926 11.5873L7.88926 11.5873L8.61431 12.276ZM25.8139 30.4638L26.539 29.7751L25.8139 30.4638ZM35.9601 35.7522L37.0228 34.6333L35.5727 33.256L34.5099 34.3748L35.9601 35.7522ZM41.4377 34.0288L45.8956 36.5946L46.8933 34.8613L42.4354 32.2954L41.4377 34.0288ZM46.9255 43.081L43.6109 46.5707L45.061 47.948L48.3756 44.4584L46.9255 43.081ZM41.1464 47.9187C37.6036 48.2684 28.6266 47.9296 18.9609 37.7534L17.5108 39.1308C27.6634 49.8196 37.2816 50.3099 41.3429 49.9091L41.1464 47.9187ZM18.9609 37.7534C9.78809 28.0962 8.2035 19.8929 8.0053 16.2003L6.00818 16.3074C6.23066 20.4526 7.99525 29.1127 17.5108 39.1308L18.9609 37.7534ZM22.17 21.2339L22.8393 20.5293L21.3892 19.1519L20.7199 19.8565L22.17 21.2339ZM23.2964 12.7066L20.3541 8.54512L18.7211 9.69975L21.6634 13.8612L23.2964 12.7066ZM11.5517 7.73148L7.88926 11.5873L9.33937 12.9647L13.0018 9.10885L11.5517 7.73148ZM21.445 20.5452C20.7199 19.8565 20.719 19.8575 20.7181 19.8585C20.7177 19.8588 20.7168 19.8598 20.7161 19.8605C20.7148 19.8619 20.7135 19.8633 20.7121 19.8648C20.7094 19.8678 20.7065 19.8709 20.7034 19.8743C20.6973 19.881 20.6906 19.8885 20.6834 19.8968C20.669 19.9134 20.6524 19.9332 20.6341 19.9562C20.5976 20.0024 20.5543 20.0617 20.5076 20.1346C20.414 20.2809 20.3076 20.4811 20.2159 20.7389C20.0303 21.2604 19.9163 21.9849 20.0544 22.9273C20.3274 24.7906 21.5749 27.4529 25.0889 31.1525L26.539 29.7751C23.158 26.2155 22.221 23.9185 22.0333 22.6373C21.941 22.0074 22.0276 21.6133 22.1001 21.4094C22.1375 21.3044 22.1746 21.2402 22.1922 21.2126C22.2011 21.1987 22.2053 21.1938 22.2024 21.1974C22.201 21.1992 22.1978 21.2032 22.1925 21.2093C22.1898 21.2123 22.1867 21.2159 22.1829 21.22C22.1811 21.222 22.1791 21.2242 22.1769 21.2265C22.1758 21.2277 22.1747 21.2289 22.1736 21.2301C22.173 21.2307 22.1721 21.2317 22.1718 21.232C22.1709 21.2329 22.17 21.2339 21.445 20.5452ZM25.0889 31.1525C28.5969 34.8457 31.1398 36.1789 32.9498 36.4729C33.8702 36.6223 34.5838 36.4992 35.0995 36.2958C35.3532 36.1958 35.5493 36.0801 35.6915 35.9792C35.7625 35.9289 35.8199 35.8823 35.8644 35.8433C35.8866 35.8238 35.9057 35.8062 35.9216 35.7908C35.9295 35.7832 35.9367 35.7761 35.9431 35.7696C35.9463 35.7664 35.9493 35.7633 35.9522 35.7604C35.9536 35.7589 35.9549 35.7575 35.9563 35.7561C35.9569 35.7555 35.9579 35.7545 35.9582 35.7541C35.9591 35.7531 35.9601 35.7522 35.235 35.0635C34.5099 34.3748 34.5109 34.3738 34.5118 34.3729C34.512 34.3726 34.5129 34.3716 34.5135 34.371C34.5147 34.3698 34.5158 34.3687 34.5169 34.3675C34.5191 34.3653 34.5212 34.3631 34.5232 34.3611C34.5271 34.3572 34.5305 34.3538 34.5335 34.3509C34.5394 34.3452 34.5434 34.3416 34.5455 34.3398C34.5496 34.3362 34.546 34.3397 34.5345 34.3479C34.5116 34.3641 34.4565 34.3995 34.3657 34.4353C34.1922 34.5037 33.8434 34.5918 33.2704 34.4987C32.0937 34.3076 29.926 33.341 26.539 29.7751L25.0889 31.1525ZM20.3541 8.54512C18.2397 5.55457 14.0611 5.08953 11.5517 7.73148L13.0018 9.10885C14.5734 7.45423 17.275 7.65443 18.7211 9.69975L20.3541 8.54512ZM8.0053 16.2003C7.94149 15.0114 8.4639 13.8864 9.33937 12.9647L7.88926 11.5873C6.74117 12.796 5.90755 14.4327 6.00817 16.3074L8.0053 16.2003ZM43.6109 46.5707C42.8776 47.3426 42.0401 47.8305 41.1464 47.9187L41.3429 49.9091C42.8543 49.7599 44.1087 48.9507 45.061 47.948L43.6109 46.5707ZM22.8393 20.5293C24.8359 18.4272 24.9938 15.1073 23.2964 12.7066L21.6634 13.8612C22.8427 15.5292 22.6898 17.7826 21.3892 19.1519L22.8393 20.5293ZM45.8956 36.5946C48.2169 37.9308 48.7015 41.2113 46.9255 43.081L48.3756 44.4584C51.0745 41.617 50.2974 36.8206 46.8933 34.8613L45.8956 36.5946ZM37.0228 34.6333C38.1663 33.4294 39.9486 33.1716 41.4377 34.0288L42.4354 32.2954C40.1652 30.9887 37.3673 31.3665 35.5727 33.256L37.0228 34.6333Z" fill="currentColor" />

    </symbol>
    <symbol id="menu" width="100%" height="100%" viewBox="0 0 20 18">
      <path fill-rule="evenodd" clip-rule="evenodd" d="M0.199951 2.0001C0.199951 1.2269 0.826752 0.600098 1.59995 0.600098H18.4C19.1732 0.600098 19.8 1.2269 19.8 2.0001C19.8 2.7733 19.1732 3.4001 18.4 3.4001H1.59995C0.826752 3.4001 0.199951 2.7733 0.199951 2.0001Z" fill="currentColor" />
      <path fill-rule="evenodd" clip-rule="evenodd" d="M0.199951 9.0001C0.199951 8.2269 0.826752 7.6001 1.59995 7.6001H18.4C19.1732 7.6001 19.8 8.2269 19.8 9.0001C19.8 9.7733 19.1732 10.4001 18.4 10.4001H1.59995C0.826752 10.4001 0.199951 9.7733 0.199951 9.0001Z" fill="currentColor" />
      <path fill-rule="evenodd" clip-rule="evenodd" d="M0.199951 16.0001C0.199951 15.2269 0.826752 14.6001 1.59995 14.6001H18.4C19.1732 14.6001 19.8 15.2269 19.8 16.0001C19.8 16.7733 19.1732 17.4001 18.4 17.4001H1.59995C0.826752 17.4001 0.199951 16.7733 0.199951 16.0001Z" fill="currentColor" />
    </symbol>
    <symbol id="arrow-right" width="100%" height="100%" viewBox="0 0 20 20">
      <path fill-rule="evenodd" clip-rule="evenodd" d="M11.2248 4.55806C11.4688 4.31398 11.8646 4.31398 12.1086 4.55806L17.1086 9.55806C17.3527 9.80214 17.3527 10.1979 17.1086 10.4419L12.1086 15.4419C11.8646 15.686 11.4688 15.686 11.2248 15.4419C10.9807 15.1979 10.9807 14.8021 11.2248 14.5581L15.1578 10.625H3.33337C2.9882 10.625 2.70837 10.3452 2.70837 10C2.70837 9.65482 2.9882 9.375 3.33337 9.375H15.1578L11.2248 5.44194C10.9807 5.19786 10.9807 4.80214 11.2248 4.55806Z" fill="currentColor" />

    </symbol>
    <symbol id="arrow-right-alt" width="100%" height="100%" viewBox="0 0 32 19">
      <path fill-rule="evenodd" clip-rule="evenodd" d="M26.4833 9.93584H0V8.61106H26.4626C25.5887 8.19476 24.8301 7.67809 24.1629 7.05973C22.3987 5.42479 21.3458 3.14178 20.4255 0.361747L21.564 0C22.4707 2.73915 23.449 4.784 24.9854 6.2079C26.3522 7.47476 28.2191 8.30143 31.0311 8.61106H32V8.69484V9.86484V9.93584H31.1493C28.2707 10.2349 26.3707 11.0641 24.9849 12.3459C23.4489 13.7666 22.4707 15.8081 21.564 18.5471L20.4255 18.1853C21.3459 15.4051 22.3989 13.1251 24.1633 11.4933C24.8357 10.8714 25.6009 10.3528 26.4833 9.93584Z" fill="currentColor" />

    </symbol>
    <symbol id="arrow-left" width="100%" height="100%" viewBox="0 0 15 10">
      <path d="M2 5L1.29289 4.29289L0.585786 5L1.29289 5.70711L2 5ZM14 6C14.5523 6 15 5.55228 15 5C15 4.44772 14.5523 4 14 4V6ZM5.29289 0.292893L1.29289 4.29289L2.70711 5.70711L6.70711 1.70711L5.29289 0.292893ZM1.29289 5.70711L5.29289 9.70711L6.70711 8.29289L2.70711 4.29289L1.29289 5.70711ZM2 6H14V4H2V6Z" fill="currentColor" />
    </symbol>
    <symbol id="arrow-left-alt" width="100%" height="100%" viewBox="0 0 32 19">
      <path fill-rule="evenodd" clip-rule="evenodd" d="M5.51674 9.93584H32V8.61106H5.53737C6.41131 8.19476 7.16994 7.67809 7.83714 7.05973C9.60126 5.42479 10.6542 3.14178 11.5745 0.361747L10.436 0C9.52926 2.73915 8.55097 4.784 7.01463 6.2079C5.64777 7.47476 3.78091 8.30143 0.968855 8.61106H0V8.69484V9.86484V9.93584H0.850685C3.72931 10.2349 5.62931 11.0641 7.01514 12.3459C8.55114 13.7666 9.52926 15.8081 10.436 18.5471L11.5745 18.1853C10.6541 15.4051 9.60108 13.1251 7.83674 11.4933C7.16428 10.8714 6.39908 10.3528 5.51674 9.93584Z" fill="currentColor" />

    </symbol>
    <symbol id="gal-ochka" width="100%" height="100%" viewBox="0 0 12 10">
      <path d="M6.23497 8.79946C5.9649 9.16602 5.54433 9.3913 5.0896 9.41369C4.63487 9.43632 4.19445 9.25304 3.88975 8.91464L1.15929 5.88456C0.725328 5.40328 0.763876 4.6614 1.24515 4.22744C1.72689 3.79348 2.46831 3.83226 2.90227 4.31377L4.83407 6.45771C4.8627 6.48956 4.90425 6.50664 4.94695 6.50456C4.98988 6.50249 5.02912 6.48102 5.05475 6.44686L9.02546 1.0614C9.40979 0.539728 10.1443 0.428699 10.6662 0.813259C11.1876 1.19782 11.2984 1.93232 10.9139 2.45376L6.23497 8.79946Z" fill="currentColor" />
    </symbol>
    <symbol id="to-right" width="100%" height="100%" viewBox="0 0 8 14">
      <path d="M5.63663 7.00019L1.15148 2.51504C0.7935 2.15706 0.7935 1.57666 1.15148 1.21868C1.50946 0.8607 2.08986 0.8607 2.44784 1.21868L7.58118 6.35201C7.93916 6.70999 7.93916 7.29039 7.58118 7.64838L2.44784 12.7817C2.08986 13.1397 1.50946 13.1397 1.15148 12.7817C0.7935 12.4237 0.7935 11.8433 1.15148 11.4853L5.63663 7.00019Z" fill="currentColor" />
    </symbol>
    <symbol id="to-left" width="100%" height="100%" viewBox="0 0 8 14">
      <path d="M2.36337 7.00019L6.84852 2.51504C7.2065 2.15706 7.2065 1.57666 6.84852 1.21868C6.49054 0.8607 5.91014 0.8607 5.55216 1.21868L0.418823 6.35201C0.0608425 6.70999 0.0608425 7.29039 0.418823 7.64838L5.55216 12.7817C5.91014 13.1397 6.49054 13.1397 6.84852 12.7817C7.2065 12.4237 7.2065 11.8433 6.84852 11.4853L2.36337 7.00019Z" fill="currentColor" />
    </symbol>
    <symbol id="play" width="100%" height="100%" viewBox="0 0 24 24">
      <path d="M19.5761 9.35258C21.4746 10.5065 21.4746 13.4935 19.5761 14.6474L8.11276 21.6145C6.26758 22.736 4 21.2763 4 18.9671L4 5.0329C4 2.72368 6.26758 1.26402 8.11276 2.38548L19.5761 9.35258Z" fill="currentColor" />
    </symbol>
    <symbol id="cross" width="100%" height="100%" viewBox="0 0 16 16">
      <path d="M1 15L15 1M1 1L15 15" fill="none" stroke="currentColor" stroke-width="2" stroke-linecap="round" stroke-linejoin="round" />
    </symbol>
    <symbol id="case" width="100%" height="100%" viewBox="0 0 36 36" fill="none">
      <path d="M4.5 18C4.5 23.6569 4.5 29.4853 6.47703 31.2426C8.45406 33 11.636 33 18 33C24.364 33 27.5459 33 29.523 31.2426C31.5 29.4853 31.5 23.6569 31.5 18" stroke="currentColor" stroke-width="1.5" />
      <path d="M21.9905 21.3029L31.2869 18.5139C31.9032 18.329 32.2114 18.2366 32.4396 18.0532C32.6388 17.8931 32.7939 17.6848 32.89 17.4479C33 17.1767 33 16.8549 33 16.2115C33 13.6804 33 12.4149 32.5054 11.449C32.0751 10.6086 31.3914 9.92489 30.551 9.49457C29.5851 9 28.3196 9 25.7885 9H10.2115C7.68041 9 6.41488 9 5.44901 9.49457C4.60863 9.92489 3.92489 10.6086 3.49457 11.449C3 12.4149 3 13.6804 3 16.2115C3 16.8549 3 17.1767 3.11005 17.4479C3.20615 17.6848 3.36118 17.8931 3.56044 18.0532C3.78861 18.2366 4.09677 18.329 4.71309 18.5139L14.0095 21.3029" stroke="currentColor" stroke-width="1.5" />
      <path d="M21 18.75H15C14.5858 18.75 14.25 19.0858 14.25 19.5V22.7422C14.25 23.0489 14.4367 23.3247 14.7215 23.4386L15.7717 23.8587C17.2021 24.4308 18.7979 24.4308 20.2283 23.8587L21.2785 23.4386C21.5633 23.3247 21.75 23.0489 21.75 22.7422V19.5C21.75 19.0858 21.4142 18.75 21 18.75Z" stroke="currentColor" stroke-width="1.5" stroke-linecap="round" />
      <path d="M13.7563 6C14.3741 4.25221 16.041 3 18.0003 3C19.9596 3 21.6265 4.25221 22.2442 6" stroke="currentColor" stroke-width="1.5" stroke-linecap="round" />

    </symbol>
    <symbol id="building" width="100%" height="100%" viewBox="0 0 36 36" fill="none">
      <path d="M33 33L3 33" stroke="currentColor" stroke-width="1.5" stroke-linecap="round" />
      <path d="M25.5 33V9C25.5 6.17157 25.5 4.75736 24.6213 3.87868C23.7426 3 22.3284 3 19.5 3H16.5C13.6716 3 12.2574 3 11.3787 3.87868C10.5 4.75736 10.5 6.17157 10.5 9V33" stroke="currentColor" stroke-width="1.5" />
      <path d="M31.5 33V17.25C31.5 15.1433 31.5 14.09 30.9944 13.3333C30.7755 13.0057 30.4943 12.7245 30.1667 12.5056C29.41 12 28.3567 12 26.25 12" stroke="currentColor" stroke-width="1.5" />
      <path d="M4.5 33V17.25C4.5 15.1433 4.5 14.09 5.00559 13.3333C5.22447 13.0057 5.50572 12.7245 5.83329 12.5056C6.58996 12 7.64331 12 9.75 12" stroke="currentColor" stroke-width="1.5" />
      <path d="M18 33V28.5" stroke="currentColor" stroke-width="1.5" stroke-linecap="round" />
      <path d="M15 7.5H21" stroke="currentColor" stroke-width="1.5" stroke-linecap="round" />
      <path d="M15 12H21" stroke="currentColor" stroke-width="1.5" stroke-linecap="round" />
      <path d="M15 16.5H21" stroke="currentColor" stroke-width="1.5" stroke-linecap="round" />
      <path d="M15 21H21" stroke="currentColor" stroke-width="1.5" stroke-linecap="round" />

    </symbol>
    <symbol id="ruler" width="100%" height="100%" viewBox="0 0 36 36" fill="none">
      <path d="M3 9V27.75C3 29.8567 3 30.91 3.50559 31.6667C3.72447 31.9943 4.00572 32.2755 4.33329 32.4944C5.08996 33 6.14331 33 8.25 33C10.3567 33 11.41 33 12.1667 32.4944C12.4943 32.2755 12.7755 31.9943 12.9944 31.6667C13.5 30.91 13.5 29.8567 13.5 27.75V16.5C13.5 15.0858 13.5 14.3787 13.9393 13.9393C14.3787 13.5 15.0858 13.5 16.5 13.5H27.75C29.8567 13.5 30.91 13.5 31.6667 12.9944C31.9943 12.7755 32.2755 12.4943 32.4944 12.1667C33 11.41 33 10.3567 33 8.25C33 6.14331 33 5.08996 32.4944 4.33329C32.2755 4.00572 31.9943 3.72447 31.6667 3.50559C30.91 3 29.8567 3 27.75 3H9C6.17157 3 4.75736 3 3.87868 3.87868C3 4.75736 3 6.17157 3 9Z" stroke="currentColor" stroke-width="1.5" stroke-linecap="round" />
      <path d="M18 3L18 6M27 3L27 6M13.5 3L13.5 7.5M22.5 3L22.5 7.5" stroke="currentColor" stroke-width="1.5" stroke-linecap="round" />
      <path d="M3 18H6M3 27H6M3 22.5L7.5 22.5M3 13.5L7.5 13.5" stroke="currentColor" stroke-width="1.5" stroke-linecap="round" />

    </symbol>
    <symbol id="key-square" width="100%" height="100%" viewBox="0 0 36 36" fill="none">

      <path d="M30.4714 5.52864L31.0017 4.99831V4.99831L30.4714 5.52864ZM30.4714 17.738L31.0017 18.2683L30.4714 17.738ZM15.682 15.0854L15.1516 14.5551L15.1516 14.5551L15.682 15.0854ZM11.0419 19.7256L11.5722 20.2559L11.5722 20.2559L11.0419 19.7256ZM16.2744 24.9581L15.7441 24.4278H15.7441L16.2744 24.9581ZM20.9149 20.3177L20.3846 19.7873L20.9149 20.3177ZM10.5113 21.238L9.76591 21.3208L10.5113 21.238ZM10.8014 23.8487L10.056 23.9316L10.056 23.9316L10.8014 23.8487ZM12.1513 25.1986L12.0684 25.944H12.0684L12.1513 25.1986ZM14.762 25.4887L14.8448 24.7433H14.8448L14.762 25.4887ZM11.1551 24.5846L11.6854 24.0543L11.6854 24.0543L11.1551 24.5846ZM11.4154 24.8449L10.885 25.3752L10.885 25.3752L11.4154 24.8449ZM16.0054 13.7889L15.279 13.9754V13.9754L16.0054 13.7889ZM22.2111 19.9946L22.0246 20.721L22.2111 19.9946ZM16.166 20.712C15.8715 20.4207 15.3967 20.4233 15.1054 20.7178C14.8141 21.0123 14.8167 21.4872 15.1112 21.7785L16.166 20.712ZM23.0126 12.9874C22.3291 12.304 22.3291 11.196 23.0126 10.5126L21.9519 9.4519C20.6827 10.7211 20.6827 12.7789 21.9519 14.0481L23.0126 12.9874ZM25.4874 12.9874C24.804 13.6709 23.696 13.6709 23.0126 12.9874L21.9519 14.0481C23.2211 15.3173 25.2789 15.3173 26.5481 14.0481L25.4874 12.9874ZM25.4874 10.5126C26.1709 11.196 26.1709 12.304 25.4874 12.9874L26.5481 14.0481C27.8173 12.7789 27.8173 10.7211 26.5481 9.4519L25.4874 10.5126ZM26.5481 9.4519C25.2789 8.1827 23.2211 8.1827 21.9519 9.4519L23.0126 10.5126C23.696 9.82915 24.804 9.82915 25.4874 10.5126L26.5481 9.4519ZM29.941 6.05897C33.0197 9.1376 33.0197 14.129 29.941 17.2077L31.0017 18.2683C34.6661 14.6039 34.6661 8.66272 31.0017 4.99831L29.941 6.05897ZM31.0017 4.99831C27.3373 1.3339 21.3961 1.3339 17.7317 4.99831L18.7923 6.05897C21.871 2.98034 26.8624 2.98034 29.941 6.05897L31.0017 4.99831ZM15.1516 14.5551L10.5115 19.1952L11.5722 20.2559L16.2123 15.6158L15.1516 14.5551ZM16.8048 25.4885L18.3553 23.938L17.2946 22.8773L15.7441 24.4278L16.8048 25.4885ZM18.3553 23.938L21.4452 20.848L20.3846 19.7873L17.2946 22.8773L18.3553 23.938ZM9.76591 21.3208L10.056 23.9316L11.5468 23.7659L11.2567 21.1552L9.76591 21.3208ZM12.0684 25.944L14.6792 26.2341L14.8448 24.7433L12.2341 24.4532L12.0684 25.944ZM10.6248 25.115L10.885 25.3752L11.9457 24.3146L11.6854 24.0543L10.6248 25.115ZM12.2341 24.4532C12.125 24.4411 12.0233 24.3922 11.9457 24.3146L10.885 25.3752C11.2035 25.6937 11.6208 25.8943 12.0684 25.944L12.2341 24.4532ZM10.056 23.9316C10.1057 24.3792 10.3063 24.7965 10.6248 25.115L11.6854 24.0543C11.6078 23.9767 11.5589 23.875 11.5468 23.7659L10.056 23.9316ZM15.7441 24.4278C15.5078 24.6641 15.1769 24.7802 14.8448 24.7433L14.6792 26.2341C15.4642 26.3213 16.2463 26.047 16.8048 25.4885L15.7441 24.4278ZM10.5115 19.1952C9.95304 19.7537 9.67869 20.5358 9.76591 21.3208L11.2567 21.1552C11.2198 20.8231 11.3359 20.4922 11.5722 20.2559L10.5115 19.1952ZM16.7318 13.6024C16.0608 10.9892 16.7488 8.10252 18.7923 6.05897L17.7317 4.99831C15.2979 7.43211 14.4815 10.8699 15.279 13.9754L16.7318 13.6024ZM29.941 17.2077C27.8975 19.2512 25.0108 19.9392 22.3976 19.2682L22.0246 20.721C25.1301 21.5185 28.5679 20.7021 31.0017 18.2683L29.941 17.2077ZM21.4452 20.848C21.5684 20.7249 21.7824 20.6589 22.0246 20.721L22.3976 19.2682C21.7175 19.0935 20.9348 19.2371 20.3846 19.7873L21.4452 20.848ZM16.2123 15.6158C16.7623 15.0658 16.9066 14.2829 16.7318 13.6024L15.279 13.9754C15.3411 14.2172 15.275 14.4318 15.1516 14.5551L16.2123 15.6158ZM18.3524 22.8744L16.166 20.712L15.1112 21.7785L17.2975 23.9409L18.3524 22.8744Z" fill="currentColor" />
      <path d="M33 22.4894C32.9042 26.6805 32.5038 29.1285 30.8312 30.8011C28.6323 33 25.0933 33 18.0151 33C10.9369 33 7.39781 33 5.19891 30.8011C3 28.6022 3 25.0631 3 17.9849C3 10.9067 3 7.36766 5.19891 5.16875C6.87149 3.49617 9.31946 3.09583 13.5106 3" stroke="currentColor" stroke-width="1.5" stroke-linecap="round" />


    </symbol>
    <symbol id="crop" width="100%" height="100%" viewBox="0 0 36 36" fill="none">
      <path d="M33 28.5H19.5C13.8431 28.5 11.0147 28.5 9.25736 26.7426C7.5 24.9853 7.5 22.1569 7.5 16.5V3" stroke="currentColor" stroke-width="1.5" stroke-linecap="round" />
      <path d="M12 7.5H16.5C22.1569 7.5 24.9853 7.5 26.7426 9.25736C28.5 11.0147 28.5 13.8431 28.5 19.5V24M3 7.5H7.5M28.5 28.5V33" stroke="currentColor" stroke-width="1.5" stroke-linecap="round" />




    </symbol>
    <symbol id="download" width="100%" height="100%" viewBox="0 0 20 20" fill="none">
      <path d="M10 3.33337L10 16.6667M10 16.6667L15 11.6667M10 16.6667L5 11.6667" stroke="currentColor" stroke-width="1.5" stroke-linecap="round" stroke-linejoin="round" />
    </symbol>
    <symbol id="question-circle" width="100%" height="100%" viewBox="0 0 24 24" fill="none">

      <path fill-rule="evenodd" clip-rule="evenodd" d="M12 1C5.925 1 1 5.925 1 12C1 18.075 5.925 23 12 23C18.075 23 23 18.075 23 12C23 5.925 18.075 1 12 1ZM10.892 8.935C11.122 8.482 11.292 8.267 11.433 8.155C11.539 8.071 11.683 8 12 8C12.625 8 13 8.47 13 8.978C13 9.256 12.946 9.394 12.798 9.57C12.591 9.816 12.208 10.115 11.45 10.616C11.1691 10.8008 11 11.1144 11 11.4506V13C11 13.2652 11.1054 13.5196 11.2929 13.7071C11.4804 13.8946 11.7348 14 12 14C12.2652 14 12.5196 13.8946 12.7071 13.7071C12.8946 13.5196 13 13.2652 13 13C13 12.3632 13.3272 11.7842 13.8112 11.3703C14.006 11.2037 14.179 11.0348 14.327 10.859C14.804 10.293 15 9.689 15 8.978C15 7.508 13.867 6 12 6C11.316 6 10.711 6.176 10.192 6.587C9.708 6.97 9.378 7.497 9.108 8.032C9.04526 8.14947 9.00661 8.27828 8.99433 8.41089C8.98205 8.54349 8.99637 8.67722 9.03647 8.80421C9.07657 8.9312 9.14163 9.04891 9.22783 9.15042C9.31403 9.25193 9.41964 9.3352 9.53846 9.39534C9.65728 9.45548 9.78691 9.49128 9.91975 9.50065C10.0526 9.51001 10.186 9.49275 10.3121 9.44987C10.4381 9.40699 10.5544 9.33936 10.654 9.25094C10.7536 9.16253 10.8345 9.05511 10.892 8.935ZM13 16.5C13 16.2348 12.8946 15.9804 12.7071 15.7929C12.5196 15.6054 12.2652 15.5 12 15.5C11.7348 15.5 11.4804 15.6054 11.2929 15.7929C11.1054 15.9804 11 16.2348 11 16.5V17C11 17.2652 11.1054 17.5196 11.2929 17.7071C11.4804 17.8946 11.7348 18 12 18C12.2652 18 12.5196 17.8946 12.7071 17.7071C12.8946 17.5196 13 17.2652 13 17V16.5Z" fill="currentColor" />


    </symbol>
    <symbol id="star" width="100%" height="100%" viewBox="0 0 16 16" fill="none">
      <path d="M8.00001 11.8331L3.88535 13.9965L4.67135 9.41447L1.33801 6.16981L5.93801 5.50314L7.99535 1.33447L10.0527 5.50314L14.6527 6.16981L11.3193 9.41447L12.1053 13.9965L8.00001 11.8331Z" fill="currentColor" />

    </symbol>
    <symbol id="building" width="100%" height="100%" viewBox="0 0 56 56" fill="none">
      <path d="M51.3334 51.3335L4.66675 51.3335" stroke="currentColor" stroke-width="2" stroke-linecap="round" />
      <path d="M49 51.3332V13.9998C49 9.60006 49 7.40017 47.6331 6.03334C46.2663 4.6665 44.0664 4.6665 39.6666 4.6665H35C30.6002 4.6665 28.4003 4.6665 27.0335 6.03334C25.9332 7.13361 25.7186 8.77368 25.6768 11.6665" stroke="currentColor" stroke-width="2" />
      <path d="M35 51.3332V20.9998C35 16.6001 35 14.4002 33.6332 13.0333C32.2663 11.6665 30.0664 11.6665 25.6667 11.6665H16.3333C11.9336 11.6665 9.73367 11.6665 8.36684 13.0333C7 14.4002 7 16.6001 7 20.9998V51.3332" stroke="currentColor" stroke-width="2" />
      <path d="M21 51.3335V44.3335" stroke="currentColor" stroke-width="2" stroke-linecap="round" />
      <path d="M14 18.6665H28" stroke="currentColor" stroke-width="2" stroke-linecap="round" />
      <path d="M14 25.6665H28" stroke="currentColor" stroke-width="2" stroke-linecap="round" />
      <path d="M14 32.6665H28" stroke="currentColor" stroke-width="2" stroke-linecap="round" />

    </symbol>
    <symbol id="check-verified" width="100%" height="100%" viewBox="0 0 32 32" fill="none">
      <path fill-rule="evenodd" clip-rule="evenodd" d="M12.79 4.26705C12.4652 4.54376 12.3029 4.68212 12.1295 4.79834C11.732 5.06474 11.2856 5.24964 10.8162 5.34232C10.6114 5.38275 10.3988 5.39972 9.97352 5.43365C8.90501 5.51892 8.37075 5.56156 7.92502 5.71899C6.89409 6.08313 6.08319 6.89403 5.71905 7.92496C5.56162 8.37069 5.51898 8.90495 5.43371 9.97346C5.39978 10.3987 5.38281 10.6114 5.34238 10.8162C5.2497 11.2856 5.0648 11.732 4.7984 12.1294C4.68218 12.3028 4.54383 12.4652 4.26711 12.7899C3.57186 13.6057 3.22422 14.0137 3.02037 14.4402C2.54887 15.4266 2.54887 16.5734 3.02037 17.5599C3.22422 17.9864 3.57185 18.3943 4.26711 19.2101C4.54379 19.5348 4.68219 19.6972 4.7984 19.8706C5.0648 20.2681 5.2497 20.7145 5.34238 21.1839C5.38281 21.3887 5.39978 21.6013 5.43371 22.0266C5.51898 23.0951 5.56162 23.6293 5.71905 24.0751C6.08319 25.106 6.89409 25.9169 7.92502 26.281C8.37075 26.4385 8.90501 26.4811 9.97352 26.5664C10.3988 26.6003 10.6114 26.6173 10.8162 26.6577C11.2856 26.7504 11.732 26.9353 12.1295 27.2017C12.3029 27.3179 12.4652 27.4563 12.79 27.733C13.6058 28.4282 14.0137 28.7759 14.4402 28.9797C15.4267 29.4512 16.5735 29.4512 17.5599 28.9797C17.9864 28.7759 18.3944 28.4282 19.2102 27.733C19.5349 27.4563 19.6973 27.3179 19.8707 27.2017C20.2681 26.9353 20.7145 26.7504 21.1839 26.6577C21.3887 26.6173 21.6014 26.6003 22.0266 26.5664C23.0952 26.4811 23.6294 26.4385 24.0751 26.281C25.1061 25.9169 25.917 25.106 26.2811 24.0751C26.4385 23.6293 26.4812 23.0951 26.5664 22.0266C26.6004 21.6013 26.6174 21.3887 26.6578 21.1839C26.7505 20.7145 26.9354 20.2681 27.2018 19.8706C27.318 19.6972 27.4563 19.5349 27.733 19.2101C28.4283 18.3943 28.7759 17.9864 28.9798 17.5599C29.4513 16.5734 29.4513 15.4266 28.9798 14.4402C28.7759 14.0137 28.4283 13.6057 27.733 12.7899C27.4563 12.4652 27.318 12.3028 27.2018 12.1294C26.9354 11.732 26.7505 11.2856 26.6578 10.8162C26.6174 10.6114 26.6004 10.3987 26.5664 9.97346C26.4812 8.90495 26.4385 8.37069 26.2811 7.92496C25.917 6.89403 25.1061 6.08313 24.0751 5.71899C23.6294 5.56155 23.0952 5.51892 22.0266 5.43365C21.6014 5.39972 21.3887 5.38275 21.1839 5.34232C20.7145 5.24964 20.2681 5.06474 19.8707 4.79834C19.6973 4.68212 19.5349 4.54376 19.2102 4.26705C18.3944 3.57179 17.9864 3.22416 17.5599 3.02031C16.5735 2.54881 15.4267 2.54881 14.4402 3.02031C14.0137 3.22416 13.6058 3.5718 12.79 4.26705ZM21.8314 13.1509C22.2552 12.7271 22.2552 12.04 21.8314 11.6162C21.4076 11.1925 20.7205 11.1925 20.2968 11.6162L13.8298 18.0832L11.7034 15.9568C11.2796 15.533 10.5925 15.533 10.1687 15.9568C9.74496 16.3806 9.74496 17.0677 10.1687 17.4915L13.0625 20.3852C13.4862 20.809 14.1733 20.809 14.5971 20.3852L21.8314 13.1509Z" fill="currentColor" />

    </symbol>
    <!--  -->
    <!--  -->
    <!--  -->
  </defs>
</svg>