<?xml version="1.0"?>
<svg xmlns="http://www.w3.org/2000/svg" xmlns:xlink="http://www.w3.org/1999/xlink" version="1.1" xml:space="preserve">
  <defs>
    <symbol id="email" width="100%" height="100%" viewBox="0 0 22 18">
      <path fill-rule="evenodd" clip-rule="evenodd" d="M1.37868 1.71193C0.5 2.59061 0.5 4.00482 0.5 6.83325V11.1666C0.5 13.995 0.5 15.4092 1.37868 16.2879C2.25736 17.1666 3.67157 17.1666 6.5 17.1666H15.5C18.3284 17.1666 19.7426 17.1666 20.6213 16.2879C21.5 15.4092 21.5 13.995 21.5 11.1666V6.83325C21.5 4.00483 21.5 2.59061 20.6213 1.71193C19.7426 0.833252 18.3284 0.833252 15.5 0.833252H6.5C3.67157 0.833252 2.25736 0.833252 1.37868 1.71193ZM4.5547 4.66787C4.09517 4.36152 3.4743 4.48569 3.16795 4.94522C2.8616 5.40475 2.98577 6.02562 3.4453 6.33197L9.8906 10.6288C10.5624 11.0767 11.4376 11.0767 12.1094 10.6288L18.5547 6.33197C19.0142 6.02562 19.1384 5.40475 18.8321 4.94522C18.5257 4.48569 17.9048 4.36152 17.4453 4.66787L11 8.96474L4.5547 4.66787Z" fill="currentColor" />
    </symbol>
    <symbol id="phone" width="100%" height="100%" viewBox="0 0 22 22">
      <path d="M0.599998 1.9001C0.599998 1.18213 1.18203 0.600098 1.9 0.600098H4.69873C5.33422 0.600098 5.87657 1.05953 5.98105 1.68638L6.94215 7.45301C7.03597 8.01596 6.75167 8.57426 6.24122 8.82949L4.22864 9.83578C5.67982 13.4419 8.55818 16.3203 12.1643 17.7715L13.1706 15.7589C13.4258 15.2484 13.9841 14.9641 14.5471 15.0579L20.3137 16.019C20.9406 16.1235 21.4 16.6659 21.4 17.3014V20.1001C21.4 20.8181 20.818 21.4001 20.1 21.4001H17.5C8.16639 21.4001 0.599998 13.8337 0.599998 4.5001V1.9001Z" fill="currentColor" />
    </symbol>
    <symbol id="menu" width="100%" height="100%" viewBox="0 0 20 18">
      <path fill-rule="evenodd" clip-rule="evenodd" d="M0.199951 2.0001C0.199951 1.2269 0.826752 0.600098 1.59995 0.600098H18.4C19.1732 0.600098 19.8 1.2269 19.8 2.0001C19.8 2.7733 19.1732 3.4001 18.4 3.4001H1.59995C0.826752 3.4001 0.199951 2.7733 0.199951 2.0001Z" fill="currentColor" />
      <path fill-rule="evenodd" clip-rule="evenodd" d="M0.199951 9.0001C0.199951 8.2269 0.826752 7.6001 1.59995 7.6001H18.4C19.1732 7.6001 19.8 8.2269 19.8 9.0001C19.8 9.7733 19.1732 10.4001 18.4 10.4001H1.59995C0.826752 10.4001 0.199951 9.7733 0.199951 9.0001Z" fill="currentColor" />
      <path fill-rule="evenodd" clip-rule="evenodd" d="M0.199951 16.0001C0.199951 15.2269 0.826752 14.6001 1.59995 14.6001H18.4C19.1732 14.6001 19.8 15.2269 19.8 16.0001C19.8 16.7733 19.1732 17.4001 18.4 17.4001H1.59995C0.826752 17.4001 0.199951 16.7733 0.199951 16.0001Z" fill="currentColor" />
    </symbol>
    <symbol id="arrow-right" width="100%" height="100%" viewBox="0 0 20 20">
      <path fill-rule="evenodd" clip-rule="evenodd" d="M11.2248 4.55806C11.4688 4.31398 11.8646 4.31398 12.1086 4.55806L17.1086 9.55806C17.3527 9.80214 17.3527 10.1979 17.1086 10.4419L12.1086 15.4419C11.8646 15.686 11.4688 15.686 11.2248 15.4419C10.9807 15.1979 10.9807 14.8021 11.2248 14.5581L15.1578 10.625H3.33337C2.9882 10.625 2.70837 10.3452 2.70837 10C2.70837 9.65482 2.9882 9.375 3.33337 9.375H15.1578L11.2248 5.44194C10.9807 5.19786 10.9807 4.80214 11.2248 4.55806Z" fill="currentColor" />

    </symbol>
    <symbol id="arrow-left" width="100%" height="100%" viewBox="0 0 15 10">
      <path d="M2 5L1.29289 4.29289L0.585786 5L1.29289 5.70711L2 5ZM14 6C14.5523 6 15 5.55228 15 5C15 4.44772 14.5523 4 14 4V6ZM5.29289 0.292893L1.29289 4.29289L2.70711 5.70711L6.70711 1.70711L5.29289 0.292893ZM1.29289 5.70711L5.29289 9.70711L6.70711 8.29289L2.70711 4.29289L1.29289 5.70711ZM2 6H14V4H2V6Z" fill="currentColor" />
    </symbol>
    <symbol id="gal-ochka" width="100%" height="100%" viewBox="0 0 12 10">
      <path d="M6.23497 8.79946C5.9649 9.16602 5.54433 9.3913 5.0896 9.41369C4.63487 9.43632 4.19445 9.25304 3.88975 8.91464L1.15929 5.88456C0.725328 5.40328 0.763876 4.6614 1.24515 4.22744C1.72689 3.79348 2.46831 3.83226 2.90227 4.31377L4.83407 6.45771C4.8627 6.48956 4.90425 6.50664 4.94695 6.50456C4.98988 6.50249 5.02912 6.48102 5.05475 6.44686L9.02546 1.0614C9.40979 0.539728 10.1443 0.428699 10.6662 0.813259C11.1876 1.19782 11.2984 1.93232 10.9139 2.45376L6.23497 8.79946Z" fill="currentColor" />
    </symbol>
    <symbol id="to-right" width="100%" height="100%" viewBox="0 0 8 14">
      <path d="M5.63663 7.00019L1.15148 2.51504C0.7935 2.15706 0.7935 1.57666 1.15148 1.21868C1.50946 0.8607 2.08986 0.8607 2.44784 1.21868L7.58118 6.35201C7.93916 6.70999 7.93916 7.29039 7.58118 7.64838L2.44784 12.7817C2.08986 13.1397 1.50946 13.1397 1.15148 12.7817C0.7935 12.4237 0.7935 11.8433 1.15148 11.4853L5.63663 7.00019Z" fill="currentColor" />
    </symbol>
    <symbol id="to-left" width="100%" height="100%" viewBox="0 0 8 14">
      <path d="M2.36337 7.00019L6.84852 2.51504C7.2065 2.15706 7.2065 1.57666 6.84852 1.21868C6.49054 0.8607 5.91014 0.8607 5.55216 1.21868L0.418823 6.35201C0.0608425 6.70999 0.0608425 7.29039 0.418823 7.64838L5.55216 12.7817C5.91014 13.1397 6.49054 13.1397 6.84852 12.7817C7.2065 12.4237 7.2065 11.8433 6.84852 11.4853L2.36337 7.00019Z" fill="currentColor" />
    </symbol>
    <symbol id="play" width="100%" height="100%" viewBox="0 0 24 24">
      <path d="M19.5761 9.35258C21.4746 10.5065 21.4746 13.4935 19.5761 14.6474L8.11276 21.6145C6.26758 22.736 4 21.2763 4 18.9671L4 5.0329C4 2.72368 6.26758 1.26402 8.11276 2.38548L19.5761 9.35258Z" fill="currentColor" />
    </symbol>
    <symbol id="cross" width="100%" height="100%" viewBox="0 0 16 16">
      <path d="M1 15L15 1M1 1L15 15" fill="none" stroke="currentColor" stroke-width="2" stroke-linecap="round" stroke-linejoin="round" />
    </symbol>
    <symbol id="case" width="100%" height="100%" viewBox="0 0 36 36" fill="none">
      <path d="M4.5 18C4.5 23.6569 4.5 29.4853 6.47703 31.2426C8.45406 33 11.636 33 18 33C24.364 33 27.5459 33 29.523 31.2426C31.5 29.4853 31.5 23.6569 31.5 18" stroke="currentColor" stroke-width="1.5" />
      <path d="M21.9905 21.3029L31.2869 18.5139C31.9032 18.329 32.2114 18.2366 32.4396 18.0532C32.6388 17.8931 32.7939 17.6848 32.89 17.4479C33 17.1767 33 16.8549 33 16.2115C33 13.6804 33 12.4149 32.5054 11.449C32.0751 10.6086 31.3914 9.92489 30.551 9.49457C29.5851 9 28.3196 9 25.7885 9H10.2115C7.68041 9 6.41488 9 5.44901 9.49457C4.60863 9.92489 3.92489 10.6086 3.49457 11.449C3 12.4149 3 13.6804 3 16.2115C3 16.8549 3 17.1767 3.11005 17.4479C3.20615 17.6848 3.36118 17.8931 3.56044 18.0532C3.78861 18.2366 4.09677 18.329 4.71309 18.5139L14.0095 21.3029" stroke="currentColor" stroke-width="1.5" />
      <path d="M21 18.75H15C14.5858 18.75 14.25 19.0858 14.25 19.5V22.7422C14.25 23.0489 14.4367 23.3247 14.7215 23.4386L15.7717 23.8587C17.2021 24.4308 18.7979 24.4308 20.2283 23.8587L21.2785 23.4386C21.5633 23.3247 21.75 23.0489 21.75 22.7422V19.5C21.75 19.0858 21.4142 18.75 21 18.75Z" stroke="currentColor" stroke-width="1.5" stroke-linecap="round" />
      <path d="M13.7563 6C14.3741 4.25221 16.041 3 18.0003 3C19.9596 3 21.6265 4.25221 22.2442 6" stroke="currentColor" stroke-width="1.5" stroke-linecap="round" />

    </symbol>
    <symbol id="building" width="100%" height="100%" viewBox="0 0 36 36" fill="none">
      <path d="M33 33L3 33" stroke="currentColor" stroke-width="1.5" stroke-linecap="round" />
      <path d="M25.5 33V9C25.5 6.17157 25.5 4.75736 24.6213 3.87868C23.7426 3 22.3284 3 19.5 3H16.5C13.6716 3 12.2574 3 11.3787 3.87868C10.5 4.75736 10.5 6.17157 10.5 9V33" stroke="currentColor" stroke-width="1.5" />
      <path d="M31.5 33V17.25C31.5 15.1433 31.5 14.09 30.9944 13.3333C30.7755 13.0057 30.4943 12.7245 30.1667 12.5056C29.41 12 28.3567 12 26.25 12" stroke="currentColor" stroke-width="1.5" />
      <path d="M4.5 33V17.25C4.5 15.1433 4.5 14.09 5.00559 13.3333C5.22447 13.0057 5.50572 12.7245 5.83329 12.5056C6.58996 12 7.64331 12 9.75 12" stroke="currentColor" stroke-width="1.5" />
      <path d="M18 33V28.5" stroke="currentColor" stroke-width="1.5" stroke-linecap="round" />
      <path d="M15 7.5H21" stroke="currentColor" stroke-width="1.5" stroke-linecap="round" />
      <path d="M15 12H21" stroke="currentColor" stroke-width="1.5" stroke-linecap="round" />
      <path d="M15 16.5H21" stroke="currentColor" stroke-width="1.5" stroke-linecap="round" />
      <path d="M15 21H21" stroke="currentColor" stroke-width="1.5" stroke-linecap="round" />

    </symbol>
    <symbol id="ruler" width="100%" height="100%" viewBox="0 0 36 36" fill="none">
      <path d="M3 9V27.75C3 29.8567 3 30.91 3.50559 31.6667C3.72447 31.9943 4.00572 32.2755 4.33329 32.4944C5.08996 33 6.14331 33 8.25 33C10.3567 33 11.41 33 12.1667 32.4944C12.4943 32.2755 12.7755 31.9943 12.9944 31.6667C13.5 30.91 13.5 29.8567 13.5 27.75V16.5C13.5 15.0858 13.5 14.3787 13.9393 13.9393C14.3787 13.5 15.0858 13.5 16.5 13.5H27.75C29.8567 13.5 30.91 13.5 31.6667 12.9944C31.9943 12.7755 32.2755 12.4943 32.4944 12.1667C33 11.41 33 10.3567 33 8.25C33 6.14331 33 5.08996 32.4944 4.33329C32.2755 4.00572 31.9943 3.72447 31.6667 3.50559C30.91 3 29.8567 3 27.75 3H9C6.17157 3 4.75736 3 3.87868 3.87868C3 4.75736 3 6.17157 3 9Z" stroke="currentColor" stroke-width="1.5" stroke-linecap="round" />
      <path d="M18 3L18 6M27 3L27 6M13.5 3L13.5 7.5M22.5 3L22.5 7.5" stroke="currentColor" stroke-width="1.5" stroke-linecap="round" />
      <path d="M3 18H6M3 27H6M3 22.5L7.5 22.5M3 13.5L7.5 13.5" stroke="currentColor" stroke-width="1.5" stroke-linecap="round" />

    </symbol>
    <symbol id="key-square" width="100%" height="100%" viewBox="0 0 36 36" fill="none">

      <path d="M30.4714 5.52864L31.0017 4.99831V4.99831L30.4714 5.52864ZM30.4714 17.738L31.0017 18.2683L30.4714 17.738ZM15.682 15.0854L15.1516 14.5551L15.1516 14.5551L15.682 15.0854ZM11.0419 19.7256L11.5722 20.2559L11.5722 20.2559L11.0419 19.7256ZM16.2744 24.9581L15.7441 24.4278H15.7441L16.2744 24.9581ZM20.9149 20.3177L20.3846 19.7873L20.9149 20.3177ZM10.5113 21.238L9.76591 21.3208L10.5113 21.238ZM10.8014 23.8487L10.056 23.9316L10.056 23.9316L10.8014 23.8487ZM12.1513 25.1986L12.0684 25.944H12.0684L12.1513 25.1986ZM14.762 25.4887L14.8448 24.7433H14.8448L14.762 25.4887ZM11.1551 24.5846L11.6854 24.0543L11.6854 24.0543L11.1551 24.5846ZM11.4154 24.8449L10.885 25.3752L10.885 25.3752L11.4154 24.8449ZM16.0054 13.7889L15.279 13.9754V13.9754L16.0054 13.7889ZM22.2111 19.9946L22.0246 20.721L22.2111 19.9946ZM16.166 20.712C15.8715 20.4207 15.3967 20.4233 15.1054 20.7178C14.8141 21.0123 14.8167 21.4872 15.1112 21.7785L16.166 20.712ZM23.0126 12.9874C22.3291 12.304 22.3291 11.196 23.0126 10.5126L21.9519 9.4519C20.6827 10.7211 20.6827 12.7789 21.9519 14.0481L23.0126 12.9874ZM25.4874 12.9874C24.804 13.6709 23.696 13.6709 23.0126 12.9874L21.9519 14.0481C23.2211 15.3173 25.2789 15.3173 26.5481 14.0481L25.4874 12.9874ZM25.4874 10.5126C26.1709 11.196 26.1709 12.304 25.4874 12.9874L26.5481 14.0481C27.8173 12.7789 27.8173 10.7211 26.5481 9.4519L25.4874 10.5126ZM26.5481 9.4519C25.2789 8.1827 23.2211 8.1827 21.9519 9.4519L23.0126 10.5126C23.696 9.82915 24.804 9.82915 25.4874 10.5126L26.5481 9.4519ZM29.941 6.05897C33.0197 9.1376 33.0197 14.129 29.941 17.2077L31.0017 18.2683C34.6661 14.6039 34.6661 8.66272 31.0017 4.99831L29.941 6.05897ZM31.0017 4.99831C27.3373 1.3339 21.3961 1.3339 17.7317 4.99831L18.7923 6.05897C21.871 2.98034 26.8624 2.98034 29.941 6.05897L31.0017 4.99831ZM15.1516 14.5551L10.5115 19.1952L11.5722 20.2559L16.2123 15.6158L15.1516 14.5551ZM16.8048 25.4885L18.3553 23.938L17.2946 22.8773L15.7441 24.4278L16.8048 25.4885ZM18.3553 23.938L21.4452 20.848L20.3846 19.7873L17.2946 22.8773L18.3553 23.938ZM9.76591 21.3208L10.056 23.9316L11.5468 23.7659L11.2567 21.1552L9.76591 21.3208ZM12.0684 25.944L14.6792 26.2341L14.8448 24.7433L12.2341 24.4532L12.0684 25.944ZM10.6248 25.115L10.885 25.3752L11.9457 24.3146L11.6854 24.0543L10.6248 25.115ZM12.2341 24.4532C12.125 24.4411 12.0233 24.3922 11.9457 24.3146L10.885 25.3752C11.2035 25.6937 11.6208 25.8943 12.0684 25.944L12.2341 24.4532ZM10.056 23.9316C10.1057 24.3792 10.3063 24.7965 10.6248 25.115L11.6854 24.0543C11.6078 23.9767 11.5589 23.875 11.5468 23.7659L10.056 23.9316ZM15.7441 24.4278C15.5078 24.6641 15.1769 24.7802 14.8448 24.7433L14.6792 26.2341C15.4642 26.3213 16.2463 26.047 16.8048 25.4885L15.7441 24.4278ZM10.5115 19.1952C9.95304 19.7537 9.67869 20.5358 9.76591 21.3208L11.2567 21.1552C11.2198 20.8231 11.3359 20.4922 11.5722 20.2559L10.5115 19.1952ZM16.7318 13.6024C16.0608 10.9892 16.7488 8.10252 18.7923 6.05897L17.7317 4.99831C15.2979 7.43211 14.4815 10.8699 15.279 13.9754L16.7318 13.6024ZM29.941 17.2077C27.8975 19.2512 25.0108 19.9392 22.3976 19.2682L22.0246 20.721C25.1301 21.5185 28.5679 20.7021 31.0017 18.2683L29.941 17.2077ZM21.4452 20.848C21.5684 20.7249 21.7824 20.6589 22.0246 20.721L22.3976 19.2682C21.7175 19.0935 20.9348 19.2371 20.3846 19.7873L21.4452 20.848ZM16.2123 15.6158C16.7623 15.0658 16.9066 14.2829 16.7318 13.6024L15.279 13.9754C15.3411 14.2172 15.275 14.4318 15.1516 14.5551L16.2123 15.6158ZM18.3524 22.8744L16.166 20.712L15.1112 21.7785L17.2975 23.9409L18.3524 22.8744Z" fill="currentColor" />
      <path d="M33 22.4894C32.9042 26.6805 32.5038 29.1285 30.8312 30.8011C28.6323 33 25.0933 33 18.0151 33C10.9369 33 7.39781 33 5.19891 30.8011C3 28.6022 3 25.0631 3 17.9849C3 10.9067 3 7.36766 5.19891 5.16875C6.87149 3.49617 9.31946 3.09583 13.5106 3" stroke="currentColor" stroke-width="1.5" stroke-linecap="round" />


    </symbol>
    <symbol id="crop" width="100%" height="100%" viewBox="0 0 36 36" fill="none">
      <path d="M33 28.5H19.5C13.8431 28.5 11.0147 28.5 9.25736 26.7426C7.5 24.9853 7.5 22.1569 7.5 16.5V3" stroke="currentColor" stroke-width="1.5" stroke-linecap="round" />
      <path d="M12 7.5H16.5C22.1569 7.5 24.9853 7.5 26.7426 9.25736C28.5 11.0147 28.5 13.8431 28.5 19.5V24M3 7.5H7.5M28.5 28.5V33" stroke="currentColor" stroke-width="1.5" stroke-linecap="round" />




    </symbol>
    <symbol id="download" width="100%" height="100%" viewBox="0 0 20 20" fill="none">
      <path d="M10 3.33337L10 16.6667M10 16.6667L15 11.6667M10 16.6667L5 11.6667" stroke="currentColor" stroke-width="1.5" stroke-linecap="round" stroke-linejoin="round" />
    </symbol>
    <!--  -->
    <!--  -->
    <!--  -->
  </defs>
</svg>