<svg width="320" height="226" viewBox="0 0 320 226" fill="none" xmlns="http://www.w3.org/2000/svg">
<path d="M199.168 22.4697C188.825 26.6035 187.234 37.3525 187.234 37.3525L193.002 48.1001C193.002 48.1001 194.195 35.0782 211.102 33.4248C228.009 31.7713 252.871 37.7658 273.954 44.0697C295.038 50.3743 320 57.6083 320 57.6083V48.3068C320 48.3068 220.45 12.9615 199.168 22.4697Z" fill="white"/>
<path d="M213.887 44.5867C198.572 46.4468 199.367 57.6079 199.367 57.6079C199.367 57.6079 202.55 61.3289 204.936 65.6693C205.931 61.3289 209.909 53.8875 229.799 54.3009C237.867 54.4689 254.234 58.0726 270.838 62.2963C273.098 58.836 276.913 56.5618 281.242 56.5618C287.791 56.5618 293.165 61.7716 293.748 68.4209C308.63 72.5626 319.999 76.0049 319.999 76.0049V65.876C250.684 44.1733 229.202 42.7265 213.887 44.5867Z" fill="white"/>
<path d="M282.633 82.5913V85.1442C288.107 86.3797 292.229 87.3205 293.447 87.5798C297.574 88.4586 320 93.9877 320 93.9877V84.7302C320 84.7302 305.192 80.9132 291.331 77.3769C289.302 80.2211 286.197 82.1833 282.633 82.5913Z" fill="white"/>
<path d="M268.855 71.7293C260.01 69.6204 241.736 64.9973 231.042 64.9466C220.202 64.8946 216.97 65.5147 212.694 68.9257C211.401 70.2171 210.008 73.8348 210.008 73.8348L215.13 82.5676C215.13 82.5676 215.677 77.8652 220.351 76.6764C225.025 75.4876 229.799 74.8162 240.888 76.4184C248.168 77.4698 266.766 81.5735 279.849 84.5165V82.5916C274.24 81.9482 269.755 77.4665 268.855 71.7293Z" fill="white"/>
<path d="M287.066 104.934C304.168 108.603 320 111.971 320 111.971V102.772C320 102.772 300.598 98.4436 282.633 94.4499V102.117C284.426 102.47 285.972 103.503 287.066 104.934Z" fill="white"/>
<path d="M279.85 93.8312C271.364 91.9457 263.454 90.1916 258.39 89.0781C242.18 85.5131 223.533 82.6189 220.252 91.3003L224.628 99.8265C224.628 99.8265 226.318 97.0369 231.688 96.6235C237.059 96.2095 246.407 96.1575 268.385 100.912C271.387 101.561 274.533 102.239 277.725 102.927C278.386 102.557 279.089 102.267 279.85 102.117V93.8312Z" fill="white"/>
<path d="M286.453 121.563H286.454H288.692H286.453Z" fill="white"/>
<path d="M285.817 115.867H288.692C290.195 115.867 291.418 117.139 291.418 118.701V120.462C291.418 121.182 291.138 121.823 290.71 122.323C315.655 126.241 320 126.904 320 126.904V119.394C320 119.394 304.288 116.219 287.981 113.039C287.48 114.14 286.747 115.116 285.817 115.867Z" fill="white"/>
<path d="M273.791 115.867H276.666C275.023 114.54 274 112.522 273.837 110.314C265.638 108.759 258.527 107.467 254.827 106.923C242.164 105.063 229.368 104.857 228.97 107.888L232.285 116.5C232.285 116.5 232.418 115.674 236.528 115.398C239.61 115.191 253.756 116.34 271.064 118.96V118.701C271.064 117.139 272.288 115.867 273.791 115.867Z" fill="white"/>
<path d="M264.913 133.124C265.003 133.124 265.095 133.132 265.186 133.147C265.814 133.256 266.328 133.726 266.51 134.36C266.631 134.779 266.794 135.189 266.979 135.589C270.326 135.957 273.927 136.354 277.627 136.761V127.818C257.089 125.466 236.458 123.463 234.771 124.682L236.263 134.449C236.263 134.449 238.352 132.434 258.043 134.604C259.524 134.767 261.146 134.946 262.855 135.134C263.209 134.374 263.512 133.914 263.556 133.85C263.871 133.39 264.38 133.124 264.913 133.124Z" fill="white"/>
<path d="M293.596 138.519C294.545 137.378 295.519 135.937 295.972 134.36C296.155 133.726 296.669 133.256 297.296 133.147C297.388 133.132 297.479 133.124 297.57 133.124C298.103 133.124 298.611 133.39 298.927 133.85C299.026 133.993 300.433 136.115 300.776 139.31C311.714 140.513 320 141.425 320 141.425V133.054C320 133.054 303.407 130.852 284.856 128.659V137.557C287.803 137.882 290.742 138.205 293.596 138.519Z" fill="white"/>
<path d="M283.961 154.701C284.895 154.049 286.03 153.412 287.327 152.696C286.03 153.412 284.895 154.049 283.961 154.701Z" fill="white"/>
<path d="M276.406 145.785L273.165 145.567C273.871 145.911 274.585 146.131 275.274 146.131C275.683 146.131 276.058 145.988 276.406 145.785Z" fill="white"/>
<path d="M274.649 152.416C275.902 153.106 276.981 153.708 277.92 154.312C276.98 153.708 275.902 153.106 274.649 152.416Z" fill="white"/>
<path d="M270.453 152.008C268.077 150.596 266.484 148.936 265.43 147.46C265.291 147.545 265.138 147.611 264.976 147.652C264.844 147.685 264.712 147.701 264.581 147.701C263.969 147.701 263.392 147.349 263.101 146.765C262.774 146.108 262.529 145.468 262.321 144.839L236.86 143.13C236.86 143.13 236.562 147.987 235.169 152.018C240.937 151.708 261.921 152.949 269.38 153.672C270.406 153.771 272.026 153.899 274.045 154.044C274.023 154.032 274.007 154.023 273.985 154.011C272.918 153.423 271.74 152.773 270.453 152.008Z" fill="white"/>
<path d="M297.507 147.679C297.339 147.636 297.181 147.569 297.038 147.481C295.984 148.952 294.394 150.602 292.029 152.008C290.743 152.773 289.564 153.423 288.497 154.011C287.927 154.325 287.424 154.607 286.932 154.886C300.438 155.715 316.797 156.604 319.999 156.669V148.712L298.953 147.298C298.652 147.561 298.28 147.726 297.885 147.726C297.76 147.726 297.633 147.711 297.507 147.679Z" fill="white"/>
<path d="M232.484 159.563C232.484 159.563 227.711 166.591 224.926 168.554C232.782 168.037 240.738 167.624 253.667 168.554C266.595 169.484 315.425 172.068 320 171.138V163.386C320 163.386 258.838 160.803 251.777 160.493C244.716 160.183 233.777 160.079 232.484 159.563Z" fill="white"/>
<path d="M222.34 175.479C212.892 175.789 206.229 186.124 206.229 186.124C208.915 186.227 249.788 185.607 258.838 185.71C267.888 185.814 319.999 185.504 319.999 185.504V177.855C319.999 177.855 286.187 177.442 276.639 177.132C267.092 176.822 231.788 175.169 222.34 175.479Z" fill="white"/>
<path d="M204.24 193.255C201.356 196.251 201.754 199.456 202.947 203.693C202.947 203.693 203.942 198.422 216.97 198.422C229.998 198.422 309.259 199.248 313.436 199.146C317.613 199.042 320 199.146 320 199.146V191.808C320 191.808 219.655 190.671 219.158 190.671C218.66 190.671 207.124 190.258 204.24 193.255Z" fill="white"/>
<path d="M246.308 205.037C234.672 205.243 211.898 204.727 209.113 206.897C206.329 209.067 204.34 211.341 210.505 217.335C210.505 217.335 210.903 213.511 217.268 213.408C224.727 212.995 307.171 212.271 312.441 212.374C317.712 212.477 320 212.364 320 212.364V205.553C320 205.553 257.943 204.829 246.308 205.037Z" fill="white"/>
<path d="M293.133 218.782C280.488 218.679 230.793 218.679 224.031 219.092C217.268 219.506 214.881 220.436 215.776 221.986C216.671 223.536 219.953 225.5 219.953 225.5H320V218.725C320 218.725 305.779 218.885 293.133 218.782Z" fill="white"/>
<path d="M224.926 2.67812C186.737 -4.55655 177.389 7.84594 176.394 16.3201C175.4 24.7949 181.566 29.3419 181.566 29.3419C181.566 29.3419 180.969 9.70611 218.362 12.393C255.755 15.0799 320 39.2269 320 39.2269V29.3419C320 29.3419 258.937 9.70611 224.926 2.67812Z" fill="#D7DF28"/>
<path d="M283.374 155.153C282.913 155.516 282.487 155.887 282.136 156.295C281.89 156.58 281.672 156.882 281.482 157.204C281.372 157.391 281.111 157.391 281.001 157.204C280.81 156.882 280.592 156.58 280.347 156.295C280.101 156.008 279.828 155.738 279.527 155.478C279.063 155.074 278.513 154.693 277.92 154.312C276.507 154.218 275.213 154.128 274.044 154.044C276.842 155.585 278.697 156.614 279.58 158.11C279.935 158.715 280.557 159.077 281.242 159.077C281.926 159.077 282.547 158.715 282.904 158.108C283.613 156.906 284.979 155.996 286.932 154.886C285.922 154.825 284.931 154.762 283.961 154.701C283.75 154.849 283.566 155.002 283.374 155.153Z" fill="white"/>
<path d="M283.27 144.527C283.402 145.194 283.699 145.792 284.097 146.301L290.753 146.748C291.109 146.534 291.454 146.305 291.781 146.058C292.187 145.753 292.571 145.43 292.923 145.106C293.179 144.872 293.418 144.636 293.64 144.408C293.862 144.179 294.066 143.958 294.249 143.75C294.618 143.335 294.906 142.974 295.098 142.723C294.912 142.659 294.675 142.622 294.463 142.571C293.829 142.419 293.116 142.307 292.223 142.307C292.223 142.307 292.482 142.103 292.889 141.731C293.297 141.358 293.852 140.819 294.446 140.148C294.742 139.813 295.048 139.446 295.35 139.05C295.424 138.952 295.493 138.838 295.567 138.736C294.914 138.664 294.259 138.592 293.596 138.519C292.396 139.961 291.233 140.913 291.213 140.929C290.645 141.381 290.416 142.159 290.645 142.862C290.813 143.377 291.198 143.769 291.672 143.942C290.524 144.972 288.863 146.131 287.209 146.131C285.911 146.131 284.856 145.034 284.856 143.685L284.856 137.557C284.3 137.495 283.744 137.435 283.189 137.373V143.685C283.189 143.974 283.217 144.256 283.27 144.527Z" fill="white"/>
<path d="M286.454 121.563L283.189 121.563V128.463C283.746 128.529 284.302 128.594 284.856 128.659L284.856 123.295H288.692C289.503 123.295 290.211 122.909 290.71 122.323C290.201 122.243 289.697 122.164 289.17 122.082C288.263 121.905 287.358 121.732 286.454 121.563Z" fill="white"/>
<path d="M282.633 106.568V107.361C282.633 107.749 282.482 108.097 282.243 108.356C282.3 108.401 282.37 108.427 282.421 108.478C282.338 108.449 282.241 108.456 282.156 108.432C281.91 108.658 281.595 108.808 281.241 108.808C280.887 108.808 280.573 108.658 280.327 108.432C280.241 108.456 280.145 108.449 280.062 108.478C280.113 108.427 280.183 108.401 280.24 108.356C280 108.097 279.85 107.749 279.85 107.361V106.568C279.286 106.837 278.803 107.255 278.459 107.784C278.218 108.154 278.044 108.576 277.954 109.03C277.91 109.257 277.886 109.492 277.886 109.733C277.886 110.239 278.007 110.711 278.193 111.145C278.599 111.222 279.012 111.301 279.42 111.381C279.518 111.086 279.657 110.814 279.864 110.599C280.217 110.233 280.704 110.006 281.241 110.006C281.779 110.006 282.266 110.233 282.618 110.599C282.97 110.965 283.188 111.471 283.188 112.03V112.107C283.326 112.133 283.461 112.16 283.598 112.187C283.779 111.999 283.936 111.792 284.073 111.565C284.203 111.35 284.305 111.121 284.388 110.877C284.431 110.749 284.478 110.624 284.507 110.489C284.559 110.245 284.596 109.994 284.596 109.733C284.596 108.878 284.289 108.107 283.799 107.501C283.48 107.108 283.088 106.785 282.633 106.568Z" fill="white"/>
<path d="M275.439 109.733C275.439 108.9 275.601 108.107 275.895 107.386C276.188 106.664 276.614 106.015 277.139 105.469C277.663 104.924 278.289 104.482 278.983 104.177C279.259 104.056 279.553 103.973 279.85 103.898V103.384C279.14 103.231 278.432 103.079 277.725 102.927C275.384 104.238 273.772 106.781 273.772 109.733C273.772 109.932 273.823 110.118 273.837 110.314C274.392 110.419 274.944 110.524 275.508 110.632C275.465 110.338 275.439 110.038 275.439 109.733Z" fill="white"/>
<path d="M279.294 121.563H273.791C273.352 121.563 272.976 121.285 272.815 120.89C272.761 120.758 272.731 120.614 272.731 120.461V119.216C272.174 119.13 271.616 119.043 271.064 118.96L271.064 120.461C271.064 122.024 272.287 123.295 273.791 123.295H277.627L277.627 127.818C278.182 127.882 278.739 127.946 279.294 128.01L279.294 121.563Z" fill="white"/>
<path d="M283.5 104.177C284.194 104.482 284.819 104.924 285.344 105.469C285.869 106.014 286.294 106.664 286.588 107.386C286.881 108.107 287.043 108.901 287.043 109.733C287.043 110.388 286.943 111.019 286.757 111.609C286.635 111.996 286.465 112.358 286.274 112.706C286.844 112.817 287.412 112.928 287.981 113.039C288.443 112.024 288.711 110.903 288.711 109.733C288.711 107.912 288.079 106.259 287.066 104.934C285.854 104.674 284.638 104.413 283.419 104.151C283.445 104.162 283.474 104.166 283.5 104.177Z" fill="white"/>
<path d="M276.938 145.414C276.783 145.576 276.592 145.676 276.406 145.785L278.652 145.936C278.808 145.684 278.932 145.411 279.033 145.126C279.194 144.675 279.294 144.195 279.294 143.686L279.294 136.945C278.736 136.883 278.181 136.822 277.627 136.761V143.686C277.627 144.339 277.382 144.953 276.938 145.414Z" fill="white"/>
<path d="M263.473 142.656C263.411 142.307 263.367 141.966 263.339 141.634C263.311 141.301 263.299 140.977 263.299 140.662C263.3 140.347 263.314 140.041 263.338 139.745C263.413 138.859 263.584 138.065 263.787 137.387C263.923 136.934 264.073 136.535 264.219 136.193C264.37 135.836 264.514 135.549 264.633 135.33C264.028 135.264 263.438 135.198 262.855 135.134C262.011 136.953 260.896 140.537 262.321 144.839L264.138 144.961C263.823 144.166 263.604 143.393 263.473 142.656Z" fill="white"/>
<path d="M270.259 142.307C269.366 142.307 268.653 142.419 268.02 142.571C267.808 142.622 267.57 142.659 267.384 142.723C267.802 143.268 268.689 144.327 269.844 145.344L273.165 145.567C272.353 145.172 271.551 144.609 270.808 143.943C271.285 143.771 271.671 143.377 271.839 142.861C272.067 142.156 271.838 141.378 271.268 140.928C271.237 140.903 268.362 138.586 266.978 135.588C266.346 135.519 265.725 135.451 265.112 135.383C265.23 135.717 265.338 136.056 265.488 136.376C267.086 139.802 270.259 142.307 270.259 142.307Z" fill="white"/>
<path d="M299.144 139.746C299.292 141.519 299.051 143.658 297.901 145.968V145.968C297.901 145.968 297.901 145.968 297.901 145.968C297.901 145.968 297.901 144.952 297.07 143.989C296.776 144.718 296.213 145.834 295.234 147.048L298.953 147.298C299.123 147.149 299.276 146.978 299.381 146.765C300.77 143.978 301.002 141.412 300.776 139.31C300.213 139.248 299.644 139.185 299.068 139.122C299.097 139.326 299.126 139.53 299.144 139.746Z" fill="white"/>
<path d="M265.413 143.989C265.106 144.345 264.937 144.691 264.815 145.007L265.935 145.082C265.843 144.911 265.749 144.738 265.675 144.584C265.571 144.365 265.484 144.166 265.413 143.989Z" fill="white"/>
<path d="M282.633 102.117L282.633 103.898C282.901 103.966 283.167 104.044 283.419 104.151C284.639 104.413 285.855 104.674 287.066 104.934C285.972 103.503 284.426 102.47 282.633 102.117Z" fill="white"/>
<path d="M279.85 102.117C279.089 102.266 278.386 102.557 277.725 102.927C278.432 103.079 279.14 103.231 279.85 103.384L279.85 102.117Z" fill="white"/>
<path d="M283.188 112.107L283.189 112.572C283.295 112.494 283.382 112.39 283.478 112.3C283.518 112.262 283.56 112.227 283.598 112.187C283.461 112.16 283.325 112.133 283.188 112.107Z" fill="white"/>
<path d="M283.999 115.039C283.74 115.184 283.469 115.31 283.188 115.414L283.188 117.6H288.692C288.984 117.6 289.249 117.723 289.441 117.923C289.632 118.122 289.751 118.397 289.751 118.701V120.461C289.751 120.765 289.632 121.041 289.441 121.24C289.249 121.439 288.984 121.563 288.692 121.563L286.454 121.563C287.358 121.732 288.263 121.905 289.17 122.082C289.697 122.165 290.201 122.243 290.71 122.323C291.138 121.823 291.418 121.182 291.418 120.462L291.418 118.701C291.418 117.138 290.195 115.867 288.692 115.867H285.817C286.748 115.116 287.48 114.14 287.981 113.039C287.412 112.928 286.843 112.817 286.274 112.706C285.737 113.685 284.954 114.502 283.999 115.039Z" fill="white"/>
<path d="M272.731 118.701C272.731 118.549 272.761 118.405 272.815 118.273C272.975 117.877 273.352 117.6 273.791 117.6H279.294V115.414C277.328 114.686 275.851 112.888 275.513 110.695C275.51 110.675 275.511 110.652 275.508 110.632C274.944 110.524 274.392 110.42 273.838 110.314C274 112.522 275.023 114.54 276.666 115.867H273.791C272.288 115.867 271.065 117.138 271.065 118.701V118.96C271.616 119.043 272.173 119.13 272.731 119.216L272.731 118.701Z" fill="white"/>
<path d="M279.294 112.03C279.294 111.799 279.352 111.587 279.42 111.381C279.011 111.302 278.599 111.222 278.193 111.145C278.429 111.693 278.786 112.171 279.245 112.525C279.262 112.539 279.276 112.559 279.294 112.572V112.03Z" fill="white"/>
<path d="M279.294 136.945V128.01C278.739 127.946 278.183 127.882 277.627 127.818L277.627 136.761C278.181 136.822 278.736 136.883 279.294 136.945Z" fill="white"/>
<path d="M264.913 134.856C264.965 135.037 265.05 135.205 265.112 135.383C265.725 135.451 266.345 135.519 266.979 135.589C266.794 135.189 266.631 134.78 266.51 134.36C266.327 133.726 265.814 133.256 265.186 133.147C265.095 133.132 265.003 133.124 264.913 133.124C264.379 133.124 263.872 133.39 263.555 133.851C263.512 133.914 263.208 134.374 262.855 135.134C263.438 135.198 264.028 135.264 264.633 135.33C264.799 135.024 264.913 134.856 264.913 134.856Z" fill="white"/>
<path d="M283.189 137.373C283.745 137.435 284.3 137.495 284.856 137.557V128.659C284.302 128.594 283.746 128.529 283.189 128.463L283.189 137.373Z" fill="white"/>
<path d="M297.57 133.124C297.479 133.124 297.388 133.132 297.296 133.147C296.668 133.256 296.154 133.726 295.972 134.36C295.519 135.937 294.545 137.378 293.596 138.519C294.259 138.592 294.914 138.664 295.567 138.736C296.09 138.019 296.595 137.233 296.995 136.376C297.223 135.887 297.419 135.379 297.57 134.856C297.57 134.856 297.902 135.34 298.264 136.193C298.409 136.534 298.559 136.934 298.695 137.387C298.849 137.9 298.979 138.486 299.068 139.122C299.644 139.185 300.212 139.248 300.776 139.31C300.433 136.115 299.025 133.993 298.927 133.85C298.611 133.39 298.103 133.124 297.57 133.124Z" fill="white"/>
<path d="M287.209 147.863C288.462 147.863 289.667 147.398 290.753 146.748L284.097 146.3C284.834 147.247 285.947 147.863 287.209 147.863Z" fill="white"/>
<path d="M274.649 152.416C273.854 151.978 272.979 151.488 272.063 150.956C271.801 150.805 271.552 150.666 271.282 150.505C271.111 150.403 270.968 150.295 270.806 150.191C270.18 149.789 269.614 149.372 269.114 148.947C269.012 148.86 268.902 148.774 268.804 148.687C268.153 148.101 267.606 147.51 267.157 146.942C266.625 146.269 266.235 145.639 265.935 145.082L264.815 145.007C264.772 145.119 264.713 145.242 264.685 145.34C264.633 145.526 264.607 145.684 264.594 145.794C264.581 145.905 264.582 145.968 264.582 145.968C264.412 145.628 264.27 145.294 264.138 144.962L262.321 144.84C262.529 145.469 262.774 146.108 263.101 146.765C263.391 147.349 263.969 147.701 264.581 147.701C264.712 147.701 264.844 147.685 264.976 147.652C265.138 147.611 265.291 147.545 265.43 147.46C266.484 148.936 268.077 150.596 270.453 152.008C271.74 152.774 272.918 153.423 273.985 154.011C274.007 154.023 274.023 154.033 274.045 154.044C275.212 154.128 276.507 154.217 277.92 154.312C276.981 153.708 275.902 153.106 274.649 152.416Z" fill="white"/>
<path d="M276.406 145.785C276.058 145.988 275.683 146.131 275.274 146.131C274.585 146.131 273.871 145.911 273.165 145.567L269.844 145.344C271.312 146.638 273.224 147.863 275.274 147.863C275.829 147.863 276.358 147.746 276.838 147.535C277.079 147.429 277.308 147.3 277.522 147.15C277.735 147 277.935 146.829 278.116 146.64C278.299 146.45 278.463 146.244 278.607 146.022C278.625 145.995 278.635 145.963 278.652 145.936L276.406 145.785Z" fill="white"/>
<path d="M294.553 147.837C293.985 148.442 293.309 149.054 292.505 149.643C292.103 149.938 291.669 150.226 291.201 150.504C290.59 150.868 290.003 151.205 289.441 151.522C288.685 151.949 287.992 152.329 287.327 152.696C286.03 153.411 284.896 154.049 283.961 154.701C284.931 154.762 285.922 154.824 286.932 154.886C287.424 154.607 287.927 154.325 288.497 154.011C289.564 153.423 290.743 152.773 292.029 152.008C294.394 150.602 295.984 148.952 297.038 147.481C297.181 147.569 297.339 147.636 297.507 147.679C297.633 147.711 297.76 147.726 297.885 147.726C298.28 147.726 298.652 147.561 298.953 147.298L295.234 147.048C295.025 147.309 294.803 147.571 294.553 147.837Z" fill="white"/>
<path d="M263.339 141.634C263.311 141.301 263.298 140.977 263.3 140.662C263.299 140.977 263.311 141.301 263.339 141.634Z" fill="white"/>
<path d="M284.507 110.489C284.478 110.624 284.431 110.749 284.388 110.877C284.431 110.749 284.478 110.624 284.507 110.489Z" fill="white"/>
<path d="M281.241 157.344C281.148 157.344 281.056 157.297 281.001 157.204C281.111 157.391 281.371 157.391 281.482 157.204C281.426 157.297 281.334 157.344 281.241 157.344Z" fill="white"/>
<path d="M297.901 145.968V145.968C299.052 143.658 299.292 141.519 299.144 139.746C299.292 141.519 299.052 143.658 297.901 145.968Z" fill="white"/>
<path d="M267.384 142.723C267.802 143.267 268.689 144.327 269.844 145.344C268.689 144.326 267.802 143.268 267.384 142.723Z" fill="white"/>
<path d="M283.27 144.527C283.401 145.194 283.699 145.792 284.097 146.301C283.699 145.792 283.402 145.194 283.27 144.527Z" fill="white"/>
<path d="M283.799 107.501C283.48 107.108 283.088 106.786 282.633 106.568C283.088 106.785 283.48 107.108 283.799 107.501Z" fill="white"/>
<path d="M291.781 146.058C291.454 146.305 291.11 146.534 290.753 146.748C291.11 146.534 291.454 146.305 291.781 146.058Z" fill="white"/>
<path d="M270.806 150.191C270.968 150.295 271.111 150.403 271.282 150.505C271.552 150.666 271.801 150.805 272.063 150.956C271.801 150.805 271.553 150.666 271.282 150.505C271.112 150.403 270.968 150.295 270.806 150.191Z" fill="white"/>
<path d="M269.114 148.947C269.012 148.86 268.901 148.774 268.804 148.687C268.901 148.774 269.012 148.86 269.114 148.947Z" fill="white"/>
<path d="M284.097 146.3C284.834 147.247 285.947 147.863 287.209 147.863C285.946 147.863 284.834 147.247 284.097 146.3Z" fill="white"/>
<path d="M23.513 46.2362C18.938 46.2362 16.9433 48.0603 16.9164 50.5486C16.7836 53.2568 19.0977 54.833 24.2579 55.9664L28.7264 56.9612C40.7488 59.6421 45.696 65.696 45.7492 74.3201C45.696 85.4872 37.4242 91.6791 23.6195 91.6791C9.41576 91.6791 0.159173 85.3211 0.106565 71.1138H14.1506C14.3899 76.3103 17.7414 79.0745 23.4065 79.0745C28.1413 79.0745 30.5882 77.1117 30.6415 74.3201C30.5882 71.7492 28.5134 70.1737 22.4493 68.7923L17.0229 67.5755C7.36786 65.4193 1.46285 60.4995 1.48979 51.654C1.4096 40.8737 10.5597 33.6316 23.513 33.6316C36.7056 33.6316 44.9511 40.9843 45.0043 52.096H30.8539C30.5619 48.4204 28.3004 46.2362 23.513 46.2362Z" fill="white"/>
<path d="M53.2566 34.4058H68.0455V56.5192H87.6217V34.4058H102.411V91.0157H87.6217V68.9023H68.0455V91.0157H53.2566V34.4058Z" fill="white"/>
<path d="M126.089 91.0158H111.3V34.4058H126.089V91.0158Z" fill="white"/>
<path d="M154.983 62.2683C160.169 62.2683 163.281 59.2553 163.281 54.4182C163.281 49.5531 160.169 46.6788 154.983 46.6788H149.77V62.2683H154.983ZM134.981 34.4057H158.494C170.596 34.4057 178.709 42.3671 178.709 54.4182C178.709 66.608 170.383 74.21 157.962 74.21H149.77V91.0156H134.981V34.4057Z" fill="white"/>
<path d="M0 103.293H47.3454V115.677H30.9603V159.903H16.3844V115.677H0V103.293Z" fill="#D7DF28"/>
<path d="M54.7458 103.293H94.0055V115.677H69.5347V125.407H91.9839V137.79H69.5347V147.52H93.899V159.903H54.7458V103.293Z" fill="#D7DF28"/>
<path d="M139.07 124.522C138.644 119.381 135.399 115.898 129.707 115.898C122.259 115.898 118.216 121.759 118.216 131.598C118.216 141.992 122.392 147.299 129.601 147.299C135.027 147.299 138.325 144.285 139.07 139.449L154.071 139.56C153.327 149.178 145.24 160.677 129.281 160.677C114.28 160.677 103.002 150.423 103.002 131.598C103.002 112.692 114.599 102.519 129.281 102.519C143.006 102.519 152.901 110.48 154.071 124.522H139.07Z" fill="#D7DF28"/>
<path d="M162.641 103.293H177.43V125.407H197.007V103.293H211.795V159.903H197.007V137.79H177.43V159.903H162.641V103.293Z" fill="#D7DF28"/>
<path d="M14.879 175.853C8.83476 175.853 3.98576 180.823 3.98576 190.004C3.98576 199.185 8.83476 204.155 15.1452 204.155C20.9078 204.155 24.9266 200.151 25.0415 193.8H16.0755V190.004H29.0276V193.8C29.0276 202.55 23.2476 208.158 15.1452 208.158C6.11129 208.158 0.000323057 201.186 0.000323057 190.004C0.000323057 178.822 6.16133 171.849 14.879 171.849C22.0524 171.849 27.5667 176.543 28.8287 183.377H24.5776C23.1328 178.736 19.7941 175.853 14.879 175.853Z" fill="white"/>
<path d="M36.0901 172.333H40.2084V203.878H56.0179V207.675H36.0901V172.333Z" fill="white"/>
<path d="M74.7639 175.853C68.5862 175.853 63.7365 180.823 63.7365 190.004C63.7365 199.185 68.5862 204.155 74.7639 204.155C80.9416 204.155 85.7893 199.185 85.7893 190.004C85.7893 180.823 80.9416 175.853 74.7639 175.853ZM74.7639 208.158C66.0629 208.158 59.7524 201.186 59.7524 190.004C59.7524 178.822 66.0629 171.849 74.7639 171.849C83.4649 171.849 89.7753 178.822 89.7753 190.004C89.7753 201.186 83.4649 208.158 74.7639 208.158Z" fill="white"/>
<path d="M108.993 203.879C114.375 203.879 116.432 201.394 116.432 198.287C116.432 194.698 113.644 191.591 109.194 191.591H100.824V203.879H108.993ZM108.462 187.864C112.181 187.864 115.104 185.448 115.104 181.721C115.104 178.614 113.111 176.129 108.595 176.129H100.824V187.864H108.462ZM96.7054 172.333H108.595C115.703 172.333 119.024 176.544 119.024 181.721C119.024 186.276 116.432 188.278 113.511 189.107V189.452C116.633 189.659 120.352 192.696 120.352 198.287C120.352 203.603 117.031 207.675 108.993 207.675H96.7054V172.333Z" fill="white"/>
<path d="M144.415 193.87L138.969 177.924H138.703L133.257 193.87H144.415ZM124.223 207.676L136.711 172.333H140.962L153.45 207.676H149.132L145.71 197.666H131.961L128.54 207.676H124.223Z" fill="white"/>
<path d="M158.781 172.333H162.899V203.878H178.709V207.675H158.781V172.333Z" fill="white"/>
</svg>
