<svg width="444" height="100" viewBox="0 0 444 100" fill="none" xmlns="http://www.w3.org/2000/svg">
  <path fill-rule="evenodd" clip-rule="evenodd" d="M13.3 35.6c6.64-4.3 12.15-10.08 17.22-16.73-3.64.79-8.08 2.07-12.36 5.93-3.44 3.08-4.36 7.22-4.72 9.8l-.43.42h.36c-.07.22-.07.36-.07.58Zm10.15-11.37-1.86 2.15 1.5.07h.07l.43-.43.5-.57.5-.58.5-.57.5-.57.5-.57.5-.57.5-.57.5-.58.5-.57.5-.57.22-.29-.22.08-.36.07-.35.07-.36.14-.36.14-.36.15-.35.14-.36.14-.36.15-.35.14-.36.14-.36.15-.43.21-.36.14-.35.22-.43.21-.36.22-.36.21-.43.21-.42.22-.36.29-.36.21v.07l.21 2.43 2.08-2.36.14-.14c.14-.5.64.07.22.57Zm-.93 2.79-1.5-.07-1.58 1.86 1.07.07h.15l.21-.15.5-.5.5-.5.65-.71Zm-2.43 2.43-1.15-.07-3.29 3.79.22-.22.57-.43.57-.43.57-.5.58-.43.57-.5.57-.5.57-.5.22-.21Zm-5.87 4.15 3.44-3.94v-.35l-.3-2.8-.06.15-.29.36-.28.36-.22.35-.21.36-.22.36-.21.36-.14.35-.22.36-.14.36-.14.36-.15.35-.14.36-.14.36-.15.36-.07.35-.14.36-.07.36-.07.35-.08.3v.2Zm3.8-7.72v.28l.2 2.93.3-.28 1.7-1.93-.2-2.65-.22.22-.43.28-.36.36-.43.36-.35.28-.22.15ZM5.78 46.53c4.15-5.93 6.65-12.58 8.43-19.73-3 2-6.43 4.65-8.64 9.3-1.8 3.64-.86 7.43-.15 9.58l-.21.57.36-.15.21.43Zm4.36-12.8-.79 2.37 1.36-.5h.07l.22-.5.21-.65.22-.64.21-.64.22-.65.21-.64.21-.64.22-.65.14-.64.22-.64.14-.65.07-.35-.14.14-.29.21-.28.22-.29.21-.29.22-.28.21-.29.22-.28.21-.29.29-.29.28-.28.29-.29.28-.28.29-.29.29-.29.28-.28.29-.22.35-.28.36-.22.36-.21.36-.21.35-.22.29v.07l1.22 1.86.85-2.64v-.15c.22-.57 1-.28.79.29Zm.36 2.51-1.36.5-.64 2.07 1-.35.14-.08.07-.21.29-.57.28-.57.22-.65v-.14ZM9.29 39.1l-1.07.36-1.43 4.29.14-.3.36-.56.29-.57.35-.58.29-.57.29-.57.28-.57.29-.57.21-.36Zm-3.5 5.5 1.43-4.43L7 39.9l-1.42-2.15v.14l-.15.36-.07.36-.07.36-.07.35-.07.36v1.78l.07.36v.35l.07.36.07.36.07.35.07.3.08.28.07.28.07.29.07.21Zm.14-7.65.15.22 1.5 2.22.14-.36.71-2.15-1.5-2-.14.22-.21.43-.22.35-.14.43-.22.43-.07.21Zm3 5.44c4.22-5.36 9.65-9.44 15.73-13.08-.93 3.14-2.43 6.86-6.08 10.22-2.85 2.64-6.57 2.86-8.72 2.86l-.42.35.07-.35a.82.82 0 0 1-.58 0Zm10.58-7.5-1.93 1.35.08-1.29v-.07l.35-.28.5-.36.5-.36.5-.36.5-.35.5-.36.5-.36.5-.36.58-.35.5-.36.57-.36.29-.14-.08.14-.14.29-.14.36-.15.28-.14.36-.14.28-.14.36-.15.29.07.21-.14.36-.21.36-.15.28-.14.36-.14.36-.22.28-.21.29-.21.36-.22.28-.21.36-.22.36-.28.28-.22.29-2.07-.57 2.2-1.5.15-.07c.28-.43-.22-1-.65-.65Zm-2.5.42-.07 1.29-1.71 1.21v-1.14l.14-.14.5-.43.5-.43.64-.36Zm-2.21 1.86-.08 1-3.5 2.43.22-.21.43-.43.42-.43.43-.43.43-.43.43-.43.5-.43.5-.43.22-.21Zm-4.08 4.65 3.65-2.5.28.07 2.43.64-.07.07-.36.21-.28.22-.29.14-.35.14-.36.15-.29.14-.36.14-.35.15-.29.07-.36.07-.35.07-.29.07-.29.07-.28.08-.29.07h-1.15l-.35-.07Zm7-2.3-.2-.06-2.5-.65.28-.21 1.78-1.22 2.3.58-.22.21-.29.29-.29.28-.28.29-.29.28-.28.22Z" fill="#E4C779"/>
  <path fill-rule="evenodd" clip-rule="evenodd" d="M82.7 43.39c.65 2.5 1 5.14 1 7.86 0 17.94-15.08 32.52-33.52 32.52-18.44 0-33.53-14.65-33.53-32.52 0-2.72.36-5.36 1-7.86h-.92c-.65 2.5-1 5.14-1 7.86 0 18.37 15.44 33.38 34.45 33.38 18.94 0 34.45-15 34.45-33.38 0-2.72-.36-5.36-1-7.86h-.93Z" fill="#E4C779"/>
  <path fill-rule="evenodd" clip-rule="evenodd" d="M96.57 35.81a46.4 46.4 0 0 1 2.64 15.44c0 26.23-22.01 47.6-49.03 47.6S1.14 77.49 1.14 51.26c0-5.43.93-10.58 2.65-15.44H2.57A46.35 46.35 0 0 0 0 51.25C0 78.13 22.59 100 50.25 100s50.25-21.87 50.25-48.75c0-5.43-.93-10.58-2.57-15.44h-1.36Z" fill="#E4C779"/>
  <path fill-rule="evenodd" clip-rule="evenodd" d="m8.3 51.4.7-.08c.08.93.22 1.58.44 1.86.21.29.64.36 1.28.36h.43c.5-.07.93-.14 1.14-.22.43-.21.58-.5.58-1 0-.43-.22-.78-.5-.93a1.9 1.9 0 0 0-1-.21c-.15 0-.22 0-.3.07-.06 0-.13.07-.2.07a.15.15 0 0 1-.15-.14v-.21c0-.3 0-.5-.07-.65 0-.14-.07-.5-.14-.93v-.14s.14-.07.28-.07c.93-.07 1.65.36 2.15 1.21.36.58.5 1.29.57 2.08.07.85-.14 1.64-.5 2.28-.43.65-.93 1-1.64 1a1.87 1.87 0 0 1-1.65-.71 3.5 3.5 0 0 1-.64-1.29L9 53.61h-.22c0 .14-.07.43-.14.71-.14.5-.29.86-.5 1.15-.36.5-.86.71-1.57.78a2.15 2.15 0 0 1-1.86-.64 2.4 2.4 0 0 1-.79-1.71v-.72c.07-.28.14-.71.29-1.43.07-.21.07-.36.07-.43a.4.4 0 0 0-.22-.35.9.9 0 0 0-.64-.08h-.21c-.15 0-.15.08-.22.08-.14 0-.21 0-.21-.15v-.28c0-.08.07-.15.07-.29v-.21c0-.15-.07-.22-.14-.36-.08-.14-.08-.14-.08-.22 0-.07.08-.14.22-.28.14-.07.36-.14.64-.14.5 0 .86.07 1.22.35.28.29.5.57.5.86 0 .21 0 .5-.14.79-.08.35-.22.57-.3.93-.06.21-.06.42-.13.64 0 .21-.08.36-.08.5 0 .36.22.64.65.79a3 3 0 0 0 1.21.14h.72c.43-.07.78-.22.93-.5.21-.29.28-.57.21-1v-1.15Zm6.5 9.07c0 .07 0 .14-.08.29 0 0-.07.14-.21.36-.21.21-.29.42-.36.5-.07.14-.21.42-.5.92a4.93 4.93 0 0 1-1.07 1.43c-.5.43-1.14.72-1.86.93a4.56 4.56 0 0 1-3.36-.64c-.07-.07-.64-.36-1.78-1-.5-.29-.86-.57-.86-.72 0-.07 0-.21.07-.35.07-.15.29-.5.57-1.07.36-.65.57-1.08.72-1.22.28-.43.64-.79 1-1.07.5-.36 1-.57 1.64-.72a5.24 5.24 0 0 1 2.93.29c.64.21 1.36.64 2.07 1.14.15.15.29.22.43.29.07.07.15.07.22.14.14.07.21.14.28.22.07.14.07.21.15.28Zm-2-.43c-.15-.43-.5-.71-1-.93-.5-.21-.94-.21-1.36-.14-.43.07-.86.36-1.3.79-.35.35-.85 1-1.35 1.71-.28.5-.57.79-.71 1a1.5 1.5 0 0 1-.58.36c.3.36.58.57 1 .86.43.21.8.36 1.22.28.07 0 .14 0 .21-.07.08 0 .15 0 .22-.07.36-.14.79-.5 1.29-1.14.07-.07.35-.43.85-1.07.22-.36.5-.65.72-1l.78-.58Zm9.93 15.09c.07.07.07.14.07.28 0 0 0 .14-.07.43 0 .29-.07.5-.07.57 0 .14-.07.5-.07 1a8.5 8.5 0 0 1-.29 1.72 3.44 3.44 0 0 1-1.21 1.5c-.5.36-1 .57-1.5.71-.43.08-1 .08-1.65 0-.07 0-.71-.07-1.86-.28a3.45 3.45 0 0 1-1.07-.29c-.07-.07-.07-.21-.07-.36 0-.21 0-.57.07-1.21.07-.72.07-1.22.14-1.36a4.1 4.1 0 0 1 1.5-2.64 4.15 4.15 0 0 1 2.65-.79c.64 0 1.36.07 2.22.36.14.07.28.07.5.14.07 0 .14.07.21.07.14 0 .29.07.36.15 0-.15.07-.08.14 0Zm-1.86.28c-.28-.36-.71-.5-1.21-.5s-.86.14-1.22.36c-.36.21-.57.64-.78 1.21-.15.5-.36 1.22-.43 2.08-.07.57-.15.93-.22 1.14-.07.21-.21.36-.36.57a3 3 0 0 0 1.22.43c.43.07.86 0 1.14-.21.08 0 .15-.08.22-.15l.14-.14c.22-.29.5-.79.64-1.5.08-.07.15-.5.29-1.29l.21-1.14c.08-.36.22-.64.36-.86Zm3.86 12.15 4.3-6.5-.51-.29c-.43-.28-.71-.36-.93-.36-.36.08-.86.36-1.5 1-.07.08-.21.15-.29.3-.14.13-.28.13-.42.06-.15-.07-.15-.14-.15-.28a.5.5 0 0 1 .15-.36c.07-.14.21-.29.21-.5.07-.14.14-.36.14-.5s.07-.36.15-.72c.07-.21.07-.35.14-.42.07-.15.14-.15.28-.22a.9.9 0 0 1 .43.07c.15.15.36.36.58.5.21.22.5.36.78.57l.36.29 3.22 2 .42.22c.36.21.65.35.86.5.22.07.5.21.72.28.14.15.21.22.28.36.07.14 0 .29-.07.36l-.21.21-.65.43c-.14.14-.28.22-.5.36l-.35.36c-.15.14-.15.28-.22.28-.14.14-.28.14-.43 0-.14-.07-.14-.28-.07-.5 0-.14.07-.36.22-.64.21-.57.21-1 .14-1.36-.07-.22-.22-.36-.5-.57l-.22-.15-.5-.28-4.29 6.5.93.58-.28.42-3.5-2.21.28-.43 1 .64Zm13.8-2.5c.07 0 .14.07.21.14 0 0 .14.15.22.36.14.22.28.36.43.5.07.07.28.36.64.79.5.57.86 1.07 1 1.43.29.57.36 1.21.21 1.86a3.47 3.47 0 0 1-.57 1.5c-.21.35-.64.71-1.14 1.14-.07.07-.57.43-1.57 1.07-.5.36-.8.5-.93.5-.15 0-.22-.07-.36-.21l-.86-.86c-.5-.57-.79-.86-.93-1a3.87 3.87 0 0 1-.71-1.29 4.29 4.29 0 0 1-.15-1.64c.15-.86.58-1.64 1.3-2.43a8.33 8.33 0 0 1 1.85-1.29l.43-.21c.07-.07.14-.07.21-.14.15-.08.22-.15.36-.15.21-.07.29-.07.36-.07Zm-1.07 1.5c-.5 0-.86.14-1.22.5s-.5.72-.57 1.15c-.07.35.07.85.28 1.35.22.5.65 1.08 1.22 1.8.36.42.57.78.71.92.08.21.15.36.15.57.43-.07.78-.28 1.14-.57.36-.29.57-.57.72-.93 0-.07.07-.14.07-.21v-.22c0-.36-.22-.86-.65-1.5-.07-.07-.28-.43-.71-1.07-.22-.36-.43-.64-.64-1-.36-.22-.43-.5-.5-.79Zm12.58 3.65-2.86 3.36v2.14h.85v.5h-4v-.5h1.07V88h-1.07v-.5h3.86v.5h-.78v4.72l2.85-3.36V88h-.78v-.5h3.86v.5h-1.07v7.72h1.07v.5h-4v-.5h.92v-5.5h.08Zm.07-5.08.57.22a4 4 0 0 1-.86 1.28c-.36.36-.78.5-1.21.5-.5 0-.86-.21-1.22-.64a2.9 2.9 0 0 1-.57-1.36l.5-.14c.14.29.21.5.43.64.21.22.5.36.78.36.43 0 .8-.07 1.08-.29.21-.14.35-.35.5-.57Zm22.01 5 .72-.42c-.72-.65-1.5-1.36-2.29-2.22-.43-.43-.93-1-1.57-1.71l-.72-.8c-.07.22-.07.44-.07.58v.72c0 .57.07 1 .14 1.5.15.64.3 1.21.5 1.64.3.5.5.79.65.86.14.07.21.07.28.07.15-.07.22-.07.29 0 .14.14.36.43.71.93.08.14.08.21 0 .29l-.21.21c-.07.07-.14.07-.21.14a.54.54 0 0 0-.29.15c-.07 0-.21.07-.21.14-.08.07-.15.07-.22.14l-.14.14c-.07 0-.14.08-.22.15-.14.07-.28.14-.35.07-.15 0-.22-.14-.29-.22l-.21-.35a4.8 4.8 0 0 1-.5-1.29c-.08-.5-.15-1.21-.22-2.29l-.07-1.78c0-.58-.07-1.08-.07-1.43-.07-.36-.07-.65-.22-.79-.07-.07-.14-.14-.21-.14a.54.54 0 0 0-.29.14l-.78.43-.29-.43 3.72-2.07.28.43-.71.35a38.9 38.9 0 0 0 4.86 5.15l.64.64.86-.43.29.43-3.3 1.86-.28-.78Zm2.65-11.22-.79.65-.36-.43 3-2.58.36.36-.78.65 7.15 4.43.71-.57.36.35-2.93 2.5-.36-.42.71-.65-2.93-1.78c.5.85.79 1.71.93 2.64.15 1.07-.07 1.86-.57 2.29-.28.28-.64.35-1 .35-.43 0-.79-.21-1.14-.57a4.86 4.86 0 0 1-.79-1.35 9.03 9.03 0 0 1-.5-1.8c-.07-.5-.21-1.06-.29-1.85-.07-.36-.07-.64-.14-1-.07-.5-.21-.79-.43-1.07 0 .07-.14 0-.21-.15Zm3.14 2-1.78-1.14.21 1.29c.07.36.14.64.14.93.07.5.22.86.29 1.07.14.5.36.93.64 1.29l.22.21c.14.14.35.22.5.22.14 0 .28-.08.43-.22.35-.29.42-.86.21-1.79-.29-.71-.5-1.35-.86-1.85Zm10.72-14.86.15-.43c-.29 0-.5.07-.65.21-.14.15-.28.22-.28.36-.07.29-.07.5-.07.79.07.28.14.5.28.71.36 0 .57.07.79.07h.71c.5 0 .86-.07 1-.07a5.52 5.52 0 0 1 1.43.22c.08.07.15.14.29.21l.21-.43a2.1 2.1 0 0 0-.21-1.86 2.2 2.2 0 0 0-1.07-.85l-.14.57-.5-.15.85-3.21.5.14-.07.43c.57.57 1 1.21 1.29 1.93.28.79.36 1.5.14 2.22a6.28 6.28 0 0 1-.79 1.92c-.07 0-.14-.07-.21-.07-.07 0-.14-.07-.14-.07a2.03 2.03 0 0 0-.93 0c-.22.07-.57.14-.93.36-.86.36-1.5.64-1.86.71-.43.08-.86.08-1.36-.07-1.43-.35-2.36-1.07-2.86-2.21a4.7 4.7 0 0 1-.14-3c.14-.65.5-1.3.86-1.72a2.99 2.99 0 0 1 2-1.22l.14-.57.5.15-.78 3-.5-.15.14-.35c-.43 0-.72.07-1.07.21-.43.22-.72.57-.79 1.07-.14.58 0 1.15.57 1.58.43.35 1 .64 1.72.78.21.07.43.07.64.15a3.06 3.06 0 0 1-.36-1.15c0-.36 0-.71.08-1.07.14-.5.35-.93.71-1.29.36-.35.79-.57 1.29-.57l.14-.5.5.14-.79 3-.43.08Zm-2.28-15.87h.5v1.07h7.93v-.43c0-.21 0-.5-.07-.78-.07-.29-.07-.43-.07-.43 0-.15.07-.29.21-.43.15-.07.29-.14.5-.14a.9.9 0 0 1 .43.07c.15 0 .29.07.5.14.22.07.43.14.79.21.29.08.57.15.71.15.15 0 .29.07.36.07.14.07.22.14.22.28 0 .15-.15.29-.36.36-.43.07-.86.22-1.22.29-.5.14-.85.28-1.07.43-.28.28-.43.64-.43 1.21v6.58h-.57v-1.07h-7.93v1.07h-.5v-3.86h.5v.86h7.93V53.1h-7.93v.86h-.5v-3.8h.07ZM9.72 72.12l.36.72c.64-.65 1.5-1.36 2.36-2.15.5-.35 1.07-.85 1.86-1.43l.85-.64c-.21-.07-.43-.07-.57-.14h-.78c-.58 0-1.08 0-1.5.07a5.4 5.4 0 0 0-1.72.5c-.5.29-.86.43-.93.57-.07.07-.14.22-.07.29.07.14.07.21 0 .28-.14.15-.43.36-1 .65-.15.07-.22.07-.29 0l-.21-.22c0-.07-.07-.14-.07-.21-.08-.07-.08-.15-.15-.29 0-.07-.07-.14-.07-.21-.07-.07-.07-.15-.14-.22 0-.07-.07-.14-.07-.14s-.07-.07-.15-.21c-.07-.15-.07-.3-.07-.36 0-.15.15-.22.22-.29l.35-.21c.43-.22.86-.36 1.36-.43.5-.07 1.29-.07 2.36-.14h3.36c.43 0 .64-.08.79-.15.14-.07.14-.14.14-.21 0-.07-.07-.14-.14-.29l-.43-.78.5-.22 2 3.65-.5.28-.36-.71c-.86.57-1.78 1.36-2.86 2.21-.93.8-1.86 1.58-2.57 2.36l-.64.65.43.78-.36.15-1.79-3.3.5-.2ZM85 74.92l2.43 1.5.57-.87.43.29-2.22 3.36-.42-.29.57-.85-3.93-2.43a5.96 5.96 0 0 1-.86-.58c-.29-.14-.5-.35-.79-.5a3.13 3.13 0 0 1-.57-1.78c0-.65.21-1.22.57-1.86a3.6 3.6 0 0 1 1.93-1.57 2.23 2.23 0 0 1 2 .28c.58.36 1 .86 1.15 1.43a1.9 1.9 0 0 1-.22 1.64c-.14.22-.21.36-.35.43-.08.08-.22.15-.5.29l-.3.14.5 1.36Zm-.64-.37-.43-1.21c.21-.07.35-.14.43-.29.14-.14.14-.36.07-.57-.15-.36-.43-.64-.93-1s-.93-.57-1.29-.57c-.43-.07-.78.07-1 .43-.28.5-.14 1 .57 1.5.22.21.65.43 1.15.78l1.43.93Z" fill="#E4C779"/>
  <path fill-rule="evenodd" clip-rule="evenodd" d="M32.17 28.6 20.44 45.38l29.31 37.03.21-.36.22.36 29.3-37.03-11.72-16.8h-35.6Zm-7.51 15.22h13.01l3.86-12.65h-8l-8.87 12.65Zm16.8 0H58.6l-2.86-12.65H44.4l-2.93 12.65Zm20.94 0h12.65L66.2 31.17h-7.65l3.86 12.65Zm12.87 2.57H62.54l-9.79 28.45 22.52-28.45Zm-16.59 0H41.46l8.5 30.1.15.28 8.57-30.38Zm-21.15 0H24.52L47.6 75.63 37.53 46.39Z" fill="#E4C779"/>
  <path fill-rule="evenodd" clip-rule="evenodd" d="M34.1 52.97c.28.71-.5 1.14-1.08.57-.85-.65-2.21-1.57-2.71-2.36-.57-.86-.36-2.29.64-2.65 2.07-.57 5.43-.71 6.3 1.15 3 6.29-3.58 7.93-4.23 12.22-.43 3 1.86 3.36 3.08 2.79-.93 4.65 2.14 3.64 3.71 4.93 1.93 1.5 4.44 2.29 6.65 1.29 1.07-.43 2.29-3.93 3.43-.57-4 2.43-7 4.36-7.79 6.71-.28 1-1.5.65-1.64 0-.22-1-1.79-.57-2.29 0-.71.86-2.14-.5-1.86-1.5.57-1.78-1.07-1.57-2.07-1.07-1.43.64-2.29-.64-2.29-1.79 0-1.71-1.21-2.57-1.93-1.85-.71.71-1.36.42-2.14.35-.29 0-.72 1.08-1.43.72-1.86-1.07-2.93-2.43-2.93-3.72 0-.36-.22-1.36.78-.86.43.22 1.29-.14 1.29-.64 0-1.29-.14-2.22-1.22-3.72-.78-1.07.22-4.79 2.72-2.93.29.22.79-.64.64-.71-2.64-.65-2.71-3.08-1.5-3.15 2-.14 1.72-5.5 4.58-2.93 2.14 1.93 4.07.22 4.72-1.14.28-.57-1.93-2.72-1.86-.93.14.21.43 1.57.43 1.79Zm1.21 3.21c-7.93 5.22-6.86 15.94 6.36 15.66.72.5 1.36 1 2.08 1.5-1.86.5-4.15.86-3.08 2 .22.57-.14.86-.93.57-1-.14-2-.36-2.86-1.29-.28-1-.71-1.71-1.93-.71-1 .14-1.35-.07-.93-.79.22-.78.36-1.5-.85-1.07-.93-1.71-1.93-4.36-2.72-2.14-1.29.93-1.86 1.14-1.64.64-.22-.14-.43-.29-.65-.36-.78 1-1.28 1-1.43-.07.72-1.5 1.93-3.57.65-2.86-1.22-.14-1.29-.64-.15-1.43.79-.78 1.36-1.5.22-1.5-1.86-1.43-1.93-2.14-.43-2.07 1.93.14 3-.57 2.36-3.07-1.72-1.8-1.5-2.58.57-2.44-1.72 0 7.3-2.43 5.36-.57Zm-4.29-5.29c.79 1.08 1.86 1.65 2.08 1.93.21.29.5.07.64-.57-.36-.43-.14-.93-.5-1.36-.72.07-3-1.07-2.22 0Zm.79 12.44c-.14 4.15 1.36 6.58 5.86 7.36-1.5-1.14-2.64-2.57-2.86-4.5-2.22 1.14-2.93-4.43-3-2.86Z" fill="#E4C779"/>
  <path fill-rule="evenodd" clip-rule="evenodd" d="M65.83 52.97c-.28.71.5 1.14 1.07.57.86-.65 2.22-1.57 2.72-2.36.57-.86.36-2.29-.64-2.65-2.08-.57-5.43-.71-6.3 1.15-3 6.29 3.58 7.93 4.22 12.22.43 3-1.85 3.36-3.07 2.79.93 4.65-2.14 3.64-3.72 4.93-1.93 1.5-4.43 2.29-6.64 1.29-1.08-.43-2.3-3.93-3.43-.57 4 2.43 7 4.36 7.79 6.71.28 1 1.5.65 1.64 0 .22-1 1.79-.57 2.29 0 .71.86 2.14-.5 1.86-1.5-.58-1.78 1.07-1.57 2.07-1.07 1.43.64 2.29-.64 2.29-1.79 0-1.71 1.21-2.57 1.93-1.85.71.71 1.36.42 2.14.35.29 0 .72 1.08 1.43.72 1.86-1.07 2.93-2.43 2.93-3.72 0-.36.22-1.36-.78-.86-.43.22-1.3-.14-1.3-.64a5.5 5.5 0 0 1 1.22-3.72c.79-1.07-.21-4.79-2.71-2.93-.29.22-.79-.64-.65-.71 2.65-.65 2.72-3.08 1.5-3.15-2-.14-1.71-5.5-4.57-2.93-2.14 1.93-4.07.22-4.72-1.14-.28-.57 1.93-2.72 1.86-.93-.07.21-.36 1.57-.43 1.79Zm-1.14 3.21c7.93 5.22 6.86 15.94-6.36 15.66-.72.5-1.36 1-2.08 1.5 1.86.5 4.15.86 3.08 2-.22.57.14.86.93.57 1-.14 2-.36 2.86-1.29.28-1 .71-1.71 1.93-.71 1 .14 1.35-.07.93-.79-.22-.78-.36-1.5.85-1.07.93-1.71 1.93-4.36 2.72-2.14 1.29.93 1.86 1.14 1.64.64.22-.14.43-.29.65-.36.78 1 1.28 1 1.43-.07-.72-1.5-1.93-3.57-.65-2.86 1.22-.14 1.29-.64.15-1.43-.79-.78-1.36-1.5-.22-1.5 1.86-1.43 1.93-2.14.43-2.07-1.93.14-3-.57-2.36-3.07 1.72-1.8 1.5-2.58-.57-2.44 1.64 0-7.3-2.43-5.36-.57Zm4.29-5.29c-.79 1.08-1.86 1.65-2.08 1.93-.21.29-.57.07-.64-.57.36-.43.14-.93.5-1.36.65.07 2.93-1.07 2.22 0Zm-.86 12.44c.14 4.15-1.36 6.58-5.86 7.36 1.5-1.14 2.64-2.57 2.86-4.5 2.21 1.14 3-4.43 3-2.86Z" fill="#E4C779"/>
  <path fill-rule="evenodd" clip-rule="evenodd" d="M87.28 35.6c-6.65-4.3-12.15-10.08-17.23-16.73 3.65.79 8.08 2.07 12.37 5.93 3.43 3.08 4.36 7.22 4.71 9.8l.43.42h-.35c.07.22.07.36.07.58ZM77.13 24.23l1.86 2.15-1.5.07h-.08l-.43-.43-.5-.57-.5-.58-.5-.57-.5-.57-.5-.57-.5-.57-.5-.57-.5-.58-.5-.57-.5-.57-.21-.29.21.08.36.07.35.07.36.14.36.14.36.15.35.14.36.14.36.15.36.14.35.14.36.15.43.21.36.14.36.22.42.21.36.22.36.21.43.21.43.22.35.29.36.21v.07l-.21 2.43-2.08-2.36-.14-.14c-.14-.5-.71.07-.21.57Zm.85 2.79 1.5-.07 1.58 1.86-1.07.07h-.15l-.21-.15-.5-.5-.5-.5-.65-.71Zm2.5 2.43 1.15-.07 3.29 3.79-.22-.22-.57-.43-.57-.43-.57-.5-.57-.43-.58-.5-.57-.5-.57-.5-.21-.21Zm5.8 4.15-3.44-3.94v-.35l.3-2.8.06.15.29.36.28.36.22.35.21.36.22.36.21.36.14.35.22.36.14.36.15.36.14.35.14.36.14.36.15.36.07.35.14.36.07.36.07.35.08.3v.2Zm-3.8-7.72v.28l-.2 2.93-.3-.28-1.7-1.93.2-2.65.22.22.43.28.36.36.43.36.35.28.22.15Zm12.3 20.65c-4.14-5.93-6.65-12.58-8.43-19.73 3 2 6.43 4.65 8.65 9.3 1.78 3.64.85 7.43.14 9.58l.21.57-.35-.15-.22.43Zm-4.36-12.8.79 2.37-1.36-.5h-.07l-.22-.5-.21-.65-.21-.64-.22-.64-.21-.65-.22-.64-.21-.64-.22-.65-.21-.64-.22-.64-.14-.65-.07-.35.14.14.29.21.28.22.29.21.29.22.28.21.29.22.28.21.29.29.29.28.28.29.29.28.28.29.29.29.29.28.28.29.22.35.28.36.22.36.21.36.22.35.2.29v.07L92 36.24l-.86-2.64v-.15c-.22-.57-.93-.28-.72.29Zm-.36 2.51 1.36.5.65 2.07-1-.35-.15-.08-.07-.21-.29-.57-.28-.57-.22-.65v-.14Zm1.22 2.86 1.07.36 1.43 4.29-.14-.3-.36-.56-.28-.57-.36-.58-.29-.57-.28-.57-.29-.57-.29-.57-.21-.36Zm3.43 5.5-1.43-4.43.14-.28 1.43-2.15v.14l.15.36.07.36.07.36.07.35.07.36v1.79l-.07.36v.35l-.07.36-.07.36-.07.35-.08.3-.07.28-.07.28-.07.29v.21Zm-.07-7.65-.14.22-1.5 2.22-.15-.36-.71-2.15 1.36-2 .14.22.21.43.22.35.21.43.14.36.22.28Zm-3.07 5.44c-4.22-5.36-9.65-9.44-15.73-13.08.93 3.14 2.43 6.86 6.08 10.22 2.85 2.64 6.57 2.86 8.72 2.86l.43.35-.08-.35c.29.07.43.07.58 0Zm-10.51-7.5 1.93 1.35-.07-1.29v-.07l-.36-.28-.5-.36-.5-.36-.5-.36-.5-.35-.5-.36-.5-.36-.65-.43-.57-.35-.57-.36-.57-.36-.29-.14.07.14.15.29.14.35.14.29.15.36.14.28.14.36.14.29.15.35.14.36.14.36.15.28.21.36.14.36.22.29.21.28.22.36.21.28.22.36.21.36.29.29.21.28 2.07-.57-2.21-1.5-.15-.07c-.28-.5.15-1.08.65-.72Zm2.43.42.07 1.29 1.72 1.21v-1.14l-.15-.14-.5-.43-.5-.43-.64-.36Zm2.29 1.86.07 1 3.5 2.43-.21-.21-.43-.43-.43-.43-.43-.43-.43-.43-.43-.43-.5-.43-.5-.43-.21-.21Zm4 4.65-3.65-2.5-.28.07-2.43.64.07.07.36.21.28.22.29.14.35.14.36.15.29.14.36.14.35.15.29.07.36.07.35.07.29.07.29.07.28.08.29.07h1.14l.36-.07Zm-6.94-2.3.22-.06 2.5-.65-.28-.21-1.8-1.22-2.28.58.14.21.29.36.29.28.28.29.29.29.35.14Z" fill="#E4C779"/>
  <path fill-rule="evenodd" clip-rule="evenodd" d="M43.53 21.3c2-.21 4.08-.36 6.08-.36 2.07 0 4.07.15 6.14.36v.36a59.09 59.09 0 0 0-6.14-.36c-2 0-4.08.14-6.08.36v-.36Zm23.02-3.07.14-.15.07-.07-.14.07-.36.22-.36.21-.35.22-.36.28-.29.29-.28.29-.29.28-.28.29-.22.28-.21.29-.22.36-.14.28-.14.36-.15.36-.14.43-.07.43-.07.42v1l.07-.14.14-.21.22-.22.14-.21.21-.22.15-.21.21-.21.14-.22.22-.21.21-.22.22-.28.21-.22.22-.21.21-.22.22-.21.21-.22.21-.21.15-.14.21-.22.07-.07h-.14l-.64-.36.14-.57.14-.14.07-.14.08-.15.14-.14.14-.14.14-.15.15-.14v-.14Zm3.86-2.5c-4.22 1.5-9 3.57-8.37 9.36l-2.85-1.36-.72-.64-1.64-1.5v-.79l3.21-5.93c1.79-4.36-.93-7.72-7.22-7.86l-.21 1.14h-.57v-.43l-.5-.57c.43-.72.57-1.29.35-2.07l-.57-1.15 1.5.79v-4l-1.43.5.43-1.22H47.4l.72 1.22-1.5-.43-.08 3.93 1.29-.79L47.18 5c-.43.65-.22 1.5.21 2.15l.14.43-.14.57h-.64l-.15-1.22c-6.79 0-10 2.8-7.43 7.94L42.1 20l.14 1.36v.65l-1.28.93-.36.28-1.43 1-1.79.79c.58-5.65-4.21-7.8-8.36-9.3.36 0 4.43 3.94 4.07 3.94-1-.22-1.28 0-2.35-.22 2.57 1.72 4 3.65 5.79 5.94.21.35.35.78.35 1.21h3c2.8-1 4-1.29 6.01-2.79 2.07.5 5 .57 7.15 0 1.93 1.5 4.22 1.86 6.65 2.79h2.64c0-.36.07-.64.21-.93 1.86-2.43 3.3-4.43 6-6.15-1 .22-1.28 0-2.35.22-.21-.14 3.86-4 4.22-4Zm-37.46 2.5-.14-.15-.07-.07.14.07.36.22.36.21.35.22.29.28.28.29.29.29.29.28.28.29.22.28.21.29.22.36.14.28.14.36.14.36.15.43.07.43.07.42v1l-.07-.14-.14-.21-.22-.22-.14-.21-.14-.22-.15-.21-.14-.21-.21-.22-.22-.21-.14-.22-.22-.21-.21-.22-.22-.21-.21-.22-.21-.21-.22-.21-.21-.22-.22-.21-.21-.22-.07-.07h.14l.64-.36-.14-.57-.14-.14-.07-.14-.08-.15-.07-.14-.14-.14-.14-.15-.15-.14-.07-.14Zm5.5 7.86a19.68 19.68 0 0 0 5.44-3.29c-1.36 1.15-2.22 1.57-4.5 2.15 2-1 2.35-1.5 3.78-2.8 1.5-.13 2.58-.2 4.08-.2-3.36 2.64-4.15 2.64-8.8 4.14Zm8.3-2.79.64-.71c1.43.21 2.93.21 4.29.07l.57.71c-1.71.29-3.72.29-5.5-.07Zm.86-1.07.5-.36h2.78l.5.36a8.47 8.47 0 0 1-3.78 0Zm14.43 4.22c-2.57-1.15-4.28-1.79-6.36-3.43 1.36 1.14 3.36 1.85 5.58 2.36-1.93-1-3.72-1.93-5.15-3.22-1.5-.14-2.64-.22-4.07-.22 3.43 2.65 5.43 2.93 10 4.5ZM51.32 15.08h-.64v.22h.64v-.22ZM52.4 8.8h-1.14v.22h1.14V8.8Zm-.07.36h-1.14c0 .07-.07 0 0 .14h1.14s-.07 0 0-.14Zm-.07.43h-1.07c0 .07-.07.07 0 .14h1.07c0-.07-.07 0 0-.14Zm-.07.36h-1.07c0 .07-.07.07 0 .14h1.07s-.07 0 0-.14Zm-.07.42h-1c0 .08-.07.08 0 .22h1c0-.14-.07-.07 0-.22Zm-.07.36h-1c0 .07-.08 0 0 .14h1v-.14Zm-.07.43h-.93c0 .07-.08.07 0 .14h.93v-.14Zm-.08.36h-.93c0 .07-.07.07 0 .14h.93v-.14Zm-.07.43h-.86c0 .07-.07.07 0 .21h.86v-.21Zm0 .35h-.86c0 .08-.07 0 0 .15h.86c-.07 0-.07 0 0-.15Zm-.07.43h-.86c0 .07-.07.07 0 .15h.86c-.07-.08-.07 0 0-.15Zm-.07.36h-.79c0 .07-.07.07 0 .14h.79c-.07 0-.07 0 0-.14Zm-.07.43h-.72c0 .07-.07.07 0 .21h.72c-.07-.07-.07-.07 0-.21Zm-.07.43h-.72c0 .07-.07 0 0 .14h.72c-.07-.07-.07-.07 0-.14Zm-.07.36h-.72c-.07.07-.07.07 0 .14h.72c0-.07-.08 0 0-.14Zm-.08.35h-.71c0 .07-.07.07 0 .15h.71s-.07 0 0-.15Zm4.08 5.86c0 .08.07.22.14.3 0 .06.07.13.07.2h.07v-.57c-.07.07-.14.07-.28.07Zm0 .5c-.07-.07-.07-.14-.14-.2 0-.15-.08-.22-.15-.37h-.28c0 .07 0 .15.07.15 0 .07.07.14.14.35a.8.8 0 0 0 .36.07Zm-11.65-.5c0 .08.07.15.07.22.07.14.07.21.14.29.14 0 .22 0 .36-.08 0 0 0-.07-.07-.14 0-.07-.07-.14-.15-.36-.14 0-.28.07-.35.07Zm-.07.5c-.08-.07-.08-.2-.15-.28 0-.07-.07-.14-.07-.22h-.07v.58c.14 0 .21 0 .29-.07Zm.57-.57c0 .07.07.07.07.15 0 .07.07.14.14.35h.36c0-.07 0-.07-.07-.14 0-.07-.07-.14-.15-.36h-.35Zm.57-.07c0 .07 0 .07.07.14 0 .08.07.15.14.36.15 0 .22 0 .36-.07 0-.07 0-.07-.07-.14 0-.07-.07-.15-.14-.36-.08.07-.22.07-.36.07Zm.57-.07c0 .07.07.07.07.14s.07.22.15.43c.14 0 .21 0 .35-.07 0-.07-.07-.14-.07-.14 0-.07-.07-.15-.14-.36h-.36Zm.57 0v.07c.07.07.07.22.15.43.14 0 .21 0 .35-.07 0-.07 0-.14-.07-.22 0-.07-.07-.14-.14-.35-.07.07-.14.14-.29.14Zm.57-.07v.07c.08.07.08.21.15.43h.35c0-.14-.07-.14-.07-.22 0-.07-.07-.14-.14-.35-.07.07-.14.07-.29.07Zm.58-.07.07.07c0 .07.07.21.14.43h.36c0-.07 0-.15-.07-.22 0-.07-.07-.14-.15-.28h-.35Zm.57 0c.07.14.07.28.14.57h.36c0-.07 0-.14-.07-.22 0-.07-.07-.14-.15-.35h-.28Zm.57 0c.07.14.07.28.14.57h.36c-.07-.14-.07-.14-.07-.22 0-.07-.07-.14-.14-.35h-.29Zm.57 0c.07.14.07.28.14.57h.36c-.07-.07-.07-.14-.07-.22 0-.07-.07-.14-.14-.35h-.29Zm.5 0c.07.14.07.28.15.57h.34c-.07-.07-.07-.14-.07-.22 0-.07-.07-.14-.07-.35h-.36Zm.57 0c.08.14.08.28.15.57h.35c-.07-.14-.07-.14-.07-.22 0-.07-.07-.14-.14-.35h-.29Zm.58 0v.07c.07.07.07.21.14.5h.36c-.08-.07-.08-.14-.08-.22 0-.07-.07-.14-.14-.35h-.28Zm.57 0c.07.14.07.28.14.57h.36c-.07-.14-.07-.14-.07-.22 0-.07-.07-.14-.15-.35h-.28Zm.57 0v.07c0 .07.07.21.14.5h.36c-.07-.14-.07-.14-.07-.22 0-.07-.07-.14-.14-.35h-.29Zm.5.07c.07.14.07.28.14.57.15 0 .22 0 .36.07 0-.14-.07-.14-.07-.21 0-.07-.07-.15-.14-.36-.08-.07-.15-.07-.29-.07Zm.57 0v.07c0 .07.07.21.14.5h.36c0-.07-.07-.14-.07-.21 0-.08-.07-.15-.14-.36h-.29Zm.57.07v.14c0 .07.08.22.15.43.14 0 .21 0 .35.07 0-.07-.07-.14-.07-.21 0-.07-.07-.14-.14-.36-.07-.07-.21-.07-.29-.07Zm.5.07c0 .07 0 .07.08.14 0 .08.07.22.14.43.14 0 .21 0 .36.07 0-.07 0-.14-.08-.14 0-.07-.07-.21-.14-.43-.14-.07-.21-.07-.36-.07Zm.58 0c0 .07 0 .07.07.14 0 .08.07.15.14.43h.36s0-.07-.07-.14c0-.07-.08-.21-.15-.43-.14.07-.21.07-.35 0Zm-10.87-.43a43.41 43.41 0 0 1 12.22 0v.36c-2.07-.21-4.07-.43-6.14-.43-2 0-4.08.14-6.08.43v-.36Zm1.64-11.86h.93l1.43 7.07h-.43l-1.93-7.07Zm-.64 1.07-.28-1.07-1.22.21-.14.22h.07l.14.57.72.43.5-.07.21-.3Zm.29.93-.22-.72-.07.08.14.5.15.14Zm.5 1.86-.5-1.79-.15-.07-.64.14-.5.93.22.64h-.08l.86.5.64-.07.15-.28Zm.28 1.14-.28-.93-.15.29.15.5.28.14Zm.43 1.36-.35-1.22-.36-.21-.5.07-.5.86.14.57 1.57.93.22-.36-.22-.64Zm-6.07-.14.93.57v-.07l.57-.08.64-1.07-.14-.57-.79-.5-.57.14-.57.93.14.57-.21.08Zm6.43 1.35-.14-.42-.15.28.29.14Zm-3.65 3.58-.64-1.29.79-1.36.5-.14-.65 2.79Zm-1.85-3.29 1.14 1.93.79-1.29-.15-.43-1-.64-.57.14-.21.29Zm-.08-.14-.5-.79c-.14-.14-.21-.36-.28-.5l.86.57.14.43-.22.29Zm-1.35-4.15c-.07.57 0 1.22.21 1.93l.29-.07.5-.86-.22-.57-.78-.43Zm.85-1.79c-.42.5-.71 1.08-.85 1.65l.78.43.65-.07.57-.93-.14-.5-1-.58Zm1.86-1.28a5.6 5.6 0 0 0-1.86 1.21l.86.5v-.07l.65-.14.57-1-.15-.5h-.07Zm.72-.22c-.22.07-.36.07-.5.15l.07.07.36-.07.07-.15Zm3.07 7.15-1.5-.93-.57.07-.57 1.08.21.64 2.43-.86Zm-1.71-1.57.5-.79-.15-.57-1-.64-.35.07-.58 1 .15.5.85.57.58-.14Zm-1.08 1.86.58-1.08-.15-.57-.93-.57-.57.14-.57 1.08.14.64.86.57v-.07l.64-.14Zm.65-6.22.14.57-.5.93-.57.07.07.14-.86-.5-.14-.57.5-1v.07l.71-.14v-.07l.65.5Zm-.86 1.93.07.36-.57 1-.64.07-.8-.5-.13-.5.57-1 .5-.08 1 .65Zm6.5-6.86c.79 0 1.5.57 1.5 1.21 0 .72-.64 1.29-1.5 1.29-.85 0-1.5-.57-1.5-1.29 0-.71.65-1.21 1.5-1.21Zm-.71-.58.36-1.21-1.43.36-.07-1.29 1.42.36-.43-1.3 1.85.07-.42 1.29 1.5-.36v1.5L50.1 3l.28 1.22-1.64-.15Zm-.72 11.01h.72v.22h-.72v-.22ZM46.9 8.8h1.22v.22H46.9V8.8Zm.07.36h1.22c0 .07.07 0 0 .14h-1.22s.07 0 0-.14Zm.07.43h1.15c.07.07.07.07 0 .14h-1.15c0-.07.07 0 0-.14Zm.07.36h1.15c0 .07.07.07 0 .14H47.1s.08 0 0-.14Zm.08.42h1.14c0 .08.07.08 0 .22h-1.14c0-.14.07-.07 0-.22Zm.07.36h1.07c0 .07.07 0 0 .14h-1.07s.07 0 0-.14Zm.07.43h1c0 .07.07.07 0 .14h-1c0-.07.07 0 0-.14Zm.07.36h1c.07.07.07.07 0 .14h-1s.07 0 0-.14Zm.07.43h1c0 .07.07.07 0 .21h-1c.07-.07.07-.07 0-.21Zm.07.35h.93c0 .08.07 0 0 .15h-.93s.08 0 0-.15Zm.08.43h.85c0 .07.07.07 0 .15h-.85v-.15Zm.07.36h.85c0 .07.08.07 0 .14h-.85s.07 0 0-.14Zm.07.43h.78c.08.07.08.07 0 .21h-.78c0-.07.07-.07 0-.21Zm.07.43h.79c0 .07.07 0 0 .14h-.79c.07-.07.07-.07 0-.14Zm.07.36h.79c0 .07.07.07 0 .14h-.79c0-.07.07 0 0-.14Zm.07.35h.72c0 .07.07.07 0 .15h-.72v-.15Zm6.22-6.72h-.93l-1.43 7.08h.43l1.93-7.08Zm-5.93-.07h2.64l-.35 5.94h-1.8l-.5-5.94Zm1.29 0c.64 0 1.14.36 1.14.79 0 .21-.14.43-.36.57.14.14.29.36.29.57 0 .22-.15.43-.36.57.21.15.36.36.36.58 0 .21-.15.43-.43.57.21.14.36.36.36.5 0 .21-.22.43-.5.57.21.14.42.29.42.5 0 .36-.35.64-.85.64s-.86-.28-.86-.64c0-.21.14-.43.43-.5-.29-.14-.5-.29-.5-.57 0-.22.14-.36.35-.5-.28-.14-.42-.36-.42-.57 0-.22.14-.36.28-.5-.21-.15-.43-.36-.43-.58 0-.21.15-.35.29-.5-.22-.14-.36-.35-.36-.57 0-.57.5-.93 1.15-.93Zm.07 4.8c.28 0 .5.2.5.42 0 .22-.22.43-.5.43-.29 0-.5-.21-.5-.43-.08-.29.21-.43.5-.43Zm0-1.15c.35 0 .57.21.57.5 0 .28-.22.43-.57.43-.36 0-.58-.22-.58-.43 0-.29.22-.5.58-.5Zm0-1.15c.35 0 .64.22.64.58 0 .28-.29.5-.64.5-.36 0-.65-.22-.65-.5 0-.36.29-.58.65-.58Zm0-1.14c.43 0 .78.29.78.57 0 .29-.35.57-.78.57-.43 0-.72-.21-.72-.57 0-.28.29-.57.72-.57Zm0-1.14c.43 0 .78.28.78.57 0 .28-.35.5-.78.5-.43 0-.72-.22-.72-.5 0-.29.29-.57.72-.57Zm8.5 6.5.93-.64-.28 1.07-.29.72-.36-1.15Zm-1 1.07.93-.64.36 1.07-.93.72-.36-1.15Zm-1.07.86.93-.64.36 1.07-.93.72-.36-1.15Zm-1.57-.36.5.93.86-.57-.5-1.14-.86.78Zm1.07-.85.93-.65.36 1.08-.93.71-.36-1.14Zm1-.93.93-.65.36 1.08-.93.71-.36-1.14Zm1-.93.93-.65.36 1.08-.93.71-.36-1.14Zm1.14-.86.93-.64-.14 1.07-.36.71-.43-1.14Zm-.57-1.36.5.93.86-.57-.43-1.14-.93.78Zm-1.21.93.5.93.86-.57-.5-1.14-.86.78Zm-1 .86.5.93.86-.57-.5-1.15-.86.79Zm-1 1 .5.93.85-.57-.5-1.15-.85.79Zm-1.22.93.5.93.86-.57-.5-1.15-.86.79Zm-.07-2.15-.79.8.79 1 .86-.72-.86-1.08Zm1.07-.92-.78.78.78 1 .86-.71-.86-1.07Zm1-.93-.78.78.78 1 .86-.71-.86-1.07Zm1-.86-.78.78.78 1 .86-.7-.86-1.08Zm1-.79-.64.65.79 1 .85-.72-1-.93Zm-.35-.28-.5.57-.79-.79.57-.07.72.29Zm-.93.78-.72.72-.86-.79.8-.86.78.93Zm-1 .86-.72.72-.86-.8.79-.85.79.93Zm-.15-.93.43.43.43-.36-.86-.07Zm1.08 1.43.42.43.43-.36-.85-.07Zm.78 1.22.43.42.43-.35-.86-.07Zm.65 1.35.42.43.43-.35-.85-.08Zm-3.44-.71.43.43.43-.36-.86-.07Zm.8 1.21.42.43.43-.35-.86-.08Zm.56 1.36.43.43.43-.36-.86-.07Zm-1.43-5 .43.43.43-.36-.86-.07ZM55.33 12l.42.43.43-.36-.85-.07Zm.78 1.21.43.43.43-.35-.86-.08Zm.64 1.43.43.43.43-.36-.86-.07Zm.72-4.43.43.43.43-.36-.86-.07Zm.79 1.22.42.43.43-.36-.85-.07Zm.57 1.43.36.35.07-.35h-.43Zm-1.57 3.07.42.43.43-.36-.85-.07Zm1-1.14.28.43.14-.36-.42-.07Zm-4.36.35.42.43.43-.35-.85-.08Zm-.65-1.21.43.43.43-.36-.86-.07Zm3 2.86.43.43.43-.36-.86-.07Zm-1.43-.43.3.43.42-.36-.72-.07Zm-7.07 1.86c-.65-.5-.86-.65-1.15-1.07l-1.57-.5 1 1.28c.72 0 .86.07 1.72.29Zm3.79 0c.64-.5.85-.65 1.21-1.07l1.57-.5-1 1.28c-.78 0-.93.07-1.78.29Zm-5.72-.29c-.29 0-1 0-1.15.07l-1.28-.78h1.78l.65.71Zm7.58 0c.35 0 1.07 0 1.21.07l1.43-.85h-2l-.64.78Zm-3.72 1c-.93-1.14-.86-3.5-.07-4.72.93 1.15.93 3.65.07 4.72ZM48.89 16l-1.21-.64-.07.86c.71.5.85.57 1.35 1.21-.14-.93-.14-.5-.07-1.43Zm1.5 0 1.22-.64.07.86c-.72.5-.86.57-1.36 1.21.14-.93.14-.5.07-1.43Zm-.93 2.86c-1.5-.29-3.36-2-3.64-3.29a5.7 5.7 0 0 1 3.14 2.08c.07.42.22.85.5 1.21Zm.29 0c1.57-.29 3.36-2 3.65-3.29a5.7 5.7 0 0 0-3.15 2.08c0 .42-.14.85-.5 1.21Zm-6.22 0-.79.57 2.43-.21a8.14 8.14 0 0 1-1.64-.36Zm12.22 0 .79.57-2.5-.21a7.9 7.9 0 0 0 1.71-.36Zm-7.14-.21c-1.3-.86-4.15-.86-5.5-.15 1.28.79 4.2.93 5.5.15Zm2.07 0c1.29-.86 4.14-.86 5.57-.15-1.35.79-4.28.93-5.57.15Z" fill="#E4C779"/>
  <path d="m127.38 60.11-.07-2.14h1.14c1.5 0 2.64-.14 3.43-.5s1.36-.79 1.57-1.43c.29-.64.43-1.5.43-2.64v-1.22c0-1.5-.21-2.72-.64-3.65-.43-.92-1.29-1.42-2.58-1.42-1 0-1.85.28-2.57.92-.71.58-1.14 1.65-1.14 3.08 0 .28 0 .57.07.86.07.28.07.5.07.57 0 .21-.07.36-.14.36-.07.07-.36.07-.86.07s-1.14 0-1.93.07-1.79.14-2.86.36h-.43c-.07-.08-.07-.3-.07-.72 0-1.86.57-3.36 1.72-4.36a8.76 8.76 0 0 1 4-2.14c1.5-.36 3-.58 4.36-.58 1.72 0 3.22.29 4.72.79a7.98 7.98 0 0 1 3.43 2.36c.86 1 1.28 2.22 1.28 3.57a5.1 5.1 0 0 1-1.07 3.36 6.26 6.26 0 0 1-2.21 1.79c-.79.36-1.72.71-2.86 1.07-.07 0-.15.07-.22.07s-.07 0-.14.07v.65c.43.07 1.14.21 2.07.5a10.2 10.2 0 0 1 3.72 1.93c1.07.86 1.57 2.29 1.57 4.22 0 1.43-.35 2.64-1 3.71a6.57 6.57 0 0 1-2.71 2.5 8.04 8.04 0 0 1-3.65.86c-.72 0-1.36-.07-2.07-.21-1.08-.22-2.22-.5-3.3-.79a9.57 9.57 0 0 0-2.13-.5c-1 0-1.44.79-1.44 2.29 0 .21 0 .5.08.78a2 2 0 0 1 .07.5c0 .36-.14.5-.36.5-.21 0-.5 0-.86-.07-.28-.07-.71-.07-1.36-.07-.35 0-.71.07-1 .29-.28.14-.5.28-.64.28-.71 0-1.07-.85-1.07-2.5 0-1.36.36-2.5 1.14-3.36a3.49 3.49 0 0 1 2.65-1.28c.43 0 .86.07 1.36.21.5.14 1.07.36 1.85.64.79.29 1.36.5 1.72.58 1.5.42 2.64.71 3.29.71 1.14 0 1.93-.43 2.28-1.36.36-.93.58-2.07.65-3.57v-2.07c-.14-1.3-.57-2.22-1.29-2.8a4.37 4.37 0 0 0-2.93-.92h-3.07v-.22Z" fill="#E4C779"/>
  <path d="M155.11 45.18c.21 0 .43.07.57.21.15.14.5.5.93 1 .79.86 2 1.93 3.5 3.22a17.45 17.45 0 0 1 3.65 4.14 9.39 9.39 0 0 1 1.29 5.08 10 10 0 0 1-.93 4.5 11.98 11.98 0 0 1-2.08 3.15c-.78.78-2.28 2.35-4.64 4.57-.72.72-1.22 1.14-1.57 1.43a1.4 1.4 0 0 1-.93.36c-.29 0-.65-.15-1.08-.5-.42-.36-1.35-1.07-2.71-2.22-1.29-1.14-2.22-1.93-2.72-2.43-.5-.5-1.07-1.14-1.71-1.93a9.94 9.94 0 0 1-1.5-2.86 11.03 11.03 0 0 1-.58-3.57c0-4.3 2.43-8.3 7.22-12.01.72-.57 1.22-1 1.58-1.36.57-.5 1.07-.78 1.71-.78Zm-2.43 4.86c-.86.14-1.64.42-2.29 1a6.1 6.1 0 0 0-1.57 2 5.7 5.7 0 0 0-.57 2.36c0 .57.14 1.21.36 1.78a7.9 7.9 0 0 0 1.07 2c.5.72 1 1.43 1.64 2.15.65.71 1.5 1.57 2.43 2.57 1.22 1.15 2 2 2.36 2.5.36.5.57 1.08.64 1.72a8.13 8.13 0 0 0 3-2.07 5.73 5.73 0 0 0 1.65-3v-1.22c-.07-.5-.28-1-.57-1.57-.29-.5-.64-1.07-1.07-1.58-.43-.5-.86-1.07-1.43-1.64l-1.86-2.07c-.64-.72-1.22-1.36-1.65-1.86-.42-.5-.78-.93-1.07-1.22-.28-.35-.5-.64-.64-.85a3.02 3.02 0 0 1-.43-1Z" fill="#E4C779"/>
  <path d="M180.06 70.34h2.36a58.7 58.7 0 0 1-1.65-5.8c-.5-2-.86-3.71-1.21-5.28l-.86-4.5a31.66 31.66 0 0 0-.64-3.08c-.65.79-1.36 1.86-2.08 3.29-1.86 3.5-2.86 6.43-2.86 8.86 0 1.14.07 1.93.15 2.5.07.5.21.86.28 1 .14.15.29.22.5.22h.22c.28 0 .5.21.64.71s.22 1.5.22 3.08c0 .35-.15.64-.5.78-.22.07-.5.15-.8.15-.28 0-.7-.08-1.2-.15h-2.15c-.72 0-1.22-.07-1.5-.28-.29-.15-.5-.5-.5-1.08v-1.28a15.72 15.72 0 0 1 1.36-5.72c.5-1.14 1.14-2.64 2.07-4.43a120.9 120.9 0 0 1 1.71-3.29c.43-.86.72-1.36.72-1.43.71-1.36 1.36-2.57 1.86-3.57s.71-1.86.71-2.5c0-.43-.07-.65-.28-.8a2.8 2.8 0 0 0-.93-.13h-2.5v-1.58h12.15v1.58h-2.22c.43 3 1 6.36 1.86 10 .86 3.72 1.72 7 2.64 10.08.29.79.5 1.65.72 2.5h2.72v1.58h-10.8v-1.43h-.21Z" fill="#E4C779"/>
  <path d="M203.72 45.18c.21 0 .43.07.57.21a43.38 43.38 0 0 0 4.43 4.22 17.46 17.46 0 0 1 3.65 4.14 9.39 9.39 0 0 1 1.28 5.08c0 1.71-.28 3.21-.93 4.5a11.98 11.98 0 0 1-2.07 3.15c-.79.78-2.29 2.35-4.65 4.57-.71.72-1.21 1.14-1.57 1.43a1.4 1.4 0 0 1-.93.36c-.28 0-.64-.15-1.07-.5-.43-.36-1.36-1.07-2.72-2.22-1.28-1.14-2.21-1.93-2.71-2.43a27.3 27.3 0 0 1-1.72-1.93 9.94 9.94 0 0 1-1.5-2.86 11.03 11.03 0 0 1-.57-3.57c0-4.3 2.43-8.3 7.22-12.01a20 20 0 0 0 1.57-1.36c.57-.5 1.15-.78 1.72-.78Zm-2.43 4.86a4.4 4.4 0 0 0-2.3 1 6.1 6.1 0 0 0-1.56 2 5.7 5.7 0 0 0-.58 2.36c0 .57.15 1.21.36 1.78.22.65.57 1.29 1.07 2 .5.72 1 1.43 1.65 2.15.64.71 1.5 1.57 2.43 2.57 1.21 1.15 2 2 2.36 2.5.35.5.57 1.08.64 1.72a8.13 8.13 0 0 0 3-2.07 5.73 5.73 0 0 0 1.65-3v-1.22c-.07-.5-.29-1-.57-1.57-.3-.5-.65-1.07-1.08-1.58-.43-.5-.86-1.07-1.43-1.64-.5-.57-1.14-1.29-1.86-2.07l-1.64-1.86c-.43-.5-.78-.93-1.07-1.22-.29-.35-.5-.64-.64-.85l-.43-1Z" fill="#E4C779"/>
  <path d="M227.02 70.34v-22.6h-2.43a3.5 3.5 0 0 0-1.65.3c-.42.2-.78.7-1.14 1.42-.36.79-.79 1.93-1.14 3.58-.22.71-.36 1.21-.5 1.5a.81.81 0 0 1-.72.36c-.43 0-.71-.15-.85-.43a2.85 2.85 0 0 1-.22-1.22c-.07-1-.29-2.07-.64-3.21a9.05 9.05 0 0 0-.65-1.5 3.89 3.89 0 0 1-.5-1.5c0-.36.15-.72.43-1 .29-.3.65-.44 1.22-.44.14 0 .5.08 1 .15.5.14 1.07.21 1.64.28.57.07 1.36.07 2.29.07h13.58c.93 0 1.72 0 2.29-.07.57-.07 1.14-.14 1.64-.28.5-.15.86-.15 1-.15.5 0 .93.15 1.22.43.28.29.43.65.43 1 0 .29-.15.79-.43 1.43-.29.65-.5 1.22-.65 1.58a11.43 11.43 0 0 0-.71 3.21c0 1.15-.36 1.72-1 1.72-.29 0-.5-.07-.64-.29a2.07 2.07 0 0 1-.36-.71c-.07-.29-.29-.93-.57-2.08a8.8 8.8 0 0 0-1.15-2.78 3.33 3.33 0 0 0-1.35-1.15 8 8 0 0 0-2.08-.21h-1.57v22.59h3.07v1.57h-11.8v-1.57h2.94Z" fill="#E4C779"/>
  <path d="M256.47 45.18c.21 0 .43.07.57.21.14.14.5.5.93 1 .79.86 2 1.93 3.5 3.22a17.45 17.45 0 0 1 3.65 4.14 9.39 9.39 0 0 1 1.28 5.08 10 10 0 0 1-.92 4.5 11.98 11.98 0 0 1-2.08 3.15c-.78.78-2.28 2.35-4.64 4.57-.72.72-1.22 1.14-1.58 1.43a1.4 1.4 0 0 1-.93.36c-.28 0-.64-.15-1.07-.5-.43-.36-1.36-1.07-2.71-2.22-1.3-1.14-2.22-1.93-2.72-2.43a27.3 27.3 0 0 1-1.72-1.93 9.94 9.94 0 0 1-1.5-2.86 11.03 11.03 0 0 1-.57-3.57c0-4.3 2.43-8.3 7.22-12.01.72-.57 1.22-1 1.57-1.36.57-.5 1.08-.78 1.72-.78Zm-2.43 4.86c-.86.14-1.64.42-2.29 1a6.1 6.1 0 0 0-1.57 2 5.7 5.7 0 0 0-.57 2.36c0 .57.14 1.21.35 1.78a7.9 7.9 0 0 0 1.08 2c.5.72 1 1.43 1.64 2.15.64.71 1.5 1.57 2.43 2.57 1.22 1.15 2 2 2.36 2.5.36.5.57 1.08.64 1.72a8.13 8.13 0 0 0 3-2.07 5.73 5.73 0 0 0 1.65-3v-1.22c-.07-.5-.29-1-.57-1.57a11.9 11.9 0 0 0-1.07-1.58c-.43-.5-.86-1.07-1.44-1.64l-1.85-2.07c-.65-.72-1.22-1.36-1.65-1.86-.43-.5-.78-.93-1.07-1.22-.29-.35-.5-.64-.64-.85a3.02 3.02 0 0 1-.43-1Z" fill="#E4C779"/>
  <path d="m286.63 54.11-8.07 9.94v6.36h2.5v1.57h-11.3v-1.57h3.08V47.75h-3.08v-1.57h10.87v1.57h-2.14v13.87l8.07-9.94v-3.93h-2.14v-1.57h10.86v1.57h-3.07v22.59h3.07v1.57h-11.22v-1.57h2.5V54.1h.07Zm.29-14.94 1.64.57a10.92 10.92 0 0 1-2.5 3.86 4.77 4.77 0 0 1-3.43 1.58c-.93 0-1.71-.3-2.43-.86a6.12 6.12 0 0 1-1.79-2.22c-.43-.93-.78-1.86-.93-2.93l1.43-.43c.79 2 1.93 3 3.5 3a5 5 0 0 0 2.86-.78 5.51 5.51 0 0 0 1.65-1.79Z" fill="#E4C779"/>
  <path d="M323.16 70.34h2.36a58.7 58.7 0 0 1-1.65-5.8c-.5-2-.85-3.71-1.21-5.28l-.86-4.5a31.65 31.65 0 0 0-.64-3.08c-.65.79-1.36 1.86-2.08 3.29-1.85 3.5-2.85 6.43-2.85 8.86 0 1.15.07 1.93.14 2.5.07.5.21.86.28 1 .15.15.3.22.5.22h.22c.28 0 .5.21.64.71.15.5.22 1.5.22 3.08 0 .35-.15.64-.5.78-.22.07-.5.15-.79.15-.29 0-.71-.08-1.21-.15h-2.15c-.71 0-1.21-.07-1.5-.28-.29-.15-.5-.5-.5-1.08v-1.28a15.72 15.72 0 0 1 1.36-5.72c.5-1.14 1.14-2.64 2.07-4.43.64-1.29 1.22-2.36 1.72-3.29.42-.86.71-1.36.71-1.43.72-1.36 1.36-2.57 1.86-3.57s.71-1.86.71-2.5c0-.43-.07-.65-.28-.8a2.8 2.8 0 0 0-.93-.13h-2.57v-1.58h12.15v1.58h-2.22c.43 3 1 6.36 1.86 10 .86 3.72 1.72 7 2.65 10.08.28.79.5 1.65.71 2.5h2.72v1.58h-10.8v-1.43h-.14Z" fill="#E4C779"/>
  <path d="M345.18 47.25h-2.8v-1.57h11.44v1.57h-2.93l6.8 23.16h2.5v1.57H349.1v-1.57h2.78l-2.71-9.51a23.75 23.75 0 0 1-3.22 7.65 12.17 12.17 0 0 1-2.57 2.79 4.79 4.79 0 0 1-2.93 1.07 4.36 4.36 0 0 1-2.93-1.07c-.79-.72-1.22-1.86-1.22-3.3 0-1.28.29-2.7.86-4.28a28.07 28.07 0 0 1 2.21-4.72c.94-1.57 1.94-3.29 3.15-5.07.07-.15.43-.65 1.07-1.65.65-1 1.07-1.71 1.29-2.28.21-.5.29-1.08.29-1.65.07-.43.07-.78 0-1.14Zm2.93 10.08-1.65-5.86a49.88 49.88 0 0 0-3.5 5.5 31.1 31.1 0 0 0-1.72 3.5 13.41 13.41 0 0 0-.85 3.43v.93c.21 1.22.85 1.79 2.07 1.79.93 0 1.79-.57 2.64-1.65.79-1.07 1.5-2.35 2.08-3.86.43-1.35.78-2.64.93-3.78Z" fill="#E4C779"/>
  <path d="M371.12 62.12v8.29h3.08v1.57h-11.8v-1.57h3.08V56.97c0-1.93.07-3.79.14-5.58a8.3 8.3 0 0 1 3.5-4.14c1.57-1 3.36-1.5 5.36-1.5 1.93 0 3.65.28 5 1a7.4 7.4 0 0 1 3.22 2.64 6.82 6.82 0 0 1 1.07 3.72c0 1.36-.28 2.5-.78 3.64a7.08 7.08 0 0 1-2.22 2.58 5.42 5.42 0 0 1-4.57.71 17.05 17.05 0 0 1-2.37-1.14l-2.7 3.22Zm0-2.22 2.36-3c.22.21.5.36.72.43.28.14.5.14.57.14.57 0 1.14-.29 1.64-.93.5-.64.79-1.86.79-3.65 0-1.78-.22-3.14-.64-4.21a2.44 2.44 0 0 0-2.44-1.57c-.93 0-1.57.28-2 .92a5.78 5.78 0 0 0-.86 2.36c-.14.93-.14 2.08-.14 3.5v6.01Z" fill="#E4C779"/>
  <path d="M399.14 59.04h1.36a3.4 3.4 0 0 0-1-1.64 2.06 2.06 0 0 0-1.29-.57c-.78 0-1.5.14-2.28.43-.79.28-1.36.71-1.86 1.21.28 1.64.57 3.07.93 4.22l.85 3.07c.15.72.22 1.72.22 2.86 0 .64-.14 1.29-.36 1.93.36.14.79.29 1.36.29 2.14 0 3.72-.58 4.79-1.65a8.17 8.17 0 0 0 2.07-3.86H402v-1.5h9.65v1.5h-1.36a14.67 14.67 0 0 1-2.78 3.58 12.62 12.62 0 0 1-3.72 2.5 9.78 9.78 0 0 1-4.22.93c-1 0-2.07-.07-3.14-.15a21.11 21.11 0 0 1-2.86-.5c.07-.42.07-.78.07-.93 0-.85-.22-1.71-.57-2.43-.36-.71-.93-1.57-1.65-2.43-1.14-1.35-2-2.5-2.5-3.43a10.1 10.1 0 0 1-1.14-2.43 9.14 9.14 0 0 1-.29-2.57c0-2.86.64-5.15 1.93-6.93 1.29-1.8 2.86-3 4.79-3.8a16.75 16.75 0 0 1 5.86-1.14c1.22 0 2.5.15 3.79.5 1.29.29 2.57.93 3.72 1.8a7.6 7.6 0 0 1 2.64 3.57h1.79v1.57h-9.3v-1.57h1.15a5.93 5.93 0 0 0-1.43-2.94c-.79-.85-1.93-1.28-3.43-1.28-1.22 0-2.22.43-3 1.14a6.91 6.91 0 0 0-1.72 3c-.36 1.22-.5 2.5-.5 3.86 0 .65.07 1.22.14 1.86a8.89 8.89 0 0 1 8.94-1.78c.93.35 1.71.78 2.43 1.42a5.34 5.34 0 0 1 1.5 2.3h1.5v1.56h-9.15v-1.57Z" fill="#E4C779"/>
  <path d="M439.81 46.18v1.57h-3.07v22.59h1.29c.57 0 1.28-.08 2.07-.15.79-.14 1.29-.14 1.5-.14a2 2 0 0 1 1.14.43c.36.28.58.79.58 1.57 0 .57-.22 1.43-.65 2.57-.64 1.8-1 3.22-1.14 4.36-.07.5-.14.86-.29 1.22-.14.36-.43.5-.85.5-.36 0-.58-.14-.72-.36a5.7 5.7 0 0 1-.43-1.21c-.14-.57-.36-1.5-.71-2.72-.29-1-.5-1.79-.79-2.43a3.26 3.26 0 0 0-1.36-1.43 5.38 5.38 0 0 0-2.64-.57H414.5v-1.57h3.07V47.75h-3.07v-1.57h11.08v1.57h-2.5v22.59h7.93v-22.6h-2.5v-1.56h11.3Z" fill="#E4C779"/>
  <path d="M126.59 28.6h1.36c-.07.5-.22 1-.43 1.5s-.57.85-1.07 1.2c-.5.37-1.15.5-2 .5-.93 0-1.72-.2-2.3-.63a3.1 3.1 0 0 1-1.2-1.65 6.75 6.75 0 0 1-.36-2.14c0-1 .21-1.93.71-2.86.5-.93 1.5-1.43 3.15-1.43 1.14 0 1.93.28 2.5.78a3.2 3.2 0 0 1 1 2h-1.29a2.73 2.73 0 0 0-.57-1.2c-.29-.44-.86-.58-1.57-.58-.65 0-1.15.14-1.5.5-.36.36-.58.79-.72 1.29s-.14 1-.14 1.5c0 .64.07 1.28.28 1.78.22.5.5.93.86 1.22.36.29.86.43 1.36.43.79 0 1.36-.22 1.64-.72.08-.57.22-1.07.29-1.5Z" fill="#E4C779"/>
  <path d="M140.67 29.1h1.43a3.3 3.3 0 0 1-1.07 1.85c-.57.5-1.43.79-2.5.79-.93 0-1.86-.29-2.72-.79-.93-.5-1.36-1.71-1.36-3.5a5 5 0 0 1 .65-2.79 3.4 3.4 0 0 1 1.57-1.29 4.8 4.8 0 0 1 1.72-.28c1 0 1.78.21 2.35.64.57.43.93.93 1.15 1.57.21.65.28 1.3.28 1.93v.5h-6.22c0 .8.22 1.43.58 2.08.35.64 1 .93 1.93.93a2.7 2.7 0 0 0 1.5-.43c.35-.36.64-.72.71-1.22Zm-4.79-2.37h4.72a3 3 0 0 0-.86-2.22 2.06 2.06 0 0 0-1.35-.42c-.58 0-1.08.14-1.43.43-.36.28-.65.57-.8 1-.2.36-.28.78-.28 1.21Z" fill="#E4C779"/>
  <path d="M151.1 24.37h-2.78v-1h7v1h-2.78v7.08h-1.43v-7.08Z" fill="#E4C779"/>
  <path d="M161.83 23.37h1.43v3.22h2a9 9 0 0 1 1.43.14c.43.07.86.29 1.22.65.35.35.57.93.57 1.64 0 1-.29 1.64-.86 1.93-.57.29-1.22.43-1.86.43h-3.93v-8Zm1.43 4.22v2.86h1.93c1.21 0 1.86-.5 1.86-1.5 0-.43-.15-.72-.36-.93a1.36 1.36 0 0 0-.71-.36c-.29-.07-.65-.07-1.08-.07h-1.64Z" fill="#E4C779"/>
  <path d="M197.71 26.73H199c.07-.93.43-1.78 1.07-2.57a3.65 3.65 0 0 1 2.86-1.14c.43 0 .93.07 1.5.21a3.2 3.2 0 0 1 1.65 1.22c.5.64.78 1.57.78 2.86a4.76 4.76 0 0 1-1.07 3.14 4.7 4.7 0 0 1-1.22.86 4.2 4.2 0 0 1-1.64.28c-.93 0-1.72-.21-2.36-.64-.57-.43-1-.93-1.21-1.57a5.7 5.7 0 0 1-.36-1.86h-1.29v3.79h-1.43v-7.94h1.43v3.36Zm2.72.65c0 .5.07 1 .14 1.5.15.5.36.93.72 1.28.35.36.93.58 1.57.58.57 0 1-.15 1.43-.43.36-.29.64-.72.78-1.22a6.23 6.23 0 0 0 .15-3.21 2.58 2.58 0 0 0-.72-1.3 2.22 2.22 0 0 0-1.57-.56 2.1 2.1 0 0 0-1.57.57c-.36.36-.65.79-.72 1.29a6.3 6.3 0 0 0-.21 1.5Z" fill="#E4C779"/>
  <path d="M213.94 23.37h3.86c1.71 0 2.57.65 2.57 1.93a2 2 0 0 1-.43 1.29 3 3 0 0 1-1 .64v.08c1.15.28 1.79.92 1.79 2.14 0 .64-.14 1.07-.5 1.36-.36.28-.72.5-1.07.57-.43.07-.86.14-1.29.14h-3.79v-8.15h-.14Zm1.43 1v2.36h1.93c.35 0 .78-.07 1.14-.21.36-.14.5-.5.5-1 0-.79-.5-1.15-1.57-1.15h-2Zm0 3.36v2.72h2.07c1.22 0 1.79-.43 1.79-1.21 0-1-.64-1.5-1.86-1.5h-2Z" fill="#E4C779"/>
  <path d="M233.52 29.1h1.43c-.14.7-.5 1.35-1.07 1.85-.57.5-1.43.79-2.5.79-.93 0-1.86-.29-2.72-.79-.93-.5-1.35-1.71-1.35-3.5a5 5 0 0 1 .64-2.79 3.4 3.4 0 0 1 1.57-1.29 4.8 4.8 0 0 1 1.72-.28c1 0 1.78.21 2.35.64.58.43.94.93 1.15 1.57.21.65.28 1.3.28 1.93v.5h-6.21c0 .8.21 1.43.57 2.08.36.64 1 .93 1.93.93a2.7 2.7 0 0 0 1.5-.43c.43-.36.64-.72.71-1.22Zm-4.71-2.37h4.71a2.98 2.98 0 0 0-.86-2.22 2.06 2.06 0 0 0-1.35-.42c-.57 0-1.07.14-1.43.43-.36.28-.64.57-.79 1-.21.36-.28.78-.28 1.21Z" fill="#E4C779"/>
  <path d="M241.17 31.45v-1.07c.15 0 .29.07.36.07.43 0 .79-.21 1-.57.22-.36.36-.79.43-1.29s.07-1.21.14-2.21l.07-3.08h5.65v8.08h-1.43V24.3h-2.86l-.07 2.08c0 .93-.07 1.57-.07 2.07-.07.5-.14.93-.29 1.43-.14.5-.43.86-.78 1.14-.36.29-.86.43-1.43.43-.22.07-.5.07-.72 0Z" fill="#E4C779"/>
  <path d="m257.75 29.8 4.22-6.43h1.57v8.08h-1.42v-6.43l-4.22 6.43h-1.57v-8.08h1.43v6.44Z" fill="#E4C779"/>
  <path d="M271.05 23.37h1.36v1.15a3.14 3.14 0 0 1 2.64-1.43 3.3 3.3 0 0 1 3.22 2c.29.64.43 1.43.43 2.36a5.8 5.8 0 0 1-.43 2.36 2.81 2.81 0 0 1-1.29 1.43 3.3 3.3 0 0 1-1.86.5 2.9 2.9 0 0 1-2.64-1.43v4.07h-1.43v-11Zm1.29 4.08c0 .78.14 1.43.43 1.93a2.38 2.38 0 0 0 2.14 1.36c.64 0 1.22-.22 1.64-.72.5-.5.72-1.36.72-2.57 0-.72-.07-1.36-.29-1.86a2.8 2.8 0 0 0-.85-1.14c-.36-.29-.8-.36-1.3-.36-.42 0-.78.07-1.13.28a2.8 2.8 0 0 0-.93 1.08 3.9 3.9 0 0 0-.43 2Z" fill="#E4C779"/>
  <path d="M287.2 27.66v3.8h-1.42v-8.09h1.43v3.36h4v-3.36h1.43v8.08h-1.43v-3.79h-4Z" fill="#E4C779"/>
  <path d="M300.14 23.37h1.43v3.22h2c.5 0 1 .07 1.5.14.43.07.86.29 1.22.65.36.35.57.93.57 1.64 0 .64-.14 1.14-.43 1.5a2.2 2.2 0 0 1-1.07.72c-.43.14-.86.21-1.29.21h-3.93v-8.08Zm1.36 4.22v2.86h1.93c1.22 0 1.86-.5 1.86-1.5 0-.57-.22-.93-.57-1.14a4.63 4.63 0 0 0-1.58-.22h-1.64Zm6.3-4.22h1.42v8.08h-1.43v-8.08Z" fill="#E4C779"/>
  <path d="m319.44 26.38 2.07-3h1.58l-2.86 3.85 3.07 4.22h-1.57l-2.29-3.36-2.29 3.36h-1.57l3.08-4.22-2.86-3.86h1.64l2 3Z" fill="#E4C779"/>
  <path d="M356.33 28.6h1.35c-.07.5-.21 1-.43 1.5-.2.5-.57.85-1.07 1.2-.5.37-1.14.5-2 .5-.93 0-1.71-.2-2.29-.63a3.1 3.1 0 0 1-1.21-1.65 6.75 6.75 0 0 1-.36-2.14c0-1 .22-1.93.72-2.86.5-.93 1.5-1.43 3.14-1.43 1.14 0 1.93.28 2.5.78a3.2 3.2 0 0 1 1 2h-1.43a2.71 2.71 0 0 0-.57-1.2c-.28-.44-.86-.58-1.57-.58-.64 0-1.14.14-1.5.5-.36.36-.57.79-.72 1.29-.14.5-.14 1-.14 1.5 0 .64.07 1.28.29 1.78.21.5.5.93.85 1.22.36.29.86.43 1.36.43.79 0 1.36-.22 1.65-.72.21-.57.35-1.07.43-1.5Z" fill="#E4C779"/>
  <path d="M365.69 25.73h-1.36c0-.35.07-.78.29-1.14.14-.36.5-.72 1-1a4.3 4.3 0 0 1 2.14-.43c.93 0 1.57.14 2.07.43.5.28.8.64.94 1 .14.36.2.79.2 1.21l-.06 3.72c0 .29.07.5.14.64.07.15.36.22.71.22v1c-.35.07-.57.07-.64.07a1.9 1.9 0 0 1-1-.21c-.21-.15-.36-.5-.43-.93-.14.28-.43.57-.71.71-.29.22-.57.36-.93.43-.36.07-.72.14-1.07.14-.93 0-1.65-.21-2.15-.57-.5-.43-.71-1-.71-1.71 0-.58.14-1.08.43-1.43a2.8 2.8 0 0 1 1.28-.79 13 13 0 0 1 2.22-.36c.28 0 .5-.07.71-.07.22 0 .36-.07.5-.14a.55.55 0 0 0 .29-.29c.07-.14.07-.35.07-.64 0-.5-.14-.86-.5-1.14-.36-.29-.79-.36-1.36-.36-.86 0-1.43.14-1.71.5-.22.43-.36.79-.36 1.14Zm3.86 2.29v-.71c-.07.07-.22.14-.36.21-.14.07-.36.07-.71.14a8.5 8.5 0 0 0-1.79.29c-.36.07-.71.21-.93.43-.21.21-.36.57-.36 1 0 .36.15.64.36.93.22.28.64.43 1.22.43.35 0 .71-.08 1.07-.22.36-.14.64-.43.93-.78.43-.5.57-1 .57-1.72Z" fill="#E4C779"/>
  <path d="M377.7 31.45v-1.07c.14 0 .28.07.36.07.43 0 .78-.21 1-.57.21-.36.35-.79.43-1.29.07-.5.07-1.21.14-2.21l.07-3.08h5.65v8.08h-1.43V24.3h-2.86l-.07 2.08c0 .93-.07 1.57-.07 2.07-.08.5-.15.93-.3 1.43-.13.5-.42.86-.78 1.14-.35.29-.85.43-1.43.43-.21.07-.43.07-.71 0Z" fill="#E4C779"/>
  <path d="M392.42 27.38a4.7 4.7 0 0 1 1.07-3.15c.36-.36.8-.64 1.22-.86a4.2 4.2 0 0 1 1.64-.28c.65 0 1.15.07 1.65.28.5.22.93.5 1.21.86.36.36.58.86.79 1.36.14.57.29 1.14.29 1.86a5.2 5.2 0 0 1-.29 1.86c-.14.57-.43 1-.79 1.36-.35.35-.78.64-1.28.85a4.2 4.2 0 0 1-1.65.29c-.78 0-1.5-.14-2.14-.5a3.46 3.46 0 0 1-1.36-1.5 8.3 8.3 0 0 1-.36-2.43Zm1.5 0c0 .57.08 1.14.22 1.64s.43.93.79 1.22c.35.28.85.5 1.5.5.93 0 1.57-.36 1.93-1a4.8 4.8 0 0 0 .57-2.36 4.8 4.8 0 0 0-.57-2.36c-.36-.65-1-1-1.93-1-.65 0-1.15.14-1.5.5-.36.36-.65.71-.8 1.21a6.49 6.49 0 0 0-.2 1.65Z" fill="#E4C779"/>
  <path d="M408.86 27.66v3.8h-1.43v-8.09h1.43v3.36h4v-3.36h1.44v8.08h-1.43v-3.79h-4Z" fill="#E4C779"/>
  <path d="M421.3 27.38a4.68 4.68 0 0 1 1.07-3.15c.36-.36.79-.64 1.22-.86a4.2 4.2 0 0 1 1.64-.28c.57 0 1.15.07 1.65.28.5.22.93.5 1.21.86.36.36.57.86.79 1.36.14.57.28 1.14.28 1.86a5.2 5.2 0 0 1-.28 1.86c-.14.57-.43 1-.79 1.36-.36.35-.78.64-1.28.85a4.2 4.2 0 0 1-1.65.29c-.79 0-1.5-.14-2.14-.5a3.46 3.46 0 0 1-1.36-1.5 8.3 8.3 0 0 1-.36-2.43Zm1.5 0c0 .57.07 1.14.22 1.64.14.5.43.93.78 1.22.36.35.86.5 1.5.5.93 0 1.58-.36 1.93-1a4.8 4.8 0 0 0 .57-2.36 4.8 4.8 0 0 0-.57-2.36c-.35-.65-1-1-1.93-1-.64 0-1.14.14-1.5.5a2.7 2.7 0 0 0-.78 1.21 6.49 6.49 0 0 0-.22 1.65Z" fill="#E4C779"/>
  <path d="M436.31 23.37h3.86c1.72 0 2.57.65 2.57 1.93a2 2 0 0 1-.42 1.29 3 3 0 0 1-1 .64v.08c1.14.28 1.78.92 1.78 2.14 0 .64-.14 1.07-.5 1.36-.36.28-.71.5-1.07.57-.43.07-.86.14-1.29.14h-3.93v-8.15Zm1.36 1v2.36h1.93c.36 0 .79-.07 1.14-.21.36-.14.5-.5.5-1 0-.79-.5-1.15-1.57-1.15h-2Zm0 3.36v2.72h2.07c1.22 0 1.79-.43 1.79-1.21 0-1-.64-1.5-1.86-1.5h-2Z" fill="#E4C779"/>
</svg>
