<svg width="100" height="100" viewBox="0 0 100 100" fill="none" xmlns="http://www.w3.org/2000/svg">
  <path fill-rule="evenodd" clip-rule="evenodd" d="M50 8.33301C31.5905 8.33301 16.6667 25.0104 16.6667 43.7497C16.6667 62.3421 27.3055 82.5514 43.9045 90.3099C47.7739 92.1185 52.2261 92.1185 56.0956 90.3099C72.6945 82.5514 83.3333 62.3421 83.3333 43.7497C83.3333 25.0104 68.4095 8.33301 50 8.33301ZM50 49.9997C54.6024 49.9997 58.3333 46.2687 58.3333 41.6663C58.3333 37.064 54.6024 33.333 50 33.333C45.3976 33.333 41.6667 37.064 41.6667 41.6663C41.6667 46.2687 45.3976 49.9997 50 49.9997Z" fill="#7BAFAA" />
</svg>