<svg width="153" height="69" viewBox="0 0 153 69" fill="none" xmlns="http://www.w3.org/2000/svg">
<path d="M0.425781 53.7877V53.1786H1.68257L7.92796 29.6543L14.3738 50.8269C14.6206 51.5826 14.767 52.0143 14.821 52.1223C15.1449 52.8239 15.7 53.1786 16.4865 53.1786V53.7877H11.4593V53.1786L13.4486 53.194L9.23872 38.953H6.13916L3.36343 50.1947C3.29403 50.3875 3.24006 50.6342 3.20151 50.9426C3.16296 51.251 3.14754 51.49 3.14754 51.6519C3.14754 52.2996 3.37885 52.716 3.83376 52.901C4.29638 53.0861 5.10597 53.1863 6.27023 53.1863V53.7954H0.425781V53.7877ZM9.08451 38.3207L7.57328 33.363L6.37818 38.3439L9.08451 38.3285V38.3207Z" fill="#E4C779"/>
<path d="M26.7419 42.5145C26.7419 41.6201 26.4875 40.9185 25.9709 40.4096C25.4543 39.893 24.8452 39.6386 24.1435 39.6386C23.28 39.6386 22.5012 39.9701 21.815 40.6332C21.1288 41.2963 20.7818 42.2061 20.7818 43.3704V51.8826C20.7818 52.5071 20.8898 52.8772 21.1057 53.0006C21.3216 53.124 21.7842 53.1857 22.4858 53.1857V53.7948H17.8673V53.1857H19.4479V41.0187L17.9907 42.6379L17.582 42.3141L21.0671 38.4589L21.4758 38.7827L20.7895 39.5615V40.8876C21.869 39.4844 23.1412 38.7827 24.5985 38.7827C24.9763 38.7827 25.3309 38.8136 25.6702 38.8675C26.0095 38.9215 26.3641 39.0294 26.7419 39.1914V37.9346H27.2277V43.8947H26.7419V42.5145Z" fill="#E4C779"/>
<path d="M29.9399 45.5989V39.5154H28.6445V39.0682H29.9399V32.0826L31.3586 30.5791V39.0605H34.5198V39.5077H31.3586V49.4001C31.3586 50.5104 31.5051 51.3585 31.8058 51.9522C32.0217 52.4148 32.3686 52.7772 32.8544 53.0471C33.0703 53.155 33.2939 53.2476 33.5406 53.3324C33.7796 53.4172 34.0341 53.4557 34.3039 53.4557C34.7357 53.4557 35.1212 53.3632 35.4759 53.1705C35.8229 52.9777 36.2547 52.5459 36.7635 51.8751C37.1953 51.3045 37.5037 51.027 37.6888 51.027C37.9278 51.1118 38.0589 51.1658 38.0743 51.212C38.0897 51.2506 38.0974 51.3045 38.1129 51.3739C38.1283 51.4433 38.136 51.5281 38.136 51.6361C38.136 51.852 38.028 52.1373 37.8121 52.4842C37.1182 53.3478 36.1004 53.849 34.7588 53.9877H34.3194C32.4997 53.9877 31.2506 53.1627 30.5875 51.5127C30.1558 50.4564 29.9476 48.8372 29.9476 46.6475V45.5912L29.9399 45.5989Z" fill="#E4C779"/>
<path d="M40.5664 46.5318V45.0283H47.7062V46.5318H40.5664Z" fill="#E4C779"/>
<path d="M68.1766 51.3511C67.1742 52.3226 66.0639 53.0474 64.8303 53.5177C63.5966 53.988 62.309 54.2271 60.9597 54.2271C58.3381 54.2271 55.9711 53.4021 53.8661 51.752C51.6533 50.0249 50.2731 47.7889 49.7334 45.0594C49.6486 44.6277 49.5715 44.1728 49.4866 43.7024C49.4018 43.2321 49.3633 42.7926 49.3633 42.384C49.3633 39.0299 50.5275 36.2774 52.8484 34.1107C55.1692 31.9518 57.968 30.8647 61.2449 30.8647C62.841 30.8647 64.4987 31.1654 66.2335 31.7591V29.5693H66.7578V38.2435H66.2335V36.2157C66.2335 35.5911 66.1873 35.036 66.0948 34.5502C66.0022 34.0645 65.8172 33.6173 65.5473 33.2086C65.1387 32.6689 64.5527 32.2525 63.7971 31.975C63.0337 31.6897 62.2627 31.5509 61.4763 31.5509H61.0291C58.4461 31.5509 56.1407 32.4916 54.1206 34.3652C52.0927 36.2465 51.0827 38.4517 51.0827 40.9961V41.9676C51.0827 45.2368 52.1776 47.9971 54.3673 50.2408C56.4491 52.3766 58.8547 53.4406 61.5842 53.4406C62.7485 53.4406 63.851 53.2324 64.8919 52.8084C65.9328 52.392 66.8889 51.7443 67.7525 50.8808L68.1997 51.328L68.1766 51.3511Z" fill="#E4C779"/>
<path d="M70.2874 47.7039L70.1641 46.7324C70.1641 44.7586 70.8965 42.9852 72.3538 41.3969C73.8111 39.8162 75.5459 38.9141 77.5429 38.6982H78.2754C80.1952 38.6982 81.8684 39.3228 83.3025 40.5719C84.7366 41.8209 85.5462 43.3939 85.739 45.2906V46.0616C85.739 48.0124 85.0528 49.7626 83.6726 51.3047C82.2925 52.8468 80.6424 53.7566 78.7226 54.0264H77.6277C75.7618 54.0264 74.1426 53.4327 72.7624 52.2453C71.3823 51.058 70.5573 49.539 70.2874 47.7039ZM72.5157 50.0864C73.8959 52.176 75.7078 53.2168 77.9515 53.2168C79.6786 53.2168 81.2361 52.5769 82.6163 51.3047C83.9964 50.0325 84.6827 48.5135 84.6827 46.7479C84.6827 46.1002 84.5978 45.4679 84.4359 44.8588C84.274 44.2497 83.9887 43.6175 83.5878 42.9698C82.9401 41.9906 82.0689 41.2118 80.974 40.6335C79.8791 40.0476 78.7611 39.7623 77.6277 39.7623C76.4095 39.7623 75.3069 40.063 74.3199 40.6567C73.333 41.2504 72.5774 42.0291 72.0454 42.9775C71.5211 43.9259 71.2512 44.9591 71.2512 46.0693C71.2512 47.4495 71.6676 48.7911 72.508 50.0942L72.5157 50.0864Z" fill="#E4C779"/>
<path d="M90.3595 49.2843C90.3595 50.4023 90.5445 51.2967 90.93 51.9444C91.4158 52.7617 92.1868 53.1703 93.2431 53.1703L93.3665 53.0469C94.338 53.0469 95.109 52.6691 95.6796 51.9135C96.2502 51.1579 96.5278 50.2789 96.5278 49.2766V40.88C96.5278 40.3094 96.4121 39.9393 96.1808 39.762C95.9495 39.5846 95.564 39.4998 95.0242 39.4998H94.4999V39.0526H97.9079V51.8672C97.9079 52.4609 98.0159 52.8233 98.2317 52.9621C98.4476 53.1009 98.9103 53.1626 99.6119 53.1626V53.7717H96.5278V51.7439C95.9957 52.4995 95.4329 53.0624 94.8392 53.4247C94.2532 53.7871 93.5516 53.9722 92.7497 53.9722H92.0249C90.8761 53.8411 90.0819 53.3322 89.6347 52.4609C89.1952 51.582 88.9716 50.5179 88.9716 49.2689V40.8877C88.9716 40.3171 88.8482 39.9393 88.6092 39.762C88.3625 39.5846 88.0001 39.4921 87.5143 39.4921H86.8281V39.0449H90.3595V49.2611V49.2843Z" fill="#E4C779"/>
<path d="M102.604 45.5989V39.5154H101.309V39.0682H102.604V32.0826L104.023 30.5791V39.0605H107.184V39.5077H104.023V49.4001C104.023 50.5104 104.169 51.3585 104.47 51.9522C104.686 52.4148 105.033 52.7772 105.518 53.0471C105.734 53.155 105.958 53.2476 106.205 53.3324C106.444 53.4172 106.698 53.4557 106.968 53.4557C107.4 53.4557 107.785 53.3632 108.14 53.1705C108.487 52.9777 108.919 52.5459 109.428 51.8751C109.859 51.3045 110.168 51.027 110.353 51.027C110.592 51.1118 110.723 51.1658 110.738 51.212C110.754 51.2506 110.761 51.3045 110.777 51.3739C110.792 51.4433 110.8 51.5281 110.8 51.6361C110.8 51.852 110.692 52.1373 110.476 52.4842C109.782 53.3478 108.765 53.849 107.423 53.9877H106.983C105.164 53.9877 103.915 53.1627 103.252 51.5127C102.82 50.4564 102.612 48.8372 102.612 46.6475V45.5912L102.604 45.5989Z" fill="#E4C779"/>
<path d="M115.371 49.2843C115.371 50.4023 115.564 51.2967 115.942 51.9444C116.428 52.7617 117.199 53.1703 118.255 53.1703L118.378 53.0469C119.35 53.0469 120.121 52.6691 120.692 51.9135C121.262 51.1579 121.54 50.2789 121.54 49.2766V40.88C121.54 40.3094 121.424 39.9393 121.193 39.762C120.961 39.5846 120.576 39.4998 120.036 39.4998H119.512V39.0526H122.92V51.8672C122.92 52.4609 123.028 52.8233 123.244 52.9621C123.46 53.1009 123.922 53.1626 124.624 53.1626V53.7717H121.54V51.7439C121.008 52.4995 120.445 53.0624 119.859 53.4247C119.273 53.7871 118.571 53.9722 117.769 53.9722H117.045C115.896 53.8411 115.102 53.3322 114.662 52.4609C114.223 51.582 113.999 50.5179 113.999 49.2689V40.8877C113.999 40.3171 113.876 39.9393 113.637 39.762C113.398 39.5846 113.027 39.4921 112.542 39.4921H111.855V39.0449H115.387V49.2611L115.371 49.2843Z" fill="#E4C779"/>
<path d="M135.004 42.5145C135.004 41.6201 134.749 40.9185 134.233 40.4096C133.716 39.893 133.107 39.6386 132.405 39.6386C131.542 39.6386 130.763 39.9701 130.077 40.6332C129.391 41.2963 129.044 42.2061 129.044 43.3704V51.8826C129.044 52.5071 129.151 52.8772 129.367 53.0006C129.583 53.124 130.046 53.1857 130.748 53.1857V53.7948H126.129V53.1857H127.71V41.0187L126.252 42.6379L125.844 42.3141L129.329 38.4589L129.737 38.7827L129.051 39.5615V40.8876C130.131 39.4844 131.403 38.7827 132.86 38.7827C133.238 38.7827 133.593 38.8136 133.932 38.8675C134.271 38.9215 134.626 39.0294 135.004 39.1914V37.9346H135.489V43.8947H135.004V42.5145Z" fill="#E4C779"/>
<path d="M152.152 44.0571H138.451C138.343 44.4581 138.273 44.7588 138.25 44.9438C138.111 45.5067 138.05 45.9924 138.05 46.3934C138.05 48.3827 138.782 50.025 140.239 51.3203C141.62 52.5308 143.254 53.1399 145.143 53.1399C146.6 53.1399 147.942 52.739 149.16 51.9371C150.51 51.0504 151.481 49.8091 152.082 48.1976L152.53 48.321C151.959 50.1715 150.895 51.621 149.33 52.6696C147.873 53.6334 146.261 54.1192 144.503 54.1192C142.475 54.1192 140.771 53.5255 139.391 52.3381C137.849 51.0119 137.078 49.2308 137.078 46.9871V46.9023C137.078 44.4658 137.98 42.4688 139.777 40.9036C141.442 39.4464 143.37 38.7139 145.544 38.7139C147.156 38.7139 148.543 39.1379 149.7 39.9784C150.988 40.9345 151.813 42.2915 152.16 44.0649L152.152 44.0571ZM138.774 43.4866L150.618 43.448C150.109 42.2298 149.299 41.2968 148.204 40.6337C147.102 39.9707 145.937 39.6391 144.704 39.6391C143.385 39.6391 142.198 39.9629 141.141 40.6106C140.077 41.2583 139.299 42.2221 138.79 43.4866H138.774Z" fill="#E4C779"/>
<path d="M127.992 6.99333C126.273 6.05267 123.813 5.77509 122.016 6.66949C120.066 7.64871 119.002 9.81532 119.819 11.9202C119.904 12.1361 120.066 12.2441 120.235 12.2749C120.205 12.1747 120.181 12.0667 120.166 11.9511C119.981 10.5864 120.659 8.96718 121.7 8.08049C124.291 5.84449 129.465 7.38656 129.603 11.0567C129.603 11.103 129.534 11.1107 129.526 11.0644C128.948 8.92092 125.856 7.17067 123.62 7.96483C123.798 7.96483 123.975 7.96483 124.16 8.00339C125.563 8.24241 127.082 9.15994 127.645 10.517C128.987 13.763 127.876 16.6467 124.792 18.2273C122.363 19.4764 119.457 18.7825 117.043 17.8804C114.136 16.7932 111.461 14.9967 108.909 13.2619C103.265 9.41438 97.513 4.69564 90.5042 3.87063C84.2049 3.13044 76.9803 5.98327 75.9625 12.9534C75.3688 17.0322 77.8361 21.7201 82.1462 22.4218C84.4439 22.7919 88.5535 22.2136 88.9159 19.515C87.9059 20.3785 86.6953 20.9491 85.3075 21.0262C81.699 21.2112 78.7922 19.6846 77.4814 16.2535C77.4583 16.1918 77.5508 16.1609 77.5817 16.2149C78.3758 17.6182 79.5401 18.6668 80.8971 19.2914C78.8153 17.811 77.998 14.9042 78.5301 12.4677C79.3088 8.95176 82.4855 6.90852 85.7932 6.16061C89.5944 5.31247 93.4419 6.66949 96.7188 8.5354C102.355 11.7429 107.128 16.2381 112.741 19.461C117.999 22.4834 124.422 24.0024 129.218 19.3376C132.742 15.9142 132.441 9.42209 127.969 6.97791L127.992 6.99333ZM126.296 18.6206C116.303 25.1744 107.228 13.0691 99.1398 8.78213C99.1013 8.76671 99.1244 8.68961 99.1707 8.70503C107.621 11.6966 116.326 24.226 126.211 18.4741C126.303 18.4201 126.381 18.5589 126.296 18.6128V18.6206Z" fill="#E4C779"/>
<path d="M87.2574 5.87496C83.2325 5.06537 80.3874 8.18806 78.3827 11.1797C78.3519 11.2182 78.4213 11.2722 78.4521 11.2337C79.8862 9.4834 81.4283 7.74857 83.6412 7.00838C86.2627 6.1294 89.1155 7.27053 90.0793 9.89205C90.8504 12.0047 89.9174 14.5414 87.7431 15.3201C86.6559 15.7134 85.3298 15.4281 84.6281 14.4874C84.1192 13.8089 84.1038 12.6524 84.5202 11.9816C83.5641 12.475 83.4176 13.4697 83.6258 14.5106C83.6258 14.526 83.6104 14.5337 83.6026 14.526C82.6234 13.4851 83.1863 11.8428 84.3814 11.2337C84.9751 10.933 85.7153 10.7633 86.3629 11.0101C86.5865 11.0949 86.8256 11.2182 87.0492 11.3724C87.134 11.1797 87.1109 10.9561 86.9027 10.7942C85.8309 9.96145 84.2349 10.0154 83.2325 11.0178C81.8678 12.3825 82.1377 14.3255 83.2325 15.7673C85.5534 18.8129 90.3723 17.1012 91.6291 13.9631C92.9939 10.5629 90.8272 6.60744 87.2496 5.88267L87.2574 5.87496Z" fill="#E4C779"/>
<path d="M147.908 14.7502C146.142 10.8488 141.069 10.9105 137.707 12.3446C132.873 14.3955 129.827 19.1683 125.085 21.3965C125.039 21.4197 125.07 21.4968 125.116 21.4814C128.054 20.6332 130.575 18.9909 132.95 17.1173C135.548 15.0741 138.093 13.185 141.516 13.0077C144.284 12.8612 147.253 14.9507 146.543 18.004C146.343 18.8598 145.549 19.6077 144.685 19.7465C145.394 19.8082 146.142 19.4458 146.59 18.9138C147.199 18.1967 147.384 17.3101 147.276 16.3925C147.276 16.3771 147.291 16.3771 147.299 16.3925C148.494 18.5206 145.672 21.5816 143.459 20.3094C142.65 19.8468 142.264 18.8907 142.634 18.004C142.804 17.5953 143.212 17.1867 143.675 16.9785C142.688 16.5467 141.755 17.5105 141.732 18.5052C141.701 19.8236 142.542 20.826 143.737 21.2809C145.31 21.8823 147.098 20.7951 148.001 19.5846C149.003 18.2353 148.525 16.1304 147.908 14.7579V14.7502Z" fill="#E4C779"/>
<path d="M23.8043 19.3454C28.6078 24.0102 35.0228 22.4912 40.2813 19.4687C45.8944 16.2458 50.6672 11.743 56.3034 8.54317C59.5803 6.68497 63.4278 5.32024 67.229 6.16838C70.5367 6.91629 73.7211 8.95953 74.4922 12.4755C75.0319 14.9119 74.2069 17.8187 72.1251 19.2991C73.4821 18.6746 74.6464 17.626 75.4405 16.2227C75.4714 16.1687 75.5639 16.2073 75.5408 16.2612C74.23 19.6923 71.3232 21.219 67.7148 21.034C66.3269 20.9646 65.1164 20.3863 64.1063 19.5227C64.4687 22.2291 68.5706 22.7996 70.876 22.4295C75.1861 21.7279 77.6534 17.04 77.0597 12.9612C76.0419 5.99104 68.825 3.1305 62.518 3.8784C55.517 4.70341 49.765 9.42215 44.1211 13.2696C41.5689 15.0122 38.9011 16.801 35.9943 17.8881C33.5887 18.7825 30.6819 19.4842 28.2454 18.2351C25.1613 16.6545 24.051 13.7631 25.3926 10.5247C25.9555 9.16771 27.4744 8.24247 28.8777 8.01116C29.0627 7.98032 29.2401 7.9726 29.4174 7.9726C27.1814 7.17844 24.0973 8.92098 23.5113 11.0722C23.5036 11.1184 23.4265 11.1107 23.4342 11.0645C23.573 7.38662 28.7466 5.85226 31.3373 8.08826C32.3705 8.98266 33.0567 10.5941 32.8717 11.9589C32.8562 12.0745 32.8331 12.1825 32.8023 12.2827C32.9719 12.2519 33.1415 12.1362 33.2186 11.928C34.0359 9.82309 32.9719 7.65648 31.0212 6.67726C29.2247 5.77515 26.765 6.06044 25.0456 7.0011C20.5736 9.44528 20.2729 15.9297 23.7966 19.3608L23.8043 19.3454ZM26.8344 18.4818C36.7191 24.2415 45.4241 11.7044 53.8747 8.7128C53.9209 8.69738 53.9441 8.76677 53.9055 8.7899C45.8173 13.0692 36.7423 25.1744 26.7496 18.6283C26.6648 18.5743 26.7419 18.4356 26.8344 18.4895V18.4818Z" fill="#E4C779"/>
<path d="M65.7843 5.87593C69.8168 5.06635 72.6542 8.18904 74.6666 11.1807C74.6974 11.2192 74.628 11.2732 74.5972 11.2346C73.1631 9.48438 71.621 7.74955 69.4081 7.00936C66.7866 6.13037 63.9338 7.27151 62.9777 9.89303C62.1989 12.0057 63.1396 14.5424 65.3139 15.3211C66.4011 15.7144 67.7273 15.4291 68.4289 14.4884C68.9378 13.8099 68.9532 12.6533 68.5368 11.9825C69.4929 12.476 69.6394 13.4706 69.4312 14.5115C69.4312 14.527 69.4467 14.5347 69.4544 14.527C70.4336 13.4861 69.8707 11.8438 68.6679 11.2346C68.0742 10.9339 67.334 10.7643 66.6864 11.011C66.4628 11.0958 66.2237 11.2192 66.0001 11.3734C65.9153 11.1807 65.9385 10.9571 66.1466 10.7951C67.2184 9.96242 68.8221 10.0164 69.8168 11.0187C71.1815 12.3835 70.9116 14.3265 69.8168 15.7683C67.4959 18.8139 62.677 17.1022 61.4202 13.9641C60.0555 10.5638 62.2221 6.60842 65.7997 5.88364L65.7843 5.87593Z" fill="#E4C779"/>
<path d="M5.13642 14.7502C6.90209 10.8488 11.9678 10.9105 15.3449 12.3446C20.1793 14.3955 23.2249 19.1683 27.9668 21.3965C28.0131 21.4197 27.9822 21.4968 27.9282 21.4814C24.9906 20.6332 22.477 18.9909 20.0945 17.1173C17.4961 15.0741 14.9517 13.185 11.5283 13.0077C8.76029 12.8612 5.7918 14.9507 6.50115 18.004C6.70162 18.8598 7.49579 19.6077 8.35935 19.7465C7.65 19.8082 6.90209 19.4458 6.45489 18.9138C5.84577 18.1967 5.66072 17.3101 5.76867 16.3925C5.76867 16.3771 5.75325 16.3771 5.74554 16.3925C4.55043 18.5206 7.37242 21.5816 9.5853 20.3094C10.3949 19.8468 10.7804 18.8907 10.4103 18.004C10.2407 17.5953 9.83203 17.1867 9.36941 16.9785C10.3563 16.5467 11.2893 17.5105 11.3124 18.5052C11.3433 19.8236 10.5028 20.826 9.31543 21.2809C7.74252 21.8823 5.95372 20.7951 5.0516 19.5846C4.04926 18.2353 4.5273 16.1304 5.14413 14.7579L5.13642 14.7502Z" fill="#E4C779"/>
<path d="M150.783 22.1445H2.29688V23.3473H150.783V22.1445Z" fill="#E4C779"/>
<path d="M4.50285 22.7377C4.50285 23.9867 3.49279 24.9891 2.25142 24.9891C1.01006 24.9891 0 23.979 0 22.7377C0 21.4963 1.01006 20.4785 2.25142 20.4785C3.49279 20.4785 4.50285 21.4886 4.50285 22.7377Z" fill="#E4C779"/>
<path d="M152.987 22.5912C152.987 23.8325 151.977 24.8426 150.736 24.8426C149.494 24.8426 148.484 23.8325 148.484 22.5912C148.484 21.3498 149.494 20.332 150.736 20.332C151.977 20.332 152.987 21.3421 152.987 22.5912Z" fill="#E4C779"/>
<path d="M54.7823 9.05967C52.7467 10.0543 49.5701 12.9842 50.6649 15.5903C51.0428 15.3667 51.1738 14.9504 51.4437 14.6265C50.6572 16.6158 51.3743 19.538 52.9087 21.0107C53.2633 21.35 53.0552 21.4039 53.5101 21.1803C54.0344 20.9182 54.5818 20.2551 54.9519 19.8079C55.4299 19.2296 55.8078 18.6051 56.1316 17.9266C56.3166 17.5411 56.4092 16.7623 56.6559 16.4925C57.0029 16.8394 56.8641 17.464 56.8949 17.9266C58.0592 17.4408 58.3984 15.8679 58.6683 14.773C59.1155 12.9611 59.5935 11.3882 60.4725 9.73818C61.1819 8.40429 62.2613 6.94703 63.6415 6.26081C64.2275 5.96781 64.8289 5.75963 65.4688 5.6594C65.9777 5.58229 66.6023 5.70566 67.0803 5.5129C66.4712 4.99631 65.3917 5.07341 64.6438 5.07341C63.2945 5.07341 61.9992 5.27388 60.7193 5.67482C59.6861 5.99094 58.7994 6.43043 57.8587 6.93161C57.2188 7.27857 56.5094 7.85685 55.8309 8.07274L54.7746 9.05196L54.7823 9.05967Z" fill="#E4C779"/>
<path d="M37.795 17.1706C36.5459 17.9956 34.9036 18.4043 33.4309 18.6047C32.5134 18.7281 31.4031 18.7975 30.979 17.772C31.1949 17.8414 31.457 17.9262 31.619 17.9879C30.2234 17.772 30.0692 15.6902 30.1386 14.5568C30.871 14.603 31.5573 14.2252 32.2898 14.2484C33.03 14.2715 33.855 14.7881 34.333 15.2893C34.0477 15.1428 33.4694 14.7341 33.7316 14.3717C33.8627 14.1867 34.6491 14.2175 34.865 14.2407C36.2143 14.418 37.5174 14.8344 38.9207 14.6801C41.2646 14.4103 43.57 13.485 45.5901 12.2822C45.1352 13.0841 44.2717 13.7549 43.5083 14.2484C42.5137 14.8883 41.2569 15.9986 40.1312 16.3456L37.8027 17.1706H37.795Z" fill="#E4C779"/>
<path d="M98.2591 9.05967C100.295 10.0543 103.471 12.9842 102.376 15.5903C101.999 15.3667 101.86 14.9504 101.598 14.6265C102.384 16.6158 101.667 19.538 100.14 21.0107C99.7857 21.35 99.9939 21.4039 99.539 21.1803C99.0147 20.9182 98.4672 20.2551 98.0971 19.8079C97.6191 19.2296 97.2413 18.6051 96.9175 17.9266C96.7247 17.5411 96.6322 16.7623 96.3932 16.4925C96.0462 16.8394 96.185 17.464 96.1541 17.9266C94.9899 17.4408 94.6506 15.8679 94.3807 14.773C93.9335 12.9611 93.4555 11.3882 92.5765 9.73818C91.8672 8.40429 90.7877 6.94703 89.4076 6.26081C88.8216 5.96781 88.2202 5.75963 87.5802 5.6594C87.0713 5.58229 86.4468 5.70566 85.9688 5.5129C86.5702 4.99631 87.6573 5.07341 88.4052 5.07341C89.7545 5.07341 91.0422 5.27388 92.3298 5.67482C93.3553 5.99094 94.2497 6.43043 95.1903 6.93161C95.838 7.27857 96.5396 7.85685 97.2182 8.07274L98.2668 9.05196L98.2591 9.05967Z" fill="#E4C779"/>
<path d="M115.245 17.1706C116.494 17.9956 118.136 18.4043 119.609 18.6047C120.526 18.7281 121.636 18.7975 122.061 17.772C121.845 17.8414 121.583 17.9262 121.421 17.9879C122.816 17.772 122.97 15.6902 122.901 14.5568C122.169 14.603 121.482 14.2252 120.75 14.2484C120.017 14.2715 119.185 14.7881 118.714 15.2893C119 15.1428 119.578 14.7341 119.316 14.3717C119.185 14.1867 118.398 14.2175 118.182 14.2407C116.833 14.418 115.53 14.8344 114.127 14.6801C111.783 14.4103 109.477 13.485 107.465 12.2822C107.92 13.0841 108.783 13.7549 109.547 14.2484C110.541 14.8883 111.798 15.9986 112.924 16.3456L115.252 17.1706H115.245Z" fill="#E4C779"/>
<path d="M117.862 64.2578V65.53L118.055 65.4375H152.073C152.312 65.4375 152.451 65.4683 152.49 65.5377C152.528 65.5994 152.551 65.823 152.551 66.2008V66.4476H118.055L117.862 66.3782V67.6272H117.199V64.2578H117.862Z" fill="#E4C779"/>
<path d="M76.7163 0L77.3178 1.21824L78.6671 1.411L77.6801 2.35166L77.9114 3.69326L76.7163 3.06872L75.5058 3.69326L75.7448 2.35166L74.7656 1.411L76.1072 1.21824L76.7163 0Z" fill="#E4C779"/>
<path d="M34.8353 67.6195V66.3473L34.6502 66.4398L0.755488 66.2779C0.516467 66.2779 0.377681 66.2394 0.339129 66.1777C0.300577 66.116 0.285156 65.8924 0.285156 65.5146V65.2679L34.6656 65.4298L34.8584 65.5069V64.2578H35.5292L35.5061 67.6272H34.843L34.8353 67.6195Z" fill="#E4C779"/>
<path d="M41.6838 62.0684H42.3623V66.6329C42.3623 67.3345 42.3084 67.8203 42.2004 68.0979C42.0925 68.3677 41.9074 68.5913 41.653 68.7532C41.3985 68.9152 41.0901 69 40.7277 69C40.4579 69 40.188 68.946 39.9259 68.8381C39.656 68.7301 39.3707 68.5451 39.0469 68.2829L39.4016 67.7432C39.7562 67.9899 40.0492 68.1673 40.2805 68.2675C40.4347 68.3369 40.5812 68.3677 40.7354 68.3677C40.9282 68.3677 41.1055 68.306 41.2597 68.1904C41.4217 68.0747 41.5296 67.9205 41.5913 67.7278C41.653 67.535 41.6838 67.1649 41.6838 66.6098V62.0684Z" fill="#E4C779"/>
<path d="M47.2969 62.0684H51.1675V62.7315H47.9754V64.8518H51.1443V65.5149H47.9754V68.1673H51.1443V68.8303H47.3046V62.0761L47.2969 62.0684Z" fill="#E4C779"/>
<path d="M55.2461 62.0684H55.94L57.3202 66.9336L59.2555 62.0684H59.3943L61.3064 66.9336L62.7097 62.0684H63.3959L61.4529 68.8226H61.3296L59.3249 63.7107L57.2816 68.8226H57.1583L55.2461 62.0684Z" fill="#E4C779"/>
<path d="M67.9609 62.0684H71.8315V62.7315H68.6394V64.8518H71.8084V65.5149H68.6394V68.1673H71.8084V68.8303H67.9686V62.0761L67.9609 62.0684Z" fill="#E4C779"/>
<path d="M76.2891 62.0684H76.9676V68.175H79.566V68.8303H76.2891V62.0761V62.0684Z" fill="#E4C779"/>
<path d="M83.9219 62.0684H84.6004V68.175H87.1988V68.8303H83.9219V62.0761V62.0684Z" fill="#E4C779"/>
<path d="M91.5703 62.0684H95.4409V62.7315H92.2488V64.8518H95.4178V65.5149H92.2488V68.1673H95.4178V68.8303H91.578V62.0761L91.5703 62.0684Z" fill="#E4C779"/>
<path d="M99.9336 62.0684H101.283C102.031 62.0684 102.54 62.0992 102.802 62.1609C103.203 62.2534 103.534 62.4539 103.781 62.7546C104.028 63.0553 104.159 63.4254 104.159 63.8726C104.159 64.2427 104.074 64.5665 103.897 64.8441C103.727 65.1217 103.473 65.3375 103.157 65.4763C102.84 65.6151 102.393 65.6922 101.83 65.6922L104.259 68.8303H103.419L100.99 65.6922H100.612V68.8303H99.9336V62.0761V62.0684ZM100.612 62.7315V65.0291H101.776C102.224 65.0368 102.563 64.9906 102.779 64.9058C102.995 64.821 103.164 64.6822 103.28 64.4971C103.396 64.3121 103.465 64.0962 103.465 63.8649C103.465 63.6336 103.403 63.4331 103.28 63.248C103.157 63.063 102.995 62.9319 102.794 62.8471C102.594 62.7623 102.262 62.7315 101.799 62.7315H100.604H100.612Z" fill="#E4C779"/>
<path d="M108.371 62.0684H109.15L110.877 64.8518L112.581 62.0684H113.36L111.224 65.5997V68.8303H110.553V65.5997L108.371 62.0684Z" fill="#E4C779"/>
</svg>
