<svg width="390" height="86" viewBox="0 0 390 86" fill="none" xmlns="http://www.w3.org/2000/svg">
<path d="M84.7786 24.567C95.2529 24.6012 105.626 26.0544 115.363 28.8518C127.425 18.9668 142.481 11.2398 159.354 6.27649C176.226 1.31314 194.455 -0.751809 212.612 0.243473C230.77 1.23875 248.363 5.26723 264.013 12.0132C279.663 18.7592 292.944 28.0395 302.816 39.1268C312.919 36.8014 323.64 36.2482 334.096 37.5129C344.551 38.7776 354.443 41.8239 362.956 46.4011C371.469 50.9782 378.359 56.9552 383.06 63.8398C387.761 70.7244 390.137 78.3196 389.994 86H1.5914e-08C-0.000215692 77.9326 2.19246 69.9442 6.45288 62.4909C10.7133 55.0376 16.958 48.2653 24.8305 42.5607C32.7029 36.8561 42.0488 32.3309 52.3347 29.2436C62.6207 26.1562 73.6451 24.5671 84.7786 24.567Z" fill="white"/>
</svg>
