<svg width="581" height="213" viewBox="0 0 581 213" fill="none" xmlns="http://www.w3.org/2000/svg">
<path d="M299.066 9.29075e-05L292 83.9402L401.506 93.1587L408.572 9.21864L299.066 9.29075e-05Z" fill="#82C56D"/>
<path d="M394.785 8.05615C394.785 8.05615 358.06 87.7522 293.007 71.9771L292 83.9391L401.507 93.1582L408.573 9.21716L394.785 8.05615Z" fill="#4DA258"/>
<path d="M308.575 14.7968C306.845 13.8087 305.431 12.3507 304.495 10.5918C303.75 9.17277 302.809 7.38377 303.576 6.22277C304.479 4.85477 307.176 5.23377 308.489 5.63577C309.615 5.99187 310.636 6.61874 311.463 7.46138C312.289 8.30402 312.897 9.33668 313.231 10.4688C313.734 12.2168 313.791 15.0808 312.35 15.8298C311.322 16.3648 309.97 15.5928 308.575 14.7968ZM301.831 15.3593C302.064 17.0083 302.36 18.646 302.72 20.2723C303.214 22.5043 306.721 21.8643 306.224 19.6163C305.863 17.9903 305.567 16.3526 305.335 14.7033C305.015 12.4333 301.511 13.0883 301.831 15.3593Z" fill="#BCDA86"/>
<path d="M405.19 49.4125L355.803 45.2545C361.147 43.8952 366.115 41.3472 370.337 37.8005C372.126 36.2325 376.315 32.5605 375.252 29.1745C374.741 27.5475 373.133 26.3095 370.603 25.5965C368.894 25.1145 366.268 24.8755 361.112 27.3355C358.136 28.7555 355.558 30.4415 348.948 36.1865C347.424 37.5115 346.184 38.5925 345.162 39.5015L348.14 4.12952C348.18 3.65876 348.031 3.19153 347.726 2.83062C347.421 2.4697 346.986 2.24467 346.515 2.20502C346.044 2.16537 345.577 2.31435 345.216 2.61919C344.855 2.92403 344.63 3.35976 344.59 3.83052L341.721 37.8925C341.327 37.1345 340.893 36.3055 340.414 35.3895C336.349 27.6305 334.562 25.1205 332.308 22.7155C328.404 18.5495 325.872 17.8145 324.101 17.6395C321.476 17.3885 319.538 17.9495 318.469 19.2785C316.247 22.0455 318.81 26.9905 319.906 29.1025C323.182 35.0186 327.976 39.9545 333.794 43.4015L295.683 40.1925C295.214 40.155 294.748 40.3051 294.389 40.61C294.03 40.9148 293.806 41.3496 293.766 41.8192C293.727 42.2887 293.875 42.7548 294.178 43.1155C294.481 43.4761 294.915 43.7019 295.384 43.7435L339.086 47.4235C333.68 52.1895 333.063 59.5575 333.035 59.9385C333.018 60.1726 333.094 60.4039 333.246 60.5824C333.399 60.7608 333.615 60.8719 333.849 60.8915H333.857C334.093 60.9094 334.325 60.833 334.505 60.6792C334.684 60.5255 334.794 60.3069 334.812 60.0715C334.819 59.9835 335.456 52.6025 340.845 48.3035L337.522 87.7705C337.485 88.2402 337.635 88.7057 337.94 89.065C338.245 89.4243 338.679 89.6482 339.149 89.6878C339.619 89.7273 340.085 89.5792 340.445 89.276C340.806 88.9727 341.032 88.5389 341.073 88.0695L344.457 47.8755L348.88 48.2475C352.546 50.2555 356.752 54.2435 356.186 61.8875C356.169 62.1218 356.244 62.3534 356.397 62.5321C356.549 62.7108 356.766 62.822 357 62.8415L357.008 62.8425C357.125 62.8512 357.243 62.8367 357.354 62.8C357.465 62.7632 357.568 62.7049 357.657 62.6284C357.745 62.5519 357.818 62.4586 357.871 62.354C357.923 62.2493 357.955 62.1353 357.963 62.0185C358.457 55.3455 355.62 51.1445 352.389 48.5435L404.891 52.9635C405.362 53.0032 405.83 52.8541 406.191 52.5492C406.552 52.2443 406.777 51.8084 406.816 51.3375C406.856 50.8666 406.707 50.3993 406.402 50.0383C406.097 49.6773 405.661 49.4522 405.19 49.4125ZM350.117 37.5315C356.571 31.9215 359.052 30.2925 361.879 28.9435C366.498 26.7405 368.71 26.9145 370.121 27.3115C371.988 27.8385 373.239 28.7115 373.551 29.7075C374.267 31.9865 370.558 35.2365 369.162 36.4605C363.138 41.7415 354.794 44.1625 349.04 44.6845L344.76 44.3245L344.757 44.3125L344.943 42.0985C346.283 40.8645 348.127 39.2615 350.117 37.5315ZM321.487 28.2825C320.633 26.6345 318.363 22.2565 319.858 20.3945C320.495 19.6025 321.916 19.2435 323.771 19.3985L323.926 19.4135C325.386 19.5565 327.51 20.2005 331.008 23.9335C333.15 26.2195 334.867 28.6395 338.836 36.2165C339.799 38.0555 340.707 39.7895 341.439 41.2435L341.247 43.5325C341.166 43.6833 341.109 43.846 341.078 44.0145L338.301 43.7805C333.053 41.4325 325.435 35.8965 321.487 28.2825Z" fill="white"/>
<path d="M5.11854 141.447L29.0972 199.089L201.231 127.482L177.252 69.8404L5.11854 141.447Z" fill="#F15B43"/>
<path d="M12.6148 159.466L18.3174 173.174L190.451 101.567L184.749 87.8585L12.6148 159.466Z" fill="#65CADE"/>
<path d="M34.7829 181.332C32.7922 181.25 30.8652 180.606 29.225 179.475C27.9111 178.559 26.2523 177.404 26.3981 176.02C26.5702 174.39 29.14 173.485 30.4893 173.237C31.6526 173.036 32.8476 173.123 33.9695 173.49C35.0913 173.858 36.1058 174.496 36.9239 175.347C38.1745 176.666 39.5445 179.183 38.6098 180.511C37.942 181.459 36.3878 181.396 34.7829 181.332ZM29.0539 184.934C30.0187 186.291 31.0355 187.609 32.1041 188.886C33.5694 190.642 36.3893 188.459 34.9127 186.693C33.8443 185.414 32.8276 184.096 31.8624 182.74C30.5332 180.871 27.7246 183.065 29.0539 184.934Z" fill="#F6978F"/>
<path d="M134.077 87.8013L158.054 145.443L171.762 139.741L147.785 82.099L134.077 87.8013Z" fill="#65CADE"/>
<path d="M35.5186 128.802C35.5186 128.802 115.43 104.21 141.571 105.819L144.478 104.61L136.983 86.5919L35.5186 128.802Z" fill="#CF2633"/>
<path d="M134.076 87.8024L141.572 105.82L144.479 104.611L136.983 86.5932L134.076 87.8024Z" fill="#46C2CC"/>
<path d="M133.62 87.9911L157.593 145.635L158.516 145.251L134.544 87.6071L133.62 87.9911Z" fill="#303443"/>
<path d="M507.129 90.1682L571.78 115.619L547.648 176.92L482.997 151.469L507.129 90.1682Z" fill="#F15B43"/>
<path d="M505.416 94.5242L570.067 119.974L565.452 131.699L500.801 106.248L505.416 94.5242Z" fill="#CF2633"/>
<path d="M494.889 121.266L559.539 146.716L558.44 149.507L493.79 124.057L494.889 121.266Z" fill="#FFCC5D"/>
<path d="M538.061 102.344L540.852 103.443L516.72 164.746L513.929 163.647L538.061 102.344Z" fill="#FFCC5D"/>
<path d="M538.468 103.703C537.578 103.214 536.781 102.574 536.113 101.811C534.362 100.021 532.417 98.4323 530.314 97.0732C528.32 95.7076 526.129 94.6545 523.818 93.9505C522.677 93.6262 521.513 93.3959 520.335 93.2618C518.849 93.1984 517.417 92.6856 516.228 91.7914C515.775 91.4294 515.36 91.0222 514.989 90.5761C514.056 90.781 513.092 90.8092 512.148 90.6592C511.309 90.5081 510.51 90.1905 509.796 89.7253C509.082 89.26 508.468 88.6565 507.991 87.9504C507.857 87.7298 507.813 87.4657 507.869 87.2135C507.924 86.9612 508.076 86.7403 508.291 86.5971C508.506 86.4538 508.768 86.3995 509.022 86.4452C509.276 86.491 509.503 86.6334 509.655 86.8427C509.978 87.3222 510.394 87.7323 510.878 88.0489C511.362 88.3655 511.904 88.5822 512.473 88.6863C512.908 88.7536 513.349 88.7707 513.787 88.737C513.046 87.2278 512.838 85.6475 513.584 84.6173C513.952 84.1535 514.461 83.8229 515.034 83.6761C515.608 83.5293 516.213 83.5744 516.758 83.8045C517.068 83.9639 517.341 84.1849 517.562 84.4539C517.783 84.7229 517.947 85.0342 518.043 85.3687C518.382 86.4345 518.296 87.5901 517.804 88.5943C517.58 89.0238 517.268 89.4012 516.888 89.702C517.071 89.8877 517.265 90.0618 517.47 90.2232C518.377 90.8927 519.47 91.262 520.597 91.2792C521.874 91.4265 523.138 91.6772 524.374 92.0288C525.818 92.4483 527.215 93.0112 528.547 93.709C527.912 92.8402 527.418 91.8768 527.083 90.8542C525.864 86.6133 525.997 84.0926 527.488 83.148C529.218 82.055 531.743 83.7486 533.492 85.1139C538.409 88.9638 539.55 94.7961 540.232 98.2788C540.734 100.843 541.13 102.871 539.81 103.614L539.757 103.644C539.561 103.751 539.342 103.812 539.119 103.822C538.896 103.832 538.673 103.791 538.468 103.703ZM529.538 84.9763C528.814 84.6913 528.574 84.8267 528.558 84.8385C528.549 84.8437 527.645 85.5723 529.005 90.3022C529.534 92.1504 532.386 95.9974 538.662 100.982C538.577 100.233 538.391 99.2865 538.269 98.6634C537.6 95.245 536.59 90.08 532.266 86.6928C531.44 85.9979 530.522 85.4203 529.538 84.9763ZM515.886 85.6052C515.766 85.577 515.641 85.5791 515.522 85.6114C515.403 85.6437 515.293 85.7051 515.204 85.7902C514.97 86.1118 515.144 87.0594 515.697 88.0874C515.833 87.9697 515.946 87.828 516.03 87.6694C516.272 87.1474 516.313 86.5546 516.146 86.0041C516.112 85.8487 516.025 85.7099 515.9 85.6116L515.886 85.6052Z" fill="#FFCC5D"/>
<path d="M533.459 114.076L536.222 115.164L534.508 119.518L531.744 118.431L533.459 114.076ZM524.338 132.795L525.855 133.392L524.725 136.261L523.209 135.664L524.338 132.795ZM542.817 140.069L544.334 140.667L543.205 143.535L541.687 142.938L542.817 140.069Z" fill="#F39821"/>
<path d="M556.573 109.632L559.364 110.731L535.232 172.033L532.441 170.934L556.573 109.632Z" fill="#FFCC5D"/>
<path d="M504.132 88.9883L574.78 116.799L570.164 128.525L499.516 100.713L504.132 88.9883Z" fill="#FFCC5D"/>
</svg>
