<svg width="470" height="144" viewBox="0 0 470 144" fill="none" xmlns="http://www.w3.org/2000/svg">
<path d="M102.076 40.8943C114.688 40.9511 127.177 43.3701 138.901 48.0267C153.424 31.5721 171.552 18.7098 191.867 10.4478C212.182 2.18585 234.13 -1.25146 255.993 0.405284C277.855 2.06203 299.038 8.76783 317.88 19.9972C336.723 31.2265 352.714 46.6745 364.601 65.1304C376.765 61.2595 389.674 60.3388 402.263 62.444C414.852 64.5492 426.762 69.6201 437.011 77.2392C447.261 84.8583 455.557 94.8076 461.217 106.268C466.877 117.728 469.739 130.371 469.566 143.156H1.91609e-08C-0.000259701 129.727 2.6398 116.429 7.76948 104.022C12.8992 91.6155 20.418 80.3423 29.8967 70.8465C39.3754 61.3507 50.6282 53.818 63.0128 48.6788C75.3974 43.5396 88.6713 40.8944 102.076 40.8943Z" fill="white"/>
<path d="M388.124 61.3852C380.194 61.4974 372.322 62.7706 364.762 65.1642C348.85 40.5264 325.699 21.4065 298.48 10.4255C271.262 -0.555465 241.309 -2.86017 212.728 3.82735C248.587 12.2621 279.778 34.2468 299.75 65.1642C311.946 61.295 324.888 60.3747 337.51 62.479C350.131 64.5833 362.072 69.652 372.349 77.2678C382.625 84.8836 390.943 94.8285 396.618 106.284C402.292 117.739 405.161 130.376 404.988 143.156H470C470 132.417 467.882 121.784 463.768 111.863C459.653 101.942 453.622 92.9273 446.019 85.3341C438.416 77.741 429.39 71.7178 419.456 67.6087C409.523 63.4995 398.876 61.3848 388.124 61.3852Z" fill="#C0CEDD"/>
</svg>
