<svg width="715" height="182" viewBox="0 0 715 182" fill="none" xmlns="http://www.w3.org/2000/svg">
<path opacity="0.5" d="M155.427 130.009C174.63 129.937 193.648 126.862 211.499 120.942C233.612 141.861 261.216 158.213 292.148 168.717C323.08 179.221 356.5 183.591 389.789 181.485C423.078 179.378 455.332 170.853 484.023 156.577C512.715 142.3 537.064 122.661 555.163 99.1968C573.685 104.118 593.34 105.289 612.509 102.612C631.678 99.9358 649.812 93.4889 665.419 83.8024C681.026 74.1159 693.659 61.4669 702.277 46.8972C710.895 32.3275 715.252 16.2539 714.989 0H2.91756e-08C-0.000395436 17.0728 4.01951 33.9785 11.8303 49.7518C19.641 65.5252 31.0897 79.8572 45.5225 91.9297C59.9553 104.002 77.0895 113.579 95.947 120.112C114.805 126.646 135.016 130.009 155.427 130.009Z" fill="white"/>
</svg>
