<svg width="1442" height="497" viewBox="0 0 1442 497" fill="none" xmlns="http://www.w3.org/2000/svg">
<path d="M1192.24 333.784C1185.04 333.784 1185.03 344.973 1192.24 344.973C1199.44 344.973 1199.45 333.784 1192.24 333.784ZM1192.24 333.784C1185.04 333.784 1185.03 344.973 1192.24 344.973C1199.44 344.973 1199.45 333.784 1192.24 333.784ZM1192.24 333.784C1185.04 333.784 1185.03 344.973 1192.24 344.973C1199.44 344.973 1199.45 333.784 1192.24 333.784ZM1192.24 333.784C1185.04 333.784 1185.03 344.973 1192.24 344.973C1199.44 344.973 1199.45 333.784 1192.24 333.784ZM1192.24 333.784C1185.04 333.784 1185.03 344.973 1192.24 344.973C1199.44 344.973 1199.45 333.784 1192.24 333.784ZM1192.24 333.784C1185.04 333.784 1185.03 344.973 1192.24 344.973C1199.44 344.973 1199.45 333.784 1192.24 333.784ZM1192.24 333.784C1185.04 333.784 1185.03 344.973 1192.24 344.973C1199.44 344.973 1199.45 333.784 1192.24 333.784ZM1192.24 333.784C1185.04 333.784 1185.03 344.973 1192.24 344.973C1199.44 344.973 1199.45 333.784 1192.24 333.784ZM1192.24 333.784C1185.04 333.784 1185.03 344.973 1192.24 344.973C1199.44 344.973 1199.45 333.784 1192.24 333.784ZM1192.24 333.784C1185.04 333.784 1185.03 344.973 1192.24 344.973C1199.44 344.973 1199.45 333.784 1192.24 333.784ZM1192.24 333.784C1185.04 333.784 1185.03 344.973 1192.24 344.973C1199.44 344.973 1199.45 333.784 1192.24 333.784Z" fill="white"/>
<path d="M1333.15 171.286C1325.96 171.286 1325.94 182.475 1333.15 182.475C1340.36 182.475 1340.37 171.286 1333.15 171.286Z" fill="white"/>
<path d="M1431.19 45.982C1423.99 45.982 1423.98 57.1709 1431.19 57.1709C1438.39 57.1709 1438.4 45.982 1431.19 45.982Z" fill="white"/>
<path d="M1372.1 303.701C1364.9 303.701 1364.89 314.89 1372.1 314.89C1379.3 314.89 1379.31 303.701 1372.1 303.701Z" fill="white"/>
<path d="M1436.6 118.169C1429.39 118.169 1429.38 129.358 1436.6 129.358C1443.8 129.358 1443.81 118.169 1436.6 118.169Z" fill="white"/>
<path d="M1400.8 401.266C1393.6 401.266 1393.59 412.455 1400.8 412.455C1408 412.455 1408.01 401.266 1400.8 401.266Z" fill="white"/>
<path d="M1161.41 485.794C1154.21 485.794 1154.2 496.982 1161.41 496.982C1168.61 496.982 1168.63 485.794 1161.41 485.794Z" fill="white"/>
<path d="M1230.23 419.01C1223.03 419.01 1223.02 430.199 1230.23 430.199C1237.43 430.199 1237.44 419.01 1230.23 419.01Z" fill="white"/>
<path d="M1027.41 163.874C1020.2 163.874 1020.19 175.062 1027.41 175.062C1034.61 175.062 1034.62 163.874 1027.41 163.874Z" fill="white"/>
<path d="M1094.88 238.771C1087.68 238.771 1087.67 249.96 1094.88 249.96C1102.08 249.96 1102.1 238.771 1094.88 238.771Z" fill="white"/>
<path d="M1055.17 100.321C1047.97 100.321 1047.96 111.51 1055.17 111.51C1062.37 111.51 1062.38 100.321 1055.17 100.321Z" fill="white"/>
<path d="M249.761 163.199C256.96 163.199 256.973 152.01 249.761 152.01C242.56 152.01 242.547 163.199 249.761 163.199ZM249.761 163.199C256.96 163.199 256.973 152.01 249.761 152.01C242.56 152.01 242.547 163.199 249.761 163.199ZM249.761 163.199C256.96 163.199 256.973 152.01 249.761 152.01C242.56 152.01 242.547 163.199 249.761 163.199ZM249.761 163.199C256.96 163.199 256.973 152.01 249.761 152.01C242.56 152.01 242.547 163.199 249.761 163.199ZM249.761 163.199C256.96 163.199 256.973 152.01 249.761 152.01C242.56 152.01 242.547 163.199 249.761 163.199ZM249.761 163.199C256.96 163.199 256.973 152.01 249.761 152.01C242.56 152.01 242.547 163.199 249.761 163.199ZM249.761 163.199C256.96 163.199 256.973 152.01 249.761 152.01C242.56 152.01 242.547 163.199 249.761 163.199ZM249.761 163.199C256.96 163.199 256.973 152.01 249.761 152.01C242.56 152.01 242.547 163.199 249.761 163.199ZM249.761 163.199C256.96 163.199 256.973 152.01 249.761 152.01C242.56 152.01 242.547 163.199 249.761 163.199ZM249.761 163.199C256.96 163.199 256.973 152.01 249.761 152.01C242.56 152.01 242.547 163.199 249.761 163.199ZM249.761 163.199C256.96 163.199 256.973 152.01 249.761 152.01C242.56 152.01 242.547 163.199 249.761 163.199Z" fill="white"/>
<path d="M108.845 325.697C116.045 325.697 116.057 314.508 108.845 314.508C101.643 314.508 101.632 325.697 108.845 325.697Z" fill="white"/>
<path d="M10.8086 451C18.0107 451 18.0232 439.812 10.8086 439.812C3.60907 439.812 3.59663 451 10.8086 451Z" fill="white"/>
<path d="M69.8985 193.282C77.0993 193.282 77.1118 182.093 69.8985 182.093C62.6989 182.093 62.6865 193.282 69.8985 193.282Z" fill="white"/>
<path d="M5.40435 378.813C12.6052 378.813 12.6176 367.624 5.40435 367.624C-1.79523 367.624 -1.80767 378.813 5.40435 378.813Z" fill="white"/>
<path d="M41.1993 95.7163C48.4001 95.7163 48.4125 84.5273 41.1993 84.5273C33.9997 84.5273 33.9873 95.7163 41.1993 95.7163Z" fill="white"/>
<path d="M280.588 11.1889C287.787 11.1889 287.8 0 280.588 0C273.386 0 273.373 11.1889 280.588 11.1889Z" fill="white"/>
<path d="M211.771 77.9721C218.971 77.9721 218.984 66.7832 211.771 66.7832C204.57 66.7832 204.557 77.9721 211.771 77.9721Z" fill="white"/>
<path d="M414.594 333.109C421.796 333.109 421.807 321.92 414.594 321.92C407.394 321.92 407.382 333.109 414.594 333.109Z" fill="white"/>
<path d="M347.115 258.211C354.317 258.211 354.329 247.022 347.115 247.022C339.916 247.022 339.903 258.211 347.115 258.211Z" fill="white"/>
<path d="M386.83 396.662C394.031 396.662 394.043 385.473 386.83 385.473C379.631 385.473 379.618 396.662 386.83 396.662Z" fill="white"/>
</svg>
