<svg width="470" height="144" viewBox="0 0 470 144" fill="none" xmlns="http://www.w3.org/2000/svg">
<path d="M102.076 40.8943C114.688 40.9511 127.177 43.3701 138.901 48.0267C153.424 31.5721 171.552 18.7098 191.867 10.4478C212.182 2.18585 234.13 -1.25146 255.993 0.405284C277.855 2.06203 299.038 8.76783 317.88 19.9972C336.723 31.2265 352.714 46.6745 364.601 65.1304C376.765 61.2595 389.674 60.3388 402.263 62.444C414.852 64.5492 426.762 69.6201 437.011 77.2392C447.261 84.8583 455.557 94.8076 461.217 106.268C466.877 117.728 469.739 130.371 469.566 143.156H1.91609e-08C-0.000259701 129.727 2.6398 116.429 7.76948 104.022C12.8992 91.6155 20.418 80.3423 29.8967 70.8465C39.3754 61.3507 50.6282 53.818 63.0128 48.6788C75.3974 43.5396 88.6713 40.8944 102.076 40.8943Z" fill="white"/>
</svg>
