<svg width="716" height="182" viewBox="0 0 716 182" fill="none" xmlns="http://www.w3.org/2000/svg">
<path d="M155.427 51.9907C174.63 52.0629 193.648 55.1383 211.499 61.0585C233.612 40.139 261.216 23.7866 292.148 13.2828C323.08 2.77897 356.5 -1.59104 389.789 0.515256C423.078 2.62155 455.332 11.1469 484.023 25.4233C512.715 39.6997 537.064 59.3393 555.163 82.8032C573.685 77.882 593.34 76.7113 612.509 79.3878C631.678 82.0642 649.812 88.5111 665.419 98.1976C681.026 107.884 693.659 120.533 702.277 135.103C710.895 149.672 715.252 165.746 714.989 182H2.91756e-08C-0.000395436 164.927 4.01951 148.021 11.8303 132.248C19.641 116.475 31.0897 102.143 45.5225 90.0703C59.9553 77.9978 77.0895 68.4212 95.947 61.8875C114.805 55.3538 135.016 51.9909 155.427 51.9907Z" fill="white"/>
<path d="M591.247 77.983C579.164 78.1257 567.171 79.7453 555.651 82.79C531.407 51.4493 496.131 27.1276 454.659 13.1591C413.187 -0.809382 367.549 -3.74111 324 4.76583C378.637 15.4953 426.162 43.4613 456.593 82.79C475.176 77.8682 494.895 76.6975 514.127 79.3744C533.359 82.0512 551.552 88.4989 567.21 98.1867C582.868 107.874 595.542 120.525 604.189 135.097C612.835 149.668 617.206 165.744 616.943 182H716C716 168.34 712.773 154.814 706.504 142.194C700.234 129.573 691.045 118.106 679.46 108.448C667.876 98.7886 654.123 91.1267 638.988 85.8996C623.852 80.6725 607.63 77.9825 591.247 77.983Z" fill="#C0CEDD"/>
</svg>
