<svg width="716" height="164" viewBox="0 0 716 164" fill="none" xmlns="http://www.w3.org/2000/svg">
<path d="M560.355 46.8488C541.126 46.9135 522.082 49.6847 504.206 55.0197C482.062 36.1692 454.419 21.4341 423.443 11.9691C392.468 2.50412 359.001 -1.43368 325.666 0.464298C292.33 2.36228 260.031 10.0445 231.3 22.9089C202.568 35.7734 178.185 53.4706 160.061 74.6139C141.513 70.1793 121.83 69.1245 102.635 71.5363C83.439 73.948 65.2791 79.7573 49.6504 88.4858C34.0217 97.2143 21.3714 108.612 12.7413 121.741C4.1111 134.87 -0.251996 149.354 0.0112419 164H716C716 148.616 711.975 133.382 704.153 119.169C696.332 104.955 684.867 92.0407 670.414 81.1622C655.961 70.2836 638.803 61.6543 619.919 55.7668C601.035 49.8793 580.795 46.849 560.355 46.8488Z" fill="white"/>
<path d="M430.145 66.1965C448.014 60.8595 467.052 58.0885 486.275 58.0267C524.973 58.0295 562.281 68.8876 590.917 88.482C619.553 108.076 637.462 135.001 641.15 164H716C716 148.618 711.976 133.386 704.156 119.174C696.337 104.963 684.876 92.0501 670.428 81.1732C655.979 70.2962 638.826 61.6682 619.948 55.7817C601.07 49.8952 580.837 46.8656 560.404 46.8658C541.181 46.9275 522.143 49.6985 504.274 55.0355C474.87 29.9979 435.954 12.3694 392.797 4.53828C349.64 -3.29285 304.328 -0.948165 263 11.2548C294.498 10.6777 325.782 15.2969 354.657 24.7882C383.531 34.2795 409.297 48.4128 430.145 66.1965Z" fill="#C0CEDD"/>
</svg>
