<svg width="166" height="47" viewBox="0 0 166 47" fill="none" xmlns="http://www.w3.org/2000/svg">
<mask id="mask0_839_2197" style="mask-type:alpha" maskUnits="userSpaceOnUse" x="0" y="0" width="166" height="47">
<path d="M60.2161 17.7487V12.4905C60.2161 5.50016 56.0614 1.35547 49.0302 1.35547C42.063 1.35547 38.036 5.37644 38.036 12.4905V13.4184C38.036 19.6664 40.0175 22.8831 45.0033 24.8008L47.8157 25.7906C52.6736 27.7083 53.952 29.2548 53.952 32.5953V35.1935C53.952 38.534 52.1623 40.5136 49.0941 40.5136C46.0899 40.5136 44.3002 38.534 44.3002 35.1935V29.5023H37.9082V34.7605C37.9082 41.8126 41.9351 45.8955 49.0302 45.8955C56.1253 45.8955 60.344 41.7508 60.344 34.7605V33.5851C60.344 27.2134 58.4264 24.1822 53.2489 22.2645L50.6921 21.3366C45.6425 19.3571 44.428 17.8105 44.428 14.47V12.0574C44.428 8.71694 46.1538 6.73739 49.0941 6.73739C52.0344 6.73739 53.8242 8.71694 53.8242 12.0574V17.7487H60.2161ZM83.1911 1.97408H62.0977V7.356H69.4484V45.2769H75.8404V7.356H83.1911V1.97408ZM85.7885 1.97408V45.2769H96.463C102.983 45.2769 107.841 42.1838 107.841 34.5749V12.6761C107.841 5.129 102.983 1.97408 96.463 1.97408H85.7885ZM92.1804 7.356H96.3991C99.0837 7.356 101.385 8.59322 101.385 12.6142V34.6367C101.385 38.6577 99.0837 39.8949 96.3991 39.8949H92.1804V7.356ZM117.584 1.91222H111.192V45.2769H117.584V26.3474H118.607L126.725 45.2769H133.564L123.849 23.6255L132.542 1.91222H125.702L118.607 20.9036H117.584V1.91222ZM135.786 1.97408V45.2769H142.178V1.97408H135.786ZM165.525 1.97408H144.432V7.356H151.782V45.2769H158.174V7.356H165.525V1.97408Z" fill="#302B44"/>
<path d="M13.3303 44.3437L12.9727 45.2769H14.0012H17.6967H18.1944L18.3675 44.8252L34.4681 2.81513L34.8256 1.88184H33.7972H30.1018H29.604L29.4308 2.3335L13.3303 44.3437Z" fill="#302B44" stroke="#302B44" stroke-width="2"/>
<path d="M2.35768 44.3437L2 45.2769H3.02854H6.72404H7.22178L7.39489 44.8252L23.4954 2.81513L23.8531 1.88184H22.8245H19.129H18.6313L18.4582 2.3335L2.35768 44.3437Z" fill="#302B44" stroke="#302B44" stroke-width="2"/>
</mask>
<g mask="url(#mask0_839_2197)">
<path d="M60.2171 17.7487V12.4905C60.2171 5.50016 56.0623 1.35547 49.0312 1.35547C42.064 1.35547 38.037 5.37644 38.037 12.4905V13.4184C38.037 19.6664 40.0185 22.8831 45.0042 24.8008L47.8167 25.7906C52.6746 27.7083 53.953 29.2548 53.953 32.5953V35.1935C53.953 38.534 52.1632 40.5136 49.0951 40.5136C46.0909 40.5136 44.3011 38.534 44.3011 35.1935V29.5023H37.9092V34.7605C37.9092 41.8126 41.9361 45.8955 49.0312 45.8955C56.1263 45.8955 60.3449 41.7508 60.3449 34.7605V33.5851C60.3449 27.2134 58.4274 24.1822 53.2499 22.2645L50.6931 21.3366C45.6434 19.3571 44.429 17.8105 44.429 14.47V12.0574C44.429 8.71694 46.1548 6.73739 49.0951 6.73739C52.0354 6.73739 53.8251 8.71694 53.8251 12.0574V17.7487H60.2171ZM83.1921 1.97408H62.0987V7.356H69.4494V45.2769H75.8414V7.356H83.1921V1.97408ZM85.7895 1.97408V45.2769H96.464C102.984 45.2769 107.842 42.1838 107.842 34.5749V12.6761C107.842 5.129 102.984 1.97408 96.464 1.97408H85.7895ZM92.1814 7.356H96.4001C99.0847 7.356 101.386 8.59322 101.386 12.6142V34.6367C101.386 38.6577 99.0847 39.8949 96.4001 39.8949H92.1814V7.356ZM117.585 1.91222H111.193V45.2769H117.585V26.3474H118.608L126.726 45.2769H133.565L123.849 23.6255L132.543 1.91222H125.703L118.608 20.9036H117.585V1.91222ZM135.787 1.97408V45.2769H142.179V1.97408H135.787ZM165.526 1.97408H144.433V7.356H151.783V45.2769H158.175V7.356H165.526V1.97408Z" fill="#355EF6"/>
<path fill-rule="evenodd" clip-rule="evenodd" d="M193.965 134.24C193.965 134.24 188.533 19.2764 154.621 27.241C123.056 34.6544 84.1071 67.1254 66.7242 4.80503C49.3412 -57.5155 -37.8422 -47.3442 -80.3379 12.0734C-122.833 71.4911 5.48783 163.479 5.48783 163.479L136.626 199.258L193.965 134.24Z" fill="url(#paint0_linear_839_2197)"/>
<path d="M13.3303 44.3437L12.9727 45.2769H14.0012H17.6967H18.1944L18.3675 44.8252L34.4681 2.81513L34.8256 1.88184H33.7972H30.1018H29.604L29.4308 2.3335L13.3303 44.3437Z" fill="#355EF6" stroke="#355EF6" stroke-width="2"/>
<path d="M2.35768 44.3437L2 45.2769H3.02854H6.72404H7.22178L7.39489 44.8252L23.4954 2.81513L23.8531 1.88184H22.8245H19.129H18.6313L18.4582 2.3335L2.35768 44.3437Z" fill="#355EF6" stroke="#355EF6" stroke-width="2"/>
</g>
<defs>
<linearGradient id="paint0_linear_839_2197" x1="176.524" y1="109.958" x2="-69.7095" y2="46.672" gradientUnits="userSpaceOnUse">
<stop stop-color="#EF65A9"/>
<stop offset="1" stop-color="#265EFD"/>
</linearGradient>
</defs>
</svg>
