<svg width="190" height="160" viewBox="0 0 190 160" fill="none" xmlns="http://www.w3.org/2000/svg">
  <g filter="url(#filter0_b_839_2629)">
    <rect width="190" height="160" rx="80" fill="url(#paint0_radial_839_2629)" fill-opacity="0.8" />
    <rect x="1" y="1" width="188" height="158" rx="79" stroke="white" stroke-width="2" />
  </g>
  <path d="M48.9365 80.0477C49.4138 80.0477 49.8804 79.9061 50.2772 79.6409C50.674 79.3756 50.9833 78.9986 51.166 78.5574C51.3487 78.1163 51.3965 77.6309 51.3034 77.1626C51.2104 76.6942 50.9806 76.2641 50.6432 75.9264C50.3057 75.5887 49.8758 75.3587 49.4077 75.2655C48.9396 75.1722 48.4544 75.22 48.0135 75.4026C47.5725 75.5853 47.1956 75.8946 46.9303 76.2916C46.6651 76.6885 46.5235 77.1552 46.5233 77.6327C46.5303 78.2708 46.7867 78.8809 47.2376 79.3322C47.6885 79.7836 48.2987 80.0404 48.9365 80.0477ZM119.723 46.8287C120.2 46.8286 120.667 46.6869 121.064 46.4216C121.46 46.1562 121.77 45.7791 121.952 45.338C122.135 44.8969 122.182 44.4115 122.089 43.9432C121.996 43.4749 121.766 43.0448 121.429 42.7071C121.091 42.3695 120.661 42.1396 120.193 42.0464C119.725 41.9532 119.24 42.001 118.799 42.1837C118.358 42.3663 117.981 42.6757 117.716 43.0726C117.451 43.4696 117.309 43.9363 117.309 44.4137C117.316 45.0521 117.573 45.6623 118.024 46.1137C118.475 46.5651 119.085 46.8217 119.723 46.8287ZM91.8512 62.9296C94.2576 62.9296 94.2619 59.1874 91.8512 59.1874C89.4449 59.1874 89.4405 62.9296 91.8512 62.9296ZM69.11 56.9545C69.358 56.9545 69.5958 56.8559 69.7712 56.6805C69.9466 56.505 70.0451 56.2671 70.0451 56.019C70.0451 55.7708 69.9466 55.5329 69.7712 55.3574C69.5958 55.182 69.358 55.0834 69.11 55.0834C68.862 55.0834 68.6241 55.182 68.4488 55.3574C68.2734 55.5329 68.1749 55.7708 68.1749 56.019C68.1749 56.2671 68.2734 56.505 68.4488 56.6805C68.6241 56.8559 68.862 56.9545 69.11 56.9545ZM20.7555 72.1716C21.0035 72.1716 21.2413 72.073 21.4167 71.8976C21.592 71.7221 21.6906 71.4842 21.6906 71.236C21.6906 70.9879 21.592 70.75 21.4167 70.5745C21.2413 70.3991 21.0035 70.3005 20.7555 70.3005C20.5074 70.3005 20.2696 70.3991 20.0942 70.5745C19.9189 70.75 19.8203 70.9879 19.8203 71.236C19.8203 71.4842 19.9189 71.7221 20.0942 71.8976C20.2696 72.073 20.5074 72.1716 20.7555 72.1716ZM18.9351 118C19.1831 118 19.421 117.901 19.5963 117.726C19.7717 117.551 19.8702 117.313 19.8702 117.064C19.8702 116.816 19.7717 116.578 19.5963 116.403C19.421 116.227 19.1831 116.129 18.9351 116.129C18.6871 116.129 18.4492 116.227 18.2739 116.403C18.0985 116.578 18 116.816 18 117.064C18 117.313 18.0985 117.551 18.2739 117.726C18.4492 117.901 18.6871 118 18.9351 118ZM144.015 90.5658C144.263 90.5658 144.501 90.4673 144.677 90.2918C144.852 90.1164 144.95 89.8784 144.95 89.6303C144.95 89.3822 144.852 89.1442 144.677 88.9687C144.501 88.7933 144.263 88.6947 144.015 88.6947C143.767 88.6947 143.53 88.7933 143.354 88.9687C143.179 89.1442 143.08 89.3822 143.08 89.6303C143.08 89.8784 143.179 90.1164 143.354 90.2918C143.53 90.4673 143.767 90.5658 144.015 90.5658ZM173.065 105.785C173.313 105.785 173.551 105.687 173.726 105.511C173.901 105.336 174 105.098 174 104.85C174 104.602 173.901 104.364 173.726 104.188C173.551 104.013 173.313 103.914 173.065 103.914C172.817 103.914 172.579 104.013 172.404 104.188C172.228 104.364 172.13 104.602 172.13 104.85C172.13 105.098 172.228 105.336 172.404 105.511C172.579 105.687 172.817 105.785 173.065 105.785Z" fill="white" />
  <path d="M179 72C175.228 66.4901 171.823 61.1497 168.148 56.0343C164.55 50.9507 160.731 46.0178 156.702 41.249C152.661 36.4889 148.42 31.892 143.99 27.47C139.54 22.9721 134.817 18.6817 130 14C136.573 15.7637 142.775 18.6364 148.324 22.4869C159.575 30.1614 168.454 40.6736 174.006 52.8896C176.809 58.9267 178.499 65.3948 178.999 71.9994" fill="white" />
  <defs>
    <filter id="filter0_b_839_2629" x="-40" y="-40" width="270" height="240" filterUnits="userSpaceOnUse" color-interpolation-filters="sRGB">
      <feFlood flood-opacity="0" result="BackgroundImageFix" />
      <feGaussianBlur in="BackgroundImageFix" stdDeviation="20" />
      <feComposite in2="SourceAlpha" operator="in" result="effect1_backgroundBlur_839_2629" />
      <feBlend mode="normal" in="SourceGraphic" in2="effect1_backgroundBlur_839_2629" result="shape" />
    </filter>
    <radialGradient id="paint0_radial_839_2629" cx="0" cy="0" r="1" gradientUnits="userSpaceOnUse" gradientTransform="translate(172.5 3.83205e-06) rotate(131.384) scale(190.591 412.039)">
      <stop stop-color="#D5E5F2" />
      <stop offset="1" stop-color="white" stop-opacity="0.5" />
    </radialGradient>
  </defs>
</svg>